Pridi-500.ufo
<glyph name="exclam" format="1">
  <advance width="218"/>
  <unicode hex="0021"/>
  <note>
	exclam
  </note>
  <outline>
    <contour>
      <point x="173" y="196" type="line"/>
      <point x="180" y="647" type="line"/>
      <point x="39" y="647" type="line"/>
      <point x="46" y="196" type="line"/>
    </contour>
    <contour>
      <point x="181" y="0" type="line"/>
      <point x="181" y="105" type="line"/>
      <point x="37" y="105" type="line"/>
      <point x="37" y="0" type="line"/>
    </contour>
  </outline>
</glyph>
<glyph name="numbersign" format="1">
  <advance width="749"/>
  <unicode hex="0023"/>
  <note>
	numbersign
  </note>
  <outline>
    <contour>
      <point x="221" y="0" type="line"/>
      <point x="257" y="170" type="line"/>
      <point x="424" y="170" type="line"/>
      <point x="388" y="0" type="line"/>
      <point x="501" y="0" type="line"/>
      <point x="538" y="170" type="line"/>
      <point x="683" y="170" type="line"/>
      <point x="683" y="258" type="line"/>
      <point x="558" y="258" type="line"/>
      <point x="591" y="407" type="line"/>
      <point x="712" y="407" type="line"/>
      <point x="712" y="495" type="line"/>
      <point x="611" y="495" type="line"/>
      <point x="645" y="647" type="line"/>
      <point x="531" y="647" type="line"/>
      <point x="497" y="495" type="line"/>
      <point x="330" y="495" type="line"/>
      <point x="364" y="647" type="line"/>
      <point x="249" y="647" type="line"/>
      <point x="216" y="495" type="line"/>
      <point x="65" y="495" type="line"/>
      <point x="65" y="407" type="line"/>
      <point x="197" y="407" type="line"/>
      <point x="163" y="258" type="line"/>
      <point x="37" y="258" type="line"/>
      <point x="37" y="170" type="line"/>
      <point x="144" y="170" type="line"/>
      <point x="106" y="0" type="line"/>
    </contour>
    <contour>
      <point x="310" y="407" type="line"/>
      <point x="477" y="407" type="line"/>
      <point x="444" y="258" type="line"/>
      <point x="277" y="258" type="line"/>
    </contour>
  </outline>
</glyph>
<glyph name="dollar" format="1">
  <advance width="561"/>
  <unicode hex="0024"/>
  <note>
	dollar
  </note>
  <outline>
    <contour>
      <point x="336" y="-120" type="line"/>
      <point x="336" y="-11" type="line"/>
      <point x="459" y="2"/>
      <point x="524" y="74"/>
      <point x="524" y="165" type="curve" smooth="yes"/>
      <point x="524" y="283"/>
      <point x="447" y="314"/>
      <point x="314" y="371" type="curve" smooth="yes"/>
      <point x="246" y="400"/>
      <point x="172" y="423"/>
      <point x="172" y="490" type="curve" smooth="yes"/>
      <point x="172" y="551"/>
      <point x="217" y="574"/>
      <point x="279" y="574" type="curve" smooth="yes"/>
      <point x="318" y="574"/>
      <point x="353" y="566"/>
      <point x="380" y="551" type="curve"/>
      <point x="380" y="487" type="line"/>
      <point x="513" y="487" type="line"/>
      <point x="513" y="586" type="line"/>
      <point x="470" y="620"/>
      <point x="412" y="650"/>
      <point x="336" y="658" type="curve"/>
      <point x="336" y="767" type="line"/>
      <point x="215" y="767" type="line"/>
      <point x="215" y="655" type="line"/>
      <point x="116" y="639"/>
      <point x="43" y="584"/>
      <point x="43" y="486" type="curve" smooth="yes"/>
      <point x="43" y="380"/>
      <point x="121" y="333"/>
      <point x="254" y="279" type="curve" smooth="yes"/>
      <point x="343" y="242"/>
      <point x="395" y="219"/>
      <point x="395" y="159" type="curve" smooth="yes"/>
      <point x="395" y="102"/>
      <point x="358" y="73"/>
      <point x="289" y="73" type="curve" smooth="yes"/>
      <point x="243" y="73"/>
      <point x="200" y="84"/>
      <point x="170" y="101" type="curve"/>
      <point x="170" y="170" type="line"/>
      <point x="37" y="170" type="line"/>
      <point x="37" y="63" type="line"/>
      <point x="82" y="28"/>
      <point x="145" y="1"/>
      <point x="215" y="-9" type="curve"/>
      <point x="215" y="-120" type="line"/>
    </contour>
  </outline>
</glyph>
<glyph name="percent" format="1">
  <advance width="769"/>
  <unicode hex="0025"/>
  <note>
	percent
  </note>
  <outline>
    <contour>
      <point x="266" y="0" type="line"/>
      <point x="643" y="647" type="line"/>
      <point x="510" y="647" type="line"/>
      <point x="133" y="0" type="line"/>
    </contour>
    <contour>
      <point x="276" y="354"/>
      <point x="345" y="423"/>
      <point x="345" y="508" type="curve" smooth="yes"/>
      <point x="345" y="593"/>
      <point x="276" y="662"/>
      <point x="191" y="662" type="curve" smooth="yes"/>
      <point x="106" y="662"/>
      <point x="37" y="593"/>
      <point x="37" y="508" type="curve" smooth="yes"/>
      <point x="37" y="423"/>
      <point x="106" y="354"/>
      <point x="191" y="354" type="curve" smooth="yes"/>
    </contour>
    <contour>
      <point x="153" y="440"/>
      <point x="123" y="470"/>
      <point x="123" y="508" type="curve" smooth="yes"/>
      <point x="123" y="546"/>
      <point x="153" y="576"/>
      <point x="191" y="576" type="curve" smooth="yes"/>
      <point x="229" y="576"/>
      <point x="259" y="546"/>
      <point x="259" y="508" type="curve" smooth="yes"/>
      <point x="259" y="470"/>
      <point x="229" y="440"/>
      <point x="191" y="440" type="curve" smooth="yes"/>
    </contour>
    <contour>
      <point x="663" y="-15"/>
      <point x="732" y="54"/>
      <point x="732" y="139" type="curve" smooth="yes"/>
      <point x="732" y="224"/>
      <point x="663" y="293"/>
      <point x="578" y="293" type="curve" smooth="yes"/>
      <point x="493" y="293"/>
      <point x="424" y="224"/>
      <point x="424" y="139" type="curve" smooth="yes"/>
      <point x="424" y="54"/>
      <point x="493" y="-15"/>
      <point x="578" y="-15" type="curve" smooth="yes"/>
    </contour>
    <contour>
      <point x="540" y="71"/>
      <point x="509" y="101"/>
      <point x="509" y="139" type="curve" smooth="yes"/>
      <point x="509" y="177"/>
      <point x="540" y="207"/>
      <point x="578" y="207" type="curve" smooth="yes"/>
      <point x="616" y="207"/>
      <point x="646" y="177"/>
      <point x="646" y="139" type="curve" smooth="yes"/>
      <point x="646" y="101"/>
      <point x="616" y="71"/>
      <point x="578" y="71" type="curve" smooth="yes"/>
    </contour>
  </outline>
</glyph>
<glyph name="ampersand" format="1">
  <advance width="693"/>
  <unicode hex="0026"/>
  <note>
	ampersand
  </note>
  <outline>
    <contour>
      <point x="361" y="-15"/>
      <point x="414" y="-3"/>
      <point x="469" y="41" type="curve"/>
      <point x="508" y="0" type="line"/>
      <point x="656" y="0" type="line"/>
      <point x="549" y="111" type="line"/>
      <point x="576" y="156"/>
      <point x="585" y="207"/>
      <point x="585" y="264" type="curve" smooth="yes"/>
      <point x="585" y="286"/>
      <point x="592" y="293"/>
      <point x="613" y="293" type="curve" smooth="yes"/>
      <point x="645" y="293" type="line"/>
      <point x="645" y="379" type="line"/>
      <point x="468" y="379" type="line"/>
      <point x="468" y="299" type="line" smooth="yes"/>
      <point x="468" y="268"/>
      <point x="465" y="239"/>
      <point x="456" y="215" type="curve"/>
      <point x="300" y="380" type="line" smooth="yes"/>
      <point x="247" y="435"/>
      <point x="213" y="463"/>
      <point x="213" y="509" type="curve" smooth="yes"/>
      <point x="213" y="559"/>
      <point x="235" y="576"/>
      <point x="269" y="576" type="curve" smooth="yes"/>
      <point x="303" y="576"/>
      <point x="322" y="555"/>
      <point x="322" y="519" type="curve" smooth="yes"/>
      <point x="322" y="478" type="line"/>
      <point x="454" y="478" type="line"/>
      <point x="454" y="506" type="line" smooth="yes"/>
      <point x="454" y="593"/>
      <point x="394" y="662"/>
      <point x="268" y="662" type="curve" smooth="yes"/>
      <point x="155" y="662"/>
      <point x="84" y="610"/>
      <point x="84" y="509" type="curve" smooth="yes"/>
      <point x="84" y="451"/>
      <point x="124" y="402"/>
      <point x="167" y="360" type="curve"/>
      <point x="80" y="311"/>
      <point x="37" y="256"/>
      <point x="37" y="165" type="curve" smooth="yes"/>
      <point x="37" y="50"/>
      <point x="135" y="-15"/>
      <point x="279" y="-15" type="curve" smooth="yes"/>
    </contour>
    <contour>
      <point x="223" y="71"/>
      <point x="168" y="101"/>
      <point x="168" y="165" type="curve" smooth="yes"/>
      <point x="168" y="221"/>
      <point x="189" y="253"/>
      <point x="241" y="283" type="curve"/>
      <point x="404" y="109" type="line"/>
      <point x="368" y="80"/>
      <point x="333" y="71"/>
      <point x="279" y="71" type="curve" smooth="yes"/>
    </contour>
  </outline>
</glyph>
<glyph name="quotesingle" format="1">
  <advance width="207"/>
  <unicode hex="0027"/>
  <note>
	quotesingle
  </note>
  <outline>
    <contour>
      <point x="157" y="516" type="line"/>
      <point x="170" y="721" type="line"/>
      <point x="37" y="721" type="line"/>
      <point x="50" y="516" type="line"/>
    </contour>
  </outline>
</glyph>
<glyph name="parenleft" format="1">
  <advance width="367"/>
  <unicode hex="0028"/>
  <note>
	parenleft
  </note>
  <outline>
    <contour>
      <point x="330" y="-75" type="line"/>
      <point x="211" y="28"/>
      <point x="166" y="161"/>
      <point x="166" y="316" type="curve" smooth="yes"/>
      <point x="166" y="469"/>
      <point x="216" y="605"/>
      <point x="330" y="707" type="curve"/>
      <point x="180" y="707" type="line"/>
      <point x="84" y="610"/>
      <point x="37" y="478"/>
      <point x="37" y="316" type="curve" smooth="yes"/>
      <point x="37" y="154"/>
      <point x="84" y="22"/>
      <point x="180" y="-75" type="curve"/>
    </contour>
  </outline>
</glyph>
<glyph name="parenright" format="1">
  <advance width="367"/>
  <unicode hex="0029"/>
  <note>
	parenright
  </note>
  <outline>
    <contour>
      <point x="187" y="-75" type="line"/>
      <point x="283" y="22"/>
      <point x="330" y="154"/>
      <point x="330" y="316" type="curve" smooth="yes"/>
      <point x="330" y="478"/>
      <point x="283" y="610"/>
      <point x="187" y="707" type="curve"/>
      <point x="37" y="707" type="line"/>
      <point x="156" y="604"/>
      <point x="201" y="471"/>
      <point x="201" y="316" type="curve" smooth="yes"/>
      <point x="201" y="163"/>
      <point x="151" y="27"/>
      <point x="37" y="-75" type="curve"/>
    </contour>
  </outline>
</glyph>
<glyph name="asterisk" format="1">
  <advance width="427"/>
  <unicode hex="002A"/>
  <note>
	asterisk
  </note>
  <outline>
    <contour>
      <point x="213" y="482" type="line"/>
      <point x="268" y="395" type="line"/>
      <point x="355" y="454" type="line"/>
      <point x="287" y="538" type="line"/>
      <point x="390" y="565" type="line"/>
      <point x="356" y="661" type="line"/>
      <point x="267" y="623" type="line"/>
      <point x="272" y="721" type="line"/>
      <point x="156" y="721" type="line"/>
      <point x="159" y="623" type="line"/>
      <point x="71" y="662" type="line"/>
      <point x="37" y="565" type="line"/>
      <point x="139" y="538" type="line"/>
      <point x="72" y="454" type="line"/>
      <point x="159" y="395" type="line"/>
    </contour>
  </outline>
</glyph>
<glyph name="plus" format="1">
  <advance width="413"/>
  <unicode hex="002B"/>
  <note>
	plus
  </note>
  <outline>
    <contour>
      <point x="258" y="160" type="line"/>
      <point x="258" y="264" type="line"/>
      <point x="376" y="264" type="line"/>
      <point x="376" y="351" type="line"/>
      <point x="258" y="351" type="line"/>
      <point x="258" y="455" type="line"/>
      <point x="152" y="455" type="line"/>
      <point x="152" y="351" type="line"/>
      <point x="37" y="351" type="line"/>
      <point x="37" y="264" type="line"/>
      <point x="152" y="264" type="line"/>
      <point x="152" y="160" type="line"/>
    </contour>
  </outline>
</glyph>
<glyph name="comma" format="1">
  <advance width="237"/>
  <unicode hex="002C"/>
  <note>
	comma
  </note>
  <outline>
    <contour>
      <point x="133" y="-119" type="line"/>
      <point x="200" y="97" type="line"/>
      <point x="71" y="97" type="line"/>
      <point x="37" y="-119" type="line"/>
    </contour>
  </outline>
</glyph>
<glyph name="hyphen" format="1">
  <advance width="372"/>
  <unicode hex="002D"/>
  <note>
	hyphen
  </note>
  <outline>
    <contour>
      <point x="335" y="258" type="line"/>
      <point x="335" y="345" type="line"/>
      <point x="37" y="345" type="line"/>
      <point x="37" y="258" type="line"/>
    </contour>
  </outline>
</glyph>
<glyph name="slash" format="1">
  <advance width="458"/>
  <unicode hex="002F"/>
  <note>
	slash
  </note>
  <outline>
    <contour>
      <point x="171" y="0" type="line"/>
      <point x="421" y="676" type="line"/>
      <point x="288" y="676" type="line"/>
      <point x="37" y="0" type="line"/>
    </contour>
  </outline>
</glyph>
<glyph name="zero" format="1">
  <advance width="625"/>
  <unicode hex="0030"/>
  <note>
	zero
  </note>
  <outline>
    <contour>
      <point x="508" y="-15"/>
      <point x="598" y="99"/>
      <point x="598" y="324" type="curve" smooth="yes"/>
      <point x="598" y="548"/>
      <point x="508" y="662"/>
      <point x="312" y="662" type="curve" smooth="yes"/>
      <point x="118" y="662"/>
      <point x="27" y="548"/>
      <point x="27" y="324" type="curve" smooth="yes"/>
      <point x="27" y="99"/>
      <point x="118" y="-15"/>
      <point x="312" y="-15" type="curve" smooth="yes"/>
    </contour>
    <contour>
      <point x="217" y="74"/>
      <point x="157" y="139"/>
      <point x="157" y="324" type="curve" smooth="yes"/>
      <point x="157" y="508"/>
      <point x="217" y="573"/>
      <point x="312" y="573" type="curve" smooth="yes"/>
      <point x="408" y="573"/>
      <point x="468" y="508"/>
      <point x="468" y="324" type="curve" smooth="yes"/>
      <point x="468" y="139"/>
      <point x="408" y="74"/>
      <point x="312" y="74" type="curve" smooth="yes"/>
    </contour>
  </outline>
</glyph>
<glyph name="one" format="1">
  <advance width="418"/>
  <unicode hex="0031"/>
  <note>
	one
  </note>
  <outline>
    <contour>
      <point x="391" y="0" type="line"/>
      <point x="391" y="87" type="line"/>
      <point x="335" y="87" type="line" smooth="yes"/>
      <point x="305" y="87"/>
      <point x="294" y="100"/>
      <point x="294" y="126" type="curve" smooth="yes"/>
      <point x="294" y="647" type="line"/>
      <point x="185" y="647" type="line"/>
      <point x="27" y="547" type="line"/>
      <point x="76" y="467" type="line"/>
      <point x="163" y="520" type="line"/>
      <point x="163" y="126" type="line" smooth="yes"/>
      <point x="163" y="100"/>
      <point x="153" y="87"/>
      <point x="123" y="87" type="curve" smooth="yes"/>
      <point x="67" y="87" type="line"/>
      <point x="67" y="0" type="line"/>
    </contour>
  </outline>
</glyph>
<glyph name="two" format="1">
  <advance width="543"/>
  <unicode hex="0032"/>
  <note>
	two
  </note>
  <outline>
    <contour>
      <point x="498" y="0" type="line"/>
      <point x="498" y="87" type="line"/>
      <point x="167" y="87" type="line"/>
      <point x="167" y="166"/>
      <point x="228" y="203"/>
      <point x="317" y="252" type="curve" smooth="yes"/>
      <point x="448" y="325"/>
      <point x="506" y="383"/>
      <point x="506" y="483" type="curve" smooth="yes"/>
      <point x="506" y="607"/>
      <point x="407" y="662"/>
      <point x="268" y="662" type="curve" smooth="yes"/>
      <point x="182" y="662"/>
      <point x="99" y="634"/>
      <point x="41" y="595" type="curve"/>
      <point x="41" y="493" type="line"/>
      <point x="170" y="493" type="line"/>
      <point x="170" y="553" type="line"/>
      <point x="202" y="567"/>
      <point x="232" y="573"/>
      <point x="269" y="573" type="curve" smooth="yes"/>
      <point x="335" y="573"/>
      <point x="376" y="546"/>
      <point x="376" y="483" type="curve" smooth="yes"/>
      <point x="376" y="405"/>
      <point x="333" y="371"/>
      <point x="255" y="332" type="curve" smooth="yes"/>
      <point x="122" y="266"/>
      <point x="37" y="185"/>
      <point x="37" y="57" type="curve" smooth="yes"/>
      <point x="37" y="0" type="line"/>
    </contour>
  </outline>
</glyph>
<glyph name="three" format="1">
  <advance width="559"/>
  <unicode hex="0033"/>
  <note>
	three
  </note>
  <outline>
    <contour>
      <point x="442" y="-15"/>
      <point x="522" y="49"/>
      <point x="522" y="197" type="curve" smooth="yes"/>
      <point x="522" y="266"/>
      <point x="488" y="311"/>
      <point x="432" y="339" type="curve"/>
      <point x="494" y="379"/>
      <point x="516" y="430"/>
      <point x="516" y="488" type="curve" smooth="yes"/>
      <point x="516" y="609"/>
      <point x="412" y="662"/>
      <point x="278" y="662" type="curve" smooth="yes"/>
      <point x="191" y="662"/>
      <point x="105" y="634"/>
      <point x="50" y="594" type="curve"/>
      <point x="50" y="493" type="line"/>
      <point x="181" y="493" type="line"/>
      <point x="181" y="555" type="line"/>
      <point x="213" y="568"/>
      <point x="247" y="573"/>
      <point x="279" y="573" type="curve" smooth="yes"/>
      <point x="342" y="573"/>
      <point x="386" y="546"/>
      <point x="386" y="484" type="curve" smooth="yes"/>
      <point x="386" y="412"/>
      <point x="350" y="382"/>
      <point x="289" y="382" type="curve" smooth="yes"/>
      <point x="203" y="382" type="line"/>
      <point x="203" y="294" type="line"/>
      <point x="287" y="294" type="line" smooth="yes"/>
      <point x="360" y="294"/>
      <point x="393" y="258"/>
      <point x="393" y="193" type="curve" smooth="yes"/>
      <point x="393" y="103"/>
      <point x="357" y="74"/>
      <point x="276" y="74" type="curve" smooth="yes"/>
      <point x="237" y="74"/>
      <point x="201" y="83"/>
      <point x="168" y="102" type="curve"/>
      <point x="168" y="165" type="line"/>
      <point x="37" y="165" type="line"/>
      <point x="37" y="63" type="line"/>
      <point x="94" y="12"/>
      <point x="178" y="-15"/>
      <point x="273" y="-15" type="curve" smooth="yes"/>
    </contour>
  </outline>
</glyph>
<glyph name="four" format="1">
  <advance width="549"/>
  <unicode hex="0034"/>
  <note>
	four
  </note>
  <outline>
    <contour>
      <point x="512" y="0" type="line"/>
      <point x="512" y="87" type="line"/>
      <point x="468" y="87" type="line" smooth="yes"/>
      <point x="438" y="87"/>
      <point x="427" y="100"/>
      <point x="427" y="126" type="curve" smooth="yes"/>
      <point x="427" y="171" type="line"/>
      <point x="532" y="171" type="line"/>
      <point x="532" y="259" type="line"/>
      <point x="427" y="259" type="line"/>
      <point x="427" y="647" type="line"/>
      <point x="309" y="647" type="line"/>
      <point x="17" y="250" type="line"/>
      <point x="17" y="171" type="line"/>
      <point x="299" y="171" type="line"/>
      <point x="299" y="126" type="line" smooth="yes"/>
      <point x="299" y="100"/>
      <point x="289" y="87"/>
      <point x="259" y="87" type="curve" smooth="yes"/>
      <point x="215" y="87" type="line"/>
      <point x="215" y="0" type="line"/>
    </contour>
    <contour>
      <point x="308" y="478" type="line"/>
      <point x="308" y="259" type="line"/>
      <point x="147" y="259" type="line"/>
    </contour>
  </outline>
</glyph>
<glyph name="five" format="1">
  <advance width="562"/>
  <unicode hex="0035"/>
  <note>
	five
  </note>
  <outline>
    <contour>
      <point x="448" y="-15"/>
      <point x="525" y="73"/>
      <point x="525" y="219" type="curve" smooth="yes"/>
      <point x="525" y="382"/>
      <point x="422" y="437"/>
      <point x="276" y="437" type="curve" smooth="yes"/>
      <point x="189" y="437" type="line"/>
      <point x="200" y="560" type="line"/>
      <point x="505" y="560" type="line"/>
      <point x="505" y="647" type="line"/>
      <point x="79" y="647" type="line"/>
      <point x="59" y="409" type="line"/>
      <point x="59" y="347" type="line"/>
      <point x="260" y="347" type="line" smooth="yes"/>
      <point x="351" y="347"/>
      <point x="396" y="314"/>
      <point x="396" y="219" type="curve" smooth="yes"/>
      <point x="396" y="127"/>
      <point x="364" y="74"/>
      <point x="283" y="74" type="curve" smooth="yes"/>
      <point x="240" y="74"/>
      <point x="199" y="83"/>
      <point x="168" y="101" type="curve"/>
      <point x="168" y="165" type="line"/>
      <point x="37" y="165" type="line"/>
      <point x="37" y="63" type="line"/>
      <point x="100" y="12"/>
      <point x="177" y="-15"/>
      <point x="279" y="-15" type="curve" smooth="yes"/>
    </contour>
  </outline>
</glyph>
<glyph name="six" format="1">
  <advance width="570"/>
  <unicode hex="0036"/>
  <note>
	six
  </note>
  <outline>
    <contour>
      <point x="465" y="-15"/>
      <point x="553" y="70"/>
      <point x="553" y="231" type="curve" smooth="yes"/>
      <point x="553" y="379"/>
      <point x="483" y="458"/>
      <point x="331" y="458" type="curve" smooth="yes"/>
      <point x="266" y="458"/>
      <point x="207" y="444"/>
      <point x="163" y="401" type="curve"/>
      <point x="182" y="515"/>
      <point x="236" y="573"/>
      <point x="335" y="573" type="curve" smooth="yes"/>
      <point x="392" y="573"/>
      <point x="432" y="553"/>
      <point x="462" y="526" type="curve"/>
      <point x="510" y="603" type="line"/>
      <point x="457" y="642"/>
      <point x="409" y="662"/>
      <point x="323" y="662" type="curve" smooth="yes"/>
      <point x="182" y="662"/>
      <point x="37" y="574"/>
      <point x="37" y="281" type="curve" smooth="yes"/>
      <point x="37" y="70"/>
      <point x="142" y="-15"/>
      <point x="292" y="-15" type="curve" smooth="yes"/>
    </contour>
    <contour>
      <point x="216" y="74"/>
      <point x="167" y="116"/>
      <point x="167" y="240" type="curve" smooth="yes"/>
      <point x="167" y="329"/>
      <point x="225" y="374"/>
      <point x="295" y="374" type="curve" smooth="yes"/>
      <point x="385" y="374"/>
      <point x="423" y="328"/>
      <point x="423" y="231" type="curve" smooth="yes"/>
      <point x="423" y="114"/>
      <point x="384" y="74"/>
      <point x="292" y="74" type="curve" smooth="yes"/>
    </contour>
  </outline>
</glyph>
<glyph name="seven" format="1">
  <advance width="517"/>
  <unicode hex="0037"/>
  <note>
	seven
  </note>
  <outline>
    <contour>
      <point x="263" y="0" type="line"/>
      <point x="500" y="589" type="line"/>
      <point x="500" y="647" type="line"/>
      <point x="17" y="647" type="line"/>
      <point x="17" y="490" type="line"/>
      <point x="149" y="490" type="line"/>
      <point x="149" y="560" type="line"/>
      <point x="356" y="560" type="line"/>
      <point x="130" y="0" type="line"/>
    </contour>
  </outline>
</glyph>
<glyph name="eight" format="1">
  <advance width="587"/>
  <unicode hex="0038"/>
  <note>
	eight
  </note>
  <outline>
    <contour>
      <point x="456" y="-15"/>
      <point x="550" y="46"/>
      <point x="550" y="183" type="curve" smooth="yes"/>
      <point x="550" y="255"/>
      <point x="516" y="306"/>
      <point x="461" y="337" type="curve"/>
      <point x="520" y="376"/>
      <point x="541" y="423"/>
      <point x="541" y="481" type="curve" smooth="yes"/>
      <point x="541" y="602"/>
      <point x="438" y="662"/>
      <point x="294" y="662" type="curve" smooth="yes"/>
      <point x="151" y="662"/>
      <point x="48" y="602"/>
      <point x="48" y="481" type="curve" smooth="yes"/>
      <point x="48" y="423"/>
      <point x="70" y="375"/>
      <point x="127" y="337" type="curve"/>
      <point x="71" y="306"/>
      <point x="37" y="255"/>
      <point x="37" y="183" type="curve" smooth="yes"/>
      <point x="37" y="46"/>
      <point x="132" y="-15"/>
      <point x="294" y="-15" type="curve" smooth="yes"/>
    </contour>
    <contour>
      <point x="208" y="74"/>
      <point x="167" y="109"/>
      <point x="167" y="189" type="curve" smooth="yes"/>
      <point x="167" y="257"/>
      <point x="208" y="294"/>
      <point x="286" y="294" type="curve" smooth="yes"/>
      <point x="303" y="294" type="line" smooth="yes"/>
      <point x="382" y="294"/>
      <point x="420" y="257"/>
      <point x="420" y="189" type="curve" smooth="yes"/>
      <point x="420" y="109"/>
      <point x="381" y="74"/>
      <point x="294" y="74" type="curve" smooth="yes"/>
    </contour>
    <contour>
      <point x="214" y="380"/>
      <point x="178" y="408"/>
      <point x="178" y="481" type="curve" smooth="yes"/>
      <point x="178" y="545"/>
      <point x="223" y="573"/>
      <point x="294" y="573" type="curve" smooth="yes"/>
      <point x="366" y="573"/>
      <point x="411" y="545"/>
      <point x="411" y="481" type="curve" smooth="yes"/>
      <point x="411" y="408"/>
      <point x="376" y="380"/>
      <point x="304" y="380" type="curve" smooth="yes"/>
      <point x="285" y="380" type="line" smooth="yes"/>
    </contour>
  </outline>
</glyph>
<glyph name="nine" format="1">
  <advance width="590"/>
  <unicode hex="0039"/>
  <note>
	nine
  </note>
  <outline>
    <contour>
      <point x="416" y="-15"/>
      <point x="553" y="73"/>
      <point x="553" y="366" type="curve" smooth="yes"/>
      <point x="553" y="577"/>
      <point x="450" y="662"/>
      <point x="300" y="662" type="curve" smooth="yes"/>
      <point x="132" y="662"/>
      <point x="37" y="579"/>
      <point x="37" y="419" type="curve" smooth="yes"/>
      <point x="37" y="271"/>
      <point x="118" y="189"/>
      <point x="269" y="189" type="curve" smooth="yes"/>
      <point x="336" y="189"/>
      <point x="384" y="204"/>
      <point x="428" y="248" type="curve"/>
      <point x="401" y="135"/>
      <point x="355" y="74"/>
      <point x="256" y="74" type="curve" smooth="yes"/>
      <point x="208" y="74"/>
      <point x="164" y="91"/>
      <point x="130" y="119" type="curve"/>
      <point x="80" y="38" type="line"/>
      <point x="133" y="1"/>
      <point x="192" y="-15"/>
      <point x="275" y="-15" type="curve" smooth="yes"/>
    </contour>
    <contour>
      <point x="206" y="273"/>
      <point x="167" y="319"/>
      <point x="167" y="416" type="curve" smooth="yes"/>
      <point x="167" y="533"/>
      <point x="208" y="573"/>
      <point x="300" y="573" type="curve" smooth="yes"/>
      <point x="375" y="573"/>
      <point x="422" y="534"/>
      <point x="422" y="410" type="curve" smooth="yes"/>
      <point x="422" y="320"/>
      <point x="370" y="273"/>
      <point x="296" y="273" type="curve" smooth="yes"/>
    </contour>
  </outline>
</glyph>
<glyph name="colon" format="1">
  <advance width="180"/>
  <unicode hex="003A"/>
  <note>
	colon
  </note>
  <outline>
    <contour>
      <point x="143" y="0" type="line"/>
      <point x="143" y="112" type="line"/>
      <point x="37" y="112" type="line"/>
      <point x="37" y="0" type="line"/>
    </contour>
    <contour>
      <point x="143" y="385" type="line"/>
      <point x="143" y="496" type="line"/>
      <point x="37" y="496" type="line"/>
      <point x="37" y="385" type="line"/>
    </contour>
  </outline>
</glyph>
<glyph name="semicolon" format="1">
  <advance width="230"/>
  <unicode hex="003B"/>
  <note>
	semicolon
  </note>
  <outline>
    <contour>
      <point x="127" y="-119" type="line"/>
      <point x="193" y="97" type="line"/>
      <point x="70" y="97" type="line"/>
      <point x="37" y="-119" type="line"/>
    </contour>
    <contour>
      <point x="186" y="385" type="line"/>
      <point x="186" y="496" type="line"/>
      <point x="68" y="496" type="line"/>
      <point x="68" y="385" type="line"/>
    </contour>
  </outline>
</glyph>
<glyph name="less" format="1">
  <advance width="622"/>
  <unicode hex="003C"/>
  <note>
	less
  </note>
  <outline>
    <contour>
      <point x="585" y="156" type="line"/>
      <point x="188" y="326" type="line"/>
      <point x="585" y="494" type="line"/>
      <point x="585" y="602" type="line"/>
      <point x="37" y="358" type="line"/>
      <point x="37" y="292" type="line"/>
      <point x="585" y="48" type="line"/>
    </contour>
  </outline>
</glyph>
<glyph name="equal" format="1">
  <advance width="419"/>
  <unicode hex="003D"/>
  <note>
	equal
  </note>
  <outline>
    <contour>
      <point x="382" y="177" type="line"/>
      <point x="382" y="266" type="line"/>
      <point x="37" y="266" type="line"/>
      <point x="37" y="177" type="line"/>
    </contour>
    <contour>
      <point x="382" y="339" type="line"/>
      <point x="382" y="427" type="line"/>
      <point x="37" y="427" type="line"/>
      <point x="37" y="339" type="line"/>
    </contour>
  </outline>
</glyph>
<glyph name="greater" format="1">
  <advance width="622"/>
  <unicode hex="003E"/>
  <note>
	greater
  </note>
  <outline>
    <contour>
      <point x="585" y="292" type="line"/>
      <point x="585" y="358" type="line"/>
      <point x="37" y="602" type="line"/>
      <point x="37" y="494" type="line"/>
      <point x="434" y="326" type="line"/>
      <point x="37" y="156" type="line"/>
      <point x="37" y="48" type="line"/>
    </contour>
  </outline>
</glyph>
<glyph name="question" format="1">
  <advance width="543"/>
  <unicode hex="003F"/>
  <note>
	question
  </note>
  <outline>
    <contour>
      <point x="298" y="160" type="line"/>
      <point x="298" y="183" type="line" smooth="yes"/>
      <point x="298" y="249"/>
      <point x="306" y="276"/>
      <point x="367" y="309" type="curve" smooth="yes"/>
      <point x="462" y="363"/>
      <point x="506" y="400"/>
      <point x="506" y="489" type="curve" smooth="yes"/>
      <point x="506" y="607"/>
      <point x="415" y="662"/>
      <point x="268" y="662" type="curve" smooth="yes"/>
      <point x="173" y="662"/>
      <point x="91" y="633"/>
      <point x="37" y="593" type="curve"/>
      <point x="37" y="488" type="line"/>
      <point x="155" y="488" type="line"/>
      <point x="155" y="548" type="line"/>
      <point x="184" y="562"/>
      <point x="222" y="574"/>
      <point x="264" y="574" type="curve" smooth="yes"/>
      <point x="336" y="574"/>
      <point x="376" y="547"/>
      <point x="376" y="489" type="curve" smooth="yes"/>
      <point x="376" y="432"/>
      <point x="343" y="407"/>
      <point x="286" y="378" type="curve" smooth="yes"/>
      <point x="198" y="330"/>
      <point x="166" y="273"/>
      <point x="166" y="189" type="curve" smooth="yes"/>
      <point x="166" y="160" type="line"/>
    </contour>
    <contour>
      <point x="305" y="0" type="line"/>
      <point x="305" y="108" type="line"/>
      <point x="158" y="108" type="line"/>
      <point x="158" y="0" type="line"/>
    </contour>
  </outline>
</glyph>
<glyph name="at" format="1">
  <advance width="862"/>
  <unicode hex="0040"/>
  <note>
	at
  </note>
  <outline>
    <contour>
      <point x="525" y="-110"/>
      <point x="589" y="-99"/>
      <point x="669" y="-72" type="curve"/>
      <point x="669" y="26" type="line"/>
      <point x="595" y="-1"/>
      <point x="507" y="-10"/>
      <point x="437" y="-10" type="curve" smooth="yes"/>
      <point x="257" y="-10"/>
      <point x="153" y="72"/>
      <point x="153" y="278" type="curve" smooth="yes"/>
      <point x="153" y="461"/>
      <point x="257" y="548"/>
      <point x="437" y="548" type="curve" smooth="yes"/>
      <point x="638" y="548"/>
      <point x="710" y="468"/>
      <point x="710" y="302" type="curve" smooth="yes"/>
      <point x="710" y="196"/>
      <point x="689" y="153"/>
      <point x="649" y="153" type="curve" smooth="yes"/>
      <point x="626" y="153"/>
      <point x="616" y="170"/>
      <point x="616" y="196" type="curve" smooth="yes"/>
      <point x="616" y="328" type="line" smooth="yes"/>
      <point x="616" y="420"/>
      <point x="564" y="468"/>
      <point x="444" y="468" type="curve" smooth="yes"/>
      <point x="380" y="468"/>
      <point x="321" y="452"/>
      <point x="275" y="419" type="curve"/>
      <point x="275" y="353" type="line"/>
      <point x="387" y="353" type="line"/>
      <point x="387" y="381" type="line"/>
      <point x="402" y="389"/>
      <point x="417" y="393"/>
      <point x="443" y="393" type="curve" smooth="yes"/>
      <point x="483" y="393"/>
      <point x="498" y="376"/>
      <point x="498" y="337" type="curve" smooth="yes"/>
      <point x="498" y="310" type="line"/>
      <point x="379" y="302" type="line" smooth="yes"/>
      <point x="296" y="297"/>
      <point x="248" y="253"/>
      <point x="248" y="177" type="curve" smooth="yes"/>
      <point x="248" y="106"/>
      <point x="296" y="61"/>
      <point x="396" y="61" type="curve" smooth="yes"/>
      <point x="470" y="61"/>
      <point x="525" y="85"/>
      <point x="556" y="129" type="curve"/>
      <point x="567" y="92"/>
      <point x="612" y="65"/>
      <point x="658" y="65" type="curve" smooth="yes"/>
      <point x="782" y="65"/>
      <point x="825" y="162"/>
      <point x="825" y="299" type="curve" smooth="yes"/>
      <point x="825" y="518"/>
      <point x="697" y="652"/>
      <point x="437" y="652" type="curve" smooth="yes"/>
      <point x="194" y="652"/>
      <point x="37" y="505"/>
      <point x="37" y="278" type="curve" smooth="yes"/>
      <point x="37" y="51"/>
      <point x="153" y="-110"/>
      <point x="437" y="-110" type="curve" smooth="yes"/>
    </contour>
    <contour>
      <point x="380" y="136"/>
      <point x="358" y="148"/>
      <point x="358" y="178" type="curve" smooth="yes"/>
      <point x="358" y="215"/>
      <point x="379" y="226"/>
      <point x="412" y="228" type="curve" smooth="yes"/>
      <point x="498" y="234" type="line"/>
      <point x="498" y="208" type="line" smooth="yes"/>
      <point x="498" y="158"/>
      <point x="461" y="136"/>
      <point x="412" y="136" type="curve" smooth="yes"/>
    </contour>
  </outline>
</glyph>
<glyph name="B" format="1">
  <advance width="599"/>
  <unicode hex="0042"/>
  <note>
	B
  </note>
  <outline>
    <contour>
      <point x="393" y="0" type="line" smooth="yes"/>
      <point x="504" y="0"/>
      <point x="572" y="75"/>
      <point x="572" y="181" type="curve" smooth="yes"/>
      <point x="572" y="256"/>
      <point x="536" y="304"/>
      <point x="471" y="329" type="curve"/>
      <point x="530" y="357"/>
      <point x="561" y="412"/>
      <point x="561" y="473" type="curve" smooth="yes"/>
      <point x="561" y="586"/>
      <point x="494" y="647"/>
      <point x="381" y="647" type="curve" smooth="yes"/>
      <point x="27" y="647" type="line"/>
      <point x="27" y="560" type="line"/>
      <point x="55" y="560" type="line" smooth="yes"/>
      <point x="83" y="560"/>
      <point x="93" y="548"/>
      <point x="93" y="523" type="curve" smooth="yes"/>
      <point x="93" y="126" type="line" smooth="yes"/>
      <point x="93" y="99"/>
      <point x="83" y="87"/>
      <point x="55" y="87" type="curve" smooth="yes"/>
      <point x="27" y="87" type="line"/>
      <point x="27" y="0" type="line"/>
    </contour>
    <contour>
      <point x="224" y="280" type="line"/>
      <point x="340" y="280" type="line" smooth="yes"/>
      <point x="402" y="280"/>
      <point x="442" y="256"/>
      <point x="442" y="185" type="curve" smooth="yes"/>
      <point x="442" y="118"/>
      <point x="404" y="87"/>
      <point x="352" y="87" type="curve" smooth="yes"/>
      <point x="224" y="87" type="line"/>
    </contour>
    <contour>
      <point x="224" y="560" type="line"/>
      <point x="338" y="560" type="line" smooth="yes"/>
      <point x="402" y="560"/>
      <point x="431" y="527"/>
      <point x="431" y="466" type="curve" smooth="yes"/>
      <point x="431" y="402"/>
      <point x="391" y="370"/>
      <point x="335" y="370" type="curve" smooth="yes"/>
      <point x="224" y="370" type="line"/>
    </contour>
  </outline>
</glyph>
<glyph name="G" format="1">
  <advance width="625"/>
  <unicode hex="0047"/>
  <note>
	G
  </note>
  <outline>
    <contour>
      <point x="452" y="-15"/>
      <point x="530" y="5"/>
      <point x="598" y="52" type="curve"/>
      <point x="598" y="349" type="line"/>
      <point x="335" y="349" type="line"/>
      <point x="335" y="261" type="line"/>
      <point x="466" y="261" type="line"/>
      <point x="466" y="90" type="line"/>
      <point x="432" y="78"/>
      <point x="400" y="74"/>
      <point x="361" y="74" type="curve" smooth="yes"/>
      <point x="231" y="74"/>
      <point x="157" y="164"/>
      <point x="157" y="319" type="curve" smooth="yes"/>
      <point x="157" y="478"/>
      <point x="227" y="573"/>
      <point x="357" y="573" type="curve" smooth="yes"/>
      <point x="396" y="573"/>
      <point x="418" y="569"/>
      <point x="443" y="558" type="curve"/>
      <point x="443" y="489" type="line"/>
      <point x="574" y="489" type="line"/>
      <point x="574" y="603" type="line"/>
      <point x="511" y="643"/>
      <point x="450" y="662"/>
      <point x="350" y="662" type="curve" smooth="yes"/>
      <point x="127" y="662"/>
      <point x="27" y="514"/>
      <point x="27" y="319" type="curve" smooth="yes"/>
      <point x="27" y="124"/>
      <point x="141" y="-15"/>
      <point x="355" y="-15" type="curve" smooth="yes"/>
    </contour>
  </outline>
</glyph>
<glyph name="I" format="1">
  <advance width="313"/>
  <unicode hex="0049"/>
  <note>
	I
  </note>
  <outline>
    <contour>
      <point x="286" y="0" type="line"/>
      <point x="286" y="87" type="line"/>
      <point x="260" y="87" type="line" smooth="yes"/>
      <point x="233" y="87"/>
      <point x="223" y="99"/>
      <point x="223" y="124" type="curve" smooth="yes"/>
      <point x="223" y="523" type="line" smooth="yes"/>
      <point x="223" y="548"/>
      <point x="233" y="560"/>
      <point x="260" y="560" type="curve" smooth="yes"/>
      <point x="286" y="560" type="line"/>
      <point x="286" y="647" type="line"/>
      <point x="27" y="647" type="line"/>
      <point x="27" y="560" type="line"/>
      <point x="53" y="560" type="line" smooth="yes"/>
      <point x="81" y="560"/>
      <point x="92" y="548"/>
      <point x="92" y="523" type="curve" smooth="yes"/>
      <point x="92" y="126" type="line" smooth="yes"/>
      <point x="92" y="99"/>
      <point x="81" y="87"/>
      <point x="53" y="87" type="curve" smooth="yes"/>
      <point x="27" y="87" type="line"/>
      <point x="27" y="0" type="line"/>
    </contour>
  </outline>
</glyph>
<glyph name="J" format="1">
  <advance width="503"/>
  <unicode hex="004A"/>
  <note>
	J
  </note>
  <outline>
    <contour>
      <point x="340" y="-15"/>
      <point x="411" y="60"/>
      <point x="411" y="184" type="curve" smooth="yes"/>
      <point x="411" y="523" type="line" smooth="yes"/>
      <point x="411" y="548"/>
      <point x="423" y="560"/>
      <point x="449" y="560" type="curve" smooth="yes"/>
      <point x="476" y="560" type="line"/>
      <point x="476" y="647" type="line"/>
      <point x="214" y="647" type="line"/>
      <point x="214" y="560" type="line"/>
      <point x="241" y="560" type="line" smooth="yes"/>
      <point x="268" y="560"/>
      <point x="279" y="548"/>
      <point x="279" y="523" type="curve" smooth="yes"/>
      <point x="279" y="164" type="line" smooth="yes"/>
      <point x="279" y="102"/>
      <point x="254" y="74"/>
      <point x="195" y="74" type="curve" smooth="yes"/>
      <point x="160" y="74"/>
      <point x="134" y="83"/>
      <point x="115" y="103" type="curve"/>
      <point x="115" y="153" type="line"/>
      <point x="-3" y="153" type="line"/>
      <point x="-3" y="65" type="line"/>
      <point x="41" y="14"/>
      <point x="112" y="-15"/>
      <point x="203" y="-15" type="curve" smooth="yes"/>
    </contour>
  </outline>
</glyph>
<glyph name="K" format="1">
  <advance width="655"/>
  <unicode hex="004B"/>
  <note>
	K
  </note>
  <outline>
    <contour>
      <point x="275" y="0" type="line"/>
      <point x="275" y="87" type="line"/>
      <point x="257" y="87" type="line" smooth="yes"/>
      <point x="231" y="87"/>
      <point x="224" y="102"/>
      <point x="224" y="124" type="curve" smooth="yes"/>
      <point x="224" y="210" type="line"/>
      <point x="300" y="291" type="line"/>
      <point x="433" y="87" type="line"/>
      <point x="378" y="87" type="line"/>
      <point x="378" y="0" type="line"/>
      <point x="628" y="0" type="line"/>
      <point x="628" y="87" type="line"/>
      <point x="596" y="87" type="line" smooth="yes"/>
      <point x="572" y="87"/>
      <point x="557" y="95"/>
      <point x="545" y="114" type="curve" smooth="yes"/>
      <point x="377" y="370" type="line"/>
      <point x="530" y="533" type="line" smooth="yes"/>
      <point x="545" y="549"/>
      <point x="555" y="560"/>
      <point x="583" y="560" type="curve" smooth="yes"/>
      <point x="619" y="560" type="line"/>
      <point x="619" y="647" type="line"/>
      <point x="382" y="647" type="line"/>
      <point x="382" y="560" type="line"/>
      <point x="428" y="560" type="line"/>
      <point x="224" y="341" type="line"/>
      <point x="224" y="523" type="line" smooth="yes"/>
      <point x="224" y="546"/>
      <point x="233" y="559"/>
      <point x="257" y="559" type="curve" smooth="yes"/>
      <point x="275" y="559" type="line"/>
      <point x="275" y="647" type="line"/>
      <point x="27" y="647" type="line"/>
      <point x="27" y="560" type="line"/>
      <point x="53" y="560" type="line" smooth="yes"/>
      <point x="81" y="560"/>
      <point x="91" y="548"/>
      <point x="91" y="523" type="curve" smooth="yes"/>
      <point x="91" y="124" type="line" smooth="yes"/>
      <point x="91" y="100"/>
      <point x="81" y="87"/>
      <point x="53" y="87" type="curve" smooth="yes"/>
      <point x="27" y="87" type="line"/>
      <point x="27" y="0" type="line"/>
    </contour>
  </outline>
</glyph>
<glyph name="P" format="1">
  <advance width="626"/>
  <unicode hex="0050"/>
  <note>
	P
  </note>
  <outline>
    <contour>
      <point x="287" y="0" type="line"/>
      <point x="287" y="87" type="line"/>
      <point x="259" y="87" type="line" smooth="yes"/>
      <point x="230" y="87"/>
      <point x="220" y="101"/>
      <point x="220" y="124" type="curve" smooth="yes"/>
      <point x="220" y="234" type="line"/>
      <point x="374" y="234" type="line" smooth="yes"/>
      <point x="512" y="234"/>
      <point x="599" y="312"/>
      <point x="599" y="444" type="curve" smooth="yes"/>
      <point x="599" y="578"/>
      <point x="512" y="647"/>
      <point x="375" y="647" type="curve" smooth="yes"/>
      <point x="27" y="647" type="line"/>
      <point x="27" y="560" type="line"/>
      <point x="52" y="560" type="line" smooth="yes"/>
      <point x="81" y="560"/>
      <point x="92" y="547"/>
      <point x="92" y="523" type="curve" smooth="yes"/>
      <point x="92" y="124" type="line" smooth="yes"/>
      <point x="92" y="101"/>
      <point x="81" y="87"/>
      <point x="52" y="87" type="curve" smooth="yes"/>
      <point x="27" y="87" type="line"/>
      <point x="27" y="0" type="line"/>
    </contour>
    <contour>
      <point x="220" y="560" type="line"/>
      <point x="357" y="560" type="line" smooth="yes"/>
      <point x="434" y="560"/>
      <point x="470" y="531"/>
      <point x="470" y="444" type="curve" smooth="yes"/>
      <point x="470" y="361"/>
      <point x="433" y="321"/>
      <point x="357" y="321" type="curve" smooth="yes"/>
      <point x="220" y="321" type="line"/>
    </contour>
  </outline>
</glyph>
<glyph name="Q" format="1">
  <advance width="663"/>
  <unicode hex="0051"/>
  <note>
	Q
  </note>
  <outline>
    <contour>
      <point x="528" y="-145"/>
      <point x="583" y="-118"/>
      <point x="614" y="-76" type="curve"/>
      <point x="614" y="-15" type="line"/>
      <point x="512" y="-15" type="line"/>
      <point x="512" y="-42" type="line"/>
      <point x="500" y="-51"/>
      <point x="480" y="-59"/>
      <point x="456" y="-59" type="curve" smooth="yes"/>
      <point x="425" y="-59"/>
      <point x="390" y="-53"/>
      <point x="382" y="-13" type="curve"/>
      <point x="553" y="5"/>
      <point x="636" y="125"/>
      <point x="636" y="321" type="curve" smooth="yes"/>
      <point x="636" y="533"/>
      <point x="545" y="662"/>
      <point x="332" y="662" type="curve" smooth="yes"/>
      <point x="117" y="662"/>
      <point x="27" y="533"/>
      <point x="27" y="321" type="curve" smooth="yes"/>
      <point x="27" y="126"/>
      <point x="109" y="5"/>
      <point x="281" y="-13" type="curve"/>
      <point x="295" y="-86"/>
      <point x="346" y="-145"/>
      <point x="454" y="-145" type="curve" smooth="yes"/>
    </contour>
    <contour>
      <point x="212" y="74"/>
      <point x="157" y="152"/>
      <point x="157" y="321" type="curve" smooth="yes"/>
      <point x="157" y="494"/>
      <point x="211" y="573"/>
      <point x="332" y="573" type="curve" smooth="yes"/>
      <point x="451" y="573"/>
      <point x="506" y="494"/>
      <point x="506" y="321" type="curve" smooth="yes"/>
      <point x="506" y="152"/>
      <point x="451" y="74"/>
      <point x="332" y="74" type="curve" smooth="yes"/>
    </contour>
  </outline>
</glyph>
<glyph name="R" format="1">
  <advance width="629"/>
  <unicode hex="0052"/>
  <note>
	R
  </note>
  <outline>
    <contour>
      <point x="277" y="0" type="line"/>
      <point x="277" y="87" type="line"/>
      <point x="253" y="87" type="line" smooth="yes"/>
      <point x="227" y="87"/>
      <point x="220" y="98"/>
      <point x="220" y="121" type="curve" smooth="yes"/>
      <point x="220" y="246" type="line"/>
      <point x="324" y="246" type="line"/>
      <point x="408" y="87" type="line"/>
      <point x="368" y="87" type="line"/>
      <point x="368" y="0" type="line"/>
      <point x="602" y="0" type="line"/>
      <point x="602" y="87" type="line"/>
      <point x="578" y="87" type="line" smooth="yes"/>
      <point x="550" y="87"/>
      <point x="534" y="95"/>
      <point x="521" y="118" type="curve" smooth="yes"/>
      <point x="443" y="261" type="line"/>
      <point x="537" y="287"/>
      <point x="588" y="355"/>
      <point x="588" y="450" type="curve" smooth="yes"/>
      <point x="588" y="580"/>
      <point x="503" y="647"/>
      <point x="365" y="647" type="curve" smooth="yes"/>
      <point x="27" y="647" type="line"/>
      <point x="27" y="560" type="line"/>
      <point x="52" y="560" type="line" smooth="yes"/>
      <point x="81" y="560"/>
      <point x="92" y="547"/>
      <point x="92" y="523" type="curve" smooth="yes"/>
      <point x="92" y="124" type="line" smooth="yes"/>
      <point x="92" y="101"/>
      <point x="81" y="87"/>
      <point x="52" y="87" type="curve" smooth="yes"/>
      <point x="27" y="87" type="line"/>
      <point x="27" y="0" type="line"/>
    </contour>
    <contour>
      <point x="220" y="560" type="line"/>
      <point x="345" y="560" type="line" smooth="yes"/>
      <point x="425" y="560"/>
      <point x="459" y="529"/>
      <point x="459" y="450" type="curve" smooth="yes"/>
      <point x="459" y="375"/>
      <point x="424" y="333"/>
      <point x="345" y="333" type="curve" smooth="yes"/>
      <point x="220" y="333" type="line"/>
    </contour>
  </outline>
</glyph>
<glyph name="V" format="1">
  <advance width="709"/>
  <unicode hex="0056"/>
  <note>
	V
  </note>
  <outline>
    <contour>
      <point x="419" y="0" type="line"/>
      <point x="598" y="517" type="line" smooth="yes"/>
      <point x="611" y="553"/>
      <point x="625" y="560"/>
      <point x="665" y="560" type="curve" smooth="yes"/>
      <point x="682" y="560" type="line"/>
      <point x="682" y="647" type="line"/>
      <point x="501" y="647" type="line"/>
      <point x="355" y="171" type="line"/>
      <point x="206" y="647" type="line"/>
      <point x="27" y="647" type="line"/>
      <point x="27" y="560" type="line"/>
      <point x="44" y="560" type="line" smooth="yes"/>
      <point x="83" y="560"/>
      <point x="98" y="552"/>
      <point x="110" y="517" type="curve" smooth="yes"/>
      <point x="292" y="0" type="line"/>
    </contour>
  </outline>
</glyph>
<glyph name="X" format="1">
  <advance width="681"/>
  <unicode hex="0058"/>
  <note>
	X
  </note>
  <outline>
    <contour>
      <point x="279" y="0" type="line"/>
      <point x="279" y="87" type="line"/>
      <point x="239" y="87" type="line"/>
      <point x="340" y="246" type="line"/>
      <point x="442" y="87" type="line"/>
      <point x="401" y="87" type="line"/>
      <point x="401" y="0" type="line"/>
      <point x="654" y="0" type="line"/>
      <point x="654" y="87" type="line"/>
      <point x="624" y="87" type="line" smooth="yes"/>
      <point x="587" y="87"/>
      <point x="568" y="96"/>
      <point x="549" y="125" type="curve" smooth="yes"/>
      <point x="409" y="324" type="line"/>
      <point x="547" y="523" type="line" smooth="yes"/>
      <point x="567" y="552"/>
      <point x="585" y="560"/>
      <point x="622" y="560" type="curve" smooth="yes"/>
      <point x="645" y="560" type="line"/>
      <point x="645" y="647" type="line"/>
      <point x="399" y="647" type="line"/>
      <point x="399" y="560" type="line"/>
      <point x="440" y="560" type="line"/>
      <point x="340" y="402" type="line"/>
      <point x="241" y="560" type="line"/>
      <point x="281" y="560" type="line"/>
      <point x="281" y="647" type="line"/>
      <point x="35" y="647" type="line"/>
      <point x="35" y="560" type="line"/>
      <point x="58" y="560" type="line" smooth="yes"/>
      <point x="96" y="560"/>
      <point x="114" y="552"/>
      <point x="134" y="523" type="curve" smooth="yes"/>
      <point x="271" y="324" type="line"/>
      <point x="132" y="125" type="line" smooth="yes"/>
      <point x="112" y="96"/>
      <point x="94" y="87"/>
      <point x="56" y="87" type="curve" smooth="yes"/>
      <point x="27" y="87" type="line"/>
      <point x="27" y="0" type="line"/>
    </contour>
  </outline>
</glyph>
<glyph name="Y" format="1">
  <advance width="669"/>
  <unicode hex="0059"/>
  <note>
	Y
  </note>
  <outline>
    <contour>
      <point x="465" y="0" type="line"/>
      <point x="465" y="87" type="line"/>
      <point x="440" y="87" type="line" smooth="yes"/>
      <point x="411" y="87"/>
      <point x="400" y="100"/>
      <point x="400" y="124" type="curve" smooth="yes"/>
      <point x="400" y="239" type="line"/>
      <point x="553" y="519" type="line" smooth="yes"/>
      <point x="570" y="551"/>
      <point x="584" y="560"/>
      <point x="619" y="560" type="curve" smooth="yes"/>
      <point x="642" y="560" type="line"/>
      <point x="642" y="647" type="line"/>
      <point x="400" y="647" type="line"/>
      <point x="400" y="560" type="line"/>
      <point x="414" y="560" type="line" smooth="yes"/>
      <point x="436" y="560"/>
      <point x="434" y="548"/>
      <point x="423" y="525" type="curve" smooth="yes"/>
      <point x="335" y="346" type="line"/>
      <point x="246" y="525" type="line" smooth="yes"/>
      <point x="234" y="548"/>
      <point x="233" y="560"/>
      <point x="255" y="560" type="curve" smooth="yes"/>
      <point x="269" y="560" type="line"/>
      <point x="269" y="647" type="line"/>
      <point x="27" y="647" type="line"/>
      <point x="27" y="560" type="line"/>
      <point x="50" y="560" type="line" smooth="yes"/>
      <point x="85" y="560"/>
      <point x="99" y="551"/>
      <point x="116" y="519" type="curve" smooth="yes"/>
      <point x="268" y="239" type="line"/>
      <point x="268" y="125" type="line" smooth="yes"/>
      <point x="268" y="100"/>
      <point x="258" y="87"/>
      <point x="229" y="87" type="curve" smooth="yes"/>
      <point x="204" y="87" type="line"/>
      <point x="204" y="0" type="line"/>
    </contour>
  </outline>
</glyph>
<glyph name="bracketleft" format="1">
  <advance width="309"/>
  <unicode hex="005B"/>
  <note>
	bracketleft
  </note>
  <outline>
    <contour>
      <point x="272" y="-83" type="line"/>
      <point x="272" y="4" type="line"/>
      <point x="179" y="4" type="line"/>
      <point x="179" y="663" type="line"/>
      <point x="272" y="663" type="line"/>
      <point x="272" y="750" type="line"/>
      <point x="47" y="750" type="line"/>
      <point x="47" y="-83" type="line"/>
    </contour>
  </outline>
</glyph>
<glyph name="backslash" format="1">
  <advance width="456"/>
  <unicode hex="005C"/>
  <note>
	backslash
  </note>
  <outline>
    <contour>
      <point x="419" y="0" type="line"/>
      <point x="170" y="676" type="line"/>
      <point x="37" y="676" type="line"/>
      <point x="287" y="0" type="line"/>
    </contour>
  </outline>
</glyph>
<glyph name="bracketright" format="1">
  <advance width="309"/>
  <unicode hex="005D"/>
  <note>
	bracketright
  </note>
  <outline>
    <contour>
      <point x="262" y="-83" type="line"/>
      <point x="262" y="750" type="line"/>
      <point x="37" y="750" type="line"/>
      <point x="37" y="663" type="line"/>
      <point x="130" y="663" type="line"/>
      <point x="130" y="4" type="line"/>
      <point x="37" y="4" type="line"/>
      <point x="37" y="-83" type="line"/>
    </contour>
  </outline>
</glyph>
<glyph name="asciicircum" format="1">
  <advance width="611"/>
  <unicode hex="005E"/>
  <note>
	asciicircum
  </note>
  <outline>
    <contour>
      <point x="173" y="361" type="line"/>
      <point x="306" y="595" type="line"/>
      <point x="438" y="361" type="line"/>
      <point x="574" y="361" type="line"/>
      <point x="359" y="719" type="line"/>
      <point x="252" y="719" type="line"/>
      <point x="37" y="361" type="line"/>
    </contour>
  </outline>
</glyph>
<glyph name="underscore" format="1">
  <advance width="475"/>
  <unicode hex="005F"/>
  <note>
	underscore
  </note>
  <outline>
    <contour>
      <point x="438" y="-99" type="line"/>
      <point x="438" y="-10" type="line"/>
      <point x="37" y="-10" type="line"/>
      <point x="37" y="-99" type="line"/>
    </contour>
  </outline>
</glyph>
<glyph name="grave" format="1">
  <advance width="308"/>
  <unicode hex="0060"/>
  <note>
	grave
  </note>
  <outline>
    <contour>
      <point x="271" y="516" type="line"/>
      <point x="185" y="709" type="line"/>
      <point x="37" y="709" type="line"/>
      <point x="159" y="516" type="line"/>
    </contour>
  </outline>
</glyph>
<glyph name="b" format="1">
  <advance width="599"/>
  <unicode hex="0062"/>
  <note>
	b
  </note>
  <outline>
    <contour>
      <point x="483" y="-15"/>
      <point x="572" y="76"/>
      <point x="572" y="238" type="curve" smooth="yes"/>
      <point x="572" y="404"/>
      <point x="501" y="495"/>
      <point x="363" y="495" type="curve" smooth="yes"/>
      <point x="295" y="495"/>
      <point x="243" y="477"/>
      <point x="200" y="431" type="curve"/>
      <point x="200" y="662" type="line"/>
      <point x="17" y="662" type="line"/>
      <point x="17" y="574" type="line"/>
      <point x="35" y="574" type="line" smooth="yes"/>
      <point x="66" y="574"/>
      <point x="72" y="559"/>
      <point x="72" y="532" type="curve" smooth="yes"/>
      <point x="72" y="0" type="line"/>
      <point x="172" y="0" type="line"/>
      <point x="180" y="74" type="line"/>
      <point x="219" y="12"/>
      <point x="273" y="-15"/>
      <point x="352" y="-15" type="curve" smooth="yes"/>
    </contour>
    <contour>
      <point x="255" y="63"/>
      <point x="206" y="131"/>
      <point x="206" y="211" type="curve" smooth="yes"/>
      <point x="206" y="267" type="line" smooth="yes"/>
      <point x="206" y="358"/>
      <point x="255" y="410"/>
      <point x="324" y="410" type="curve" smooth="yes"/>
      <point x="411" y="410"/>
      <point x="443" y="358"/>
      <point x="443" y="239" type="curve" smooth="yes"/>
      <point x="443" y="120"/>
      <point x="409" y="63"/>
      <point x="328" y="63" type="curve" smooth="yes"/>
    </contour>
  </outline>
</glyph>
<glyph name="f" format="1">
  <advance width="428"/>
  <unicode hex="0066"/>
  <note>
	f
  </note>
  <outline>
    <contour>
      <point x="287" y="0" type="line"/>
      <point x="287" y="87" type="line"/>
      <point x="261" y="87" type="line" smooth="yes"/>
      <point x="234" y="87"/>
      <point x="224" y="99"/>
      <point x="224" y="124" type="curve" smooth="yes"/>
      <point x="224" y="393" type="line"/>
      <point x="361" y="393" type="line"/>
      <point x="361" y="480" type="line"/>
      <point x="224" y="480" type="line"/>
      <point x="224" y="520" type="line" smooth="yes"/>
      <point x="224" y="574"/>
      <point x="251" y="600"/>
      <point x="294" y="600" type="curve" smooth="yes"/>
      <point x="319" y="600"/>
      <point x="334" y="594"/>
      <point x="346" y="584" type="curve"/>
      <point x="346" y="544" type="line"/>
      <point x="459" y="544" type="line"/>
      <point x="459" y="630" type="line"/>
      <point x="418" y="664"/>
      <point x="362" y="685"/>
      <point x="284" y="685" type="curve" smooth="yes"/>
      <point x="157" y="685"/>
      <point x="93" y="619"/>
      <point x="93" y="512" type="curve" smooth="yes"/>
      <point x="93" y="480" type="line"/>
      <point x="17" y="480" type="line"/>
      <point x="17" y="393" type="line"/>
      <point x="93" y="393" type="line"/>
      <point x="93" y="126" type="line" smooth="yes"/>
      <point x="93" y="99"/>
      <point x="82" y="87"/>
      <point x="54" y="87" type="curve" smooth="yes"/>
      <point x="28" y="87" type="line"/>
      <point x="28" y="0" type="line"/>
    </contour>
  </outline>
</glyph>
<glyph name="k" format="1">
  <advance width="589"/>
  <unicode hex="006B"/>
  <note>
	k
  </note>
  <outline>
    <contour>
      <point x="286" y="0" type="line"/>
      <point x="286" y="87" type="line"/>
      <point x="260" y="87" type="line" smooth="yes"/>
      <point x="233" y="87"/>
      <point x="223" y="99"/>
      <point x="223" y="124" type="curve" smooth="yes"/>
      <point x="223" y="179" type="line"/>
      <point x="286" y="234" type="line"/>
      <point x="423" y="0" type="line"/>
      <point x="572" y="0" type="line"/>
      <point x="572" y="87" type="line"/>
      <point x="530" y="87" type="line" smooth="yes"/>
      <point x="505" y="87"/>
      <point x="498" y="91"/>
      <point x="486" y="111" type="curve" smooth="yes"/>
      <point x="374" y="303" type="line"/>
      <point x="457" y="376" type="line" smooth="yes"/>
      <point x="471" y="388"/>
      <point x="478" y="393"/>
      <point x="501" y="393" type="curve" smooth="yes"/>
      <point x="551" y="393" type="line"/>
      <point x="551" y="480" type="line"/>
      <point x="302" y="480" type="line"/>
      <point x="302" y="393" type="line"/>
      <point x="343" y="393" type="line"/>
      <point x="223" y="288" type="line"/>
      <point x="223" y="662" type="line"/>
      <point x="27" y="662" type="line"/>
      <point x="27" y="575" type="line"/>
      <point x="55" y="575" type="line" smooth="yes"/>
      <point x="86" y="575"/>
      <point x="92" y="560"/>
      <point x="92" y="533" type="curve" smooth="yes"/>
      <point x="92" y="126" type="line" smooth="yes"/>
      <point x="92" y="99"/>
      <point x="81" y="87"/>
      <point x="53" y="87" type="curve" smooth="yes"/>
      <point x="27" y="87" type="line"/>
      <point x="27" y="0" type="line"/>
    </contour>
  </outline>
</glyph>
<glyph name="p" format="1">
  <advance width="613"/>
  <unicode hex="0070"/>
  <note>
	p
  </note>
  <outline>
    <contour>
      <point x="276" y="-208" type="line"/>
      <point x="276" y="-121" type="line"/>
      <point x="250" y="-121" type="line" smooth="yes"/>
      <point x="223" y="-121"/>
      <point x="213" y="-109"/>
      <point x="213" y="-84" type="curve" smooth="yes"/>
      <point x="213" y="46" type="line"/>
      <point x="256" y="2"/>
      <point x="300" y="-15"/>
      <point x="369" y="-15" type="curve" smooth="yes"/>
      <point x="508" y="-15"/>
      <point x="586" y="79"/>
      <point x="586" y="244" type="curve" smooth="yes"/>
      <point x="586" y="410"/>
      <point x="500" y="495"/>
      <point x="367" y="495" type="curve" smooth="yes"/>
      <point x="290" y="495"/>
      <point x="233" y="465"/>
      <point x="194" y="410" type="curve"/>
      <point x="184" y="480" type="line"/>
      <point x="27" y="480" type="line"/>
      <point x="27" y="393" type="line"/>
      <point x="44" y="393" type="line" smooth="yes"/>
      <point x="71" y="393"/>
      <point x="82" y="380"/>
      <point x="82" y="354" type="curve" smooth="yes"/>
      <point x="82" y="-82" type="line" smooth="yes"/>
      <point x="82" y="-109"/>
      <point x="71" y="-121"/>
      <point x="43" y="-121" type="curve" smooth="yes"/>
      <point x="17" y="-121" type="line"/>
      <point x="17" y="-208" type="line"/>
    </contour>
    <contour>
      <point x="267" y="67"/>
      <point x="213" y="121"/>
      <point x="213" y="211" type="curve" smooth="yes"/>
      <point x="213" y="267" type="line" smooth="yes"/>
      <point x="213" y="350"/>
      <point x="264" y="416"/>
      <point x="339" y="416" type="curve" smooth="yes"/>
      <point x="424" y="416"/>
      <point x="456" y="360"/>
      <point x="456" y="244" type="curve" smooth="yes"/>
      <point x="456" y="125"/>
      <point x="422" y="67"/>
      <point x="336" y="67" type="curve" smooth="yes"/>
    </contour>
  </outline>
</glyph>
<glyph name="q" format="1">
  <advance width="613"/>
  <unicode hex="0071"/>
  <note>
	q
  </note>
  <outline>
    <contour>
      <point x="596" y="-208" type="line"/>
      <point x="596" y="-121" type="line"/>
      <point x="570" y="-121" type="line" smooth="yes"/>
      <point x="542" y="-121"/>
      <point x="531" y="-109"/>
      <point x="531" y="-82" type="curve" smooth="yes"/>
      <point x="531" y="354" type="line" smooth="yes"/>
      <point x="531" y="380"/>
      <point x="542" y="393"/>
      <point x="569" y="393" type="curve" smooth="yes"/>
      <point x="586" y="393" type="line"/>
      <point x="586" y="480" type="line"/>
      <point x="429" y="480" type="line"/>
      <point x="419" y="410" type="line"/>
      <point x="380" y="465"/>
      <point x="323" y="495"/>
      <point x="246" y="495" type="curve" smooth="yes"/>
      <point x="113" y="495"/>
      <point x="27" y="410"/>
      <point x="27" y="244" type="curve" smooth="yes"/>
      <point x="27" y="79"/>
      <point x="105" y="-15"/>
      <point x="244" y="-15" type="curve" smooth="yes"/>
      <point x="313" y="-15"/>
      <point x="357" y="2"/>
      <point x="400" y="46" type="curve"/>
      <point x="400" y="-208" type="line"/>
    </contour>
    <contour>
      <point x="191" y="67"/>
      <point x="157" y="125"/>
      <point x="157" y="244" type="curve" smooth="yes"/>
      <point x="157" y="360"/>
      <point x="189" y="416"/>
      <point x="274" y="416" type="curve" smooth="yes"/>
      <point x="349" y="416"/>
      <point x="400" y="350"/>
      <point x="400" y="267" type="curve" smooth="yes"/>
      <point x="400" y="211" type="line" smooth="yes"/>
      <point x="400" y="121"/>
      <point x="346" y="67"/>
      <point x="277" y="67" type="curve" smooth="yes"/>
    </contour>
  </outline>
</glyph>
<glyph name="v" format="1">
  <advance width="570"/>
  <unicode hex="0076"/>
  <note>
	v
  </note>
  <outline>
    <contour>
      <point x="349" y="0" type="line"/>
      <point x="480" y="363" type="line" smooth="yes"/>
      <point x="489" y="386"/>
      <point x="498" y="393"/>
      <point x="534" y="393" type="curve" smooth="yes"/>
      <point x="553" y="393" type="line"/>
      <point x="553" y="480" type="line"/>
      <point x="394" y="480" type="line"/>
      <point x="285" y="136" type="line"/>
      <point x="176" y="480" type="line"/>
      <point x="17" y="480" type="line"/>
      <point x="17" y="393" type="line"/>
      <point x="35" y="393" type="line" smooth="yes"/>
      <point x="72" y="393"/>
      <point x="81" y="386"/>
      <point x="89" y="363" type="curve" smooth="yes"/>
      <point x="221" y="0" type="line"/>
    </contour>
  </outline>
</glyph>
<glyph name="w" format="1">
  <advance width="763"/>
  <unicode hex="0077"/>
  <note>
	w
  </note>
  <outline>
    <contour>
      <point x="295" y="0" type="line"/>
      <point x="382" y="274" type="line"/>
      <point x="467" y="0" type="line"/>
      <point x="588" y="0" type="line"/>
      <point x="676" y="362" type="line" smooth="yes"/>
      <point x="682" y="386"/>
      <point x="695" y="393"/>
      <point x="722" y="393" type="curve" smooth="yes"/>
      <point x="746" y="393" type="line"/>
      <point x="746" y="480" type="line"/>
      <point x="589" y="480" type="line"/>
      <point x="513" y="159" type="line"/>
      <point x="427" y="437" type="line"/>
      <point x="335" y="437" type="line"/>
      <point x="249" y="159" type="line"/>
      <point x="175" y="480" type="line"/>
      <point x="17" y="480" type="line"/>
      <point x="17" y="393" type="line"/>
      <point x="41" y="393" type="line" smooth="yes"/>
      <point x="68" y="393"/>
      <point x="81" y="386"/>
      <point x="87" y="362" type="curve" smooth="yes"/>
      <point x="175" y="0" type="line"/>
    </contour>
  </outline>
</glyph>
<glyph name="x" format="1">
  <advance width="552"/>
  <unicode hex="0078"/>
  <note>
	x
  </note>
  <outline>
    <contour>
      <point x="236" y="0" type="line"/>
      <point x="236" y="87" type="line"/>
      <point x="211" y="87" type="line"/>
      <point x="276" y="175" type="line"/>
      <point x="341" y="87" type="line"/>
      <point x="316" y="87" type="line"/>
      <point x="316" y="0" type="line"/>
      <point x="535" y="0" type="line"/>
      <point x="535" y="87" type="line"/>
      <point x="504" y="87" type="line" smooth="yes"/>
      <point x="472" y="87"/>
      <point x="459" y="95"/>
      <point x="442" y="117" type="curve" smooth="yes"/>
      <point x="346" y="241" type="line"/>
      <point x="442" y="363" type="line" smooth="yes"/>
      <point x="459" y="385"/>
      <point x="472" y="393"/>
      <point x="504" y="393" type="curve" smooth="yes"/>
      <point x="535" y="393" type="line"/>
      <point x="535" y="480" type="line"/>
      <point x="316" y="480" type="line"/>
      <point x="316" y="393" type="line"/>
      <point x="341" y="393" type="line"/>
      <point x="276" y="306" type="line"/>
      <point x="211" y="393" type="line"/>
      <point x="236" y="393" type="line"/>
      <point x="236" y="480" type="line"/>
      <point x="17" y="480" type="line"/>
      <point x="17" y="393" type="line"/>
      <point x="48" y="393" type="line" smooth="yes"/>
      <point x="80" y="393"/>
      <point x="93" y="385"/>
      <point x="110" y="363" type="curve" smooth="yes"/>
      <point x="205" y="241" type="line"/>
      <point x="110" y="117" type="line" smooth="yes"/>
      <point x="93" y="95"/>
      <point x="80" y="87"/>
      <point x="48" y="87" type="curve" smooth="yes"/>
      <point x="17" y="87" type="line"/>
      <point x="17" y="0" type="line"/>
    </contour>
  </outline>
</glyph>
<glyph name="braceleft" format="1">
  <advance width="344"/>
  <unicode hex="007B"/>
  <note>
	braceleft
  </note>
  <outline>
    <contour>
      <point x="307" y="-83" type="line"/>
      <point x="307" y="4" type="line"/>
      <point x="286" y="4" type="line" smooth="yes"/>
      <point x="241" y="4"/>
      <point x="222" y="26"/>
      <point x="222" y="71" type="curve" smooth="yes"/>
      <point x="222" y="236" type="line" smooth="yes"/>
      <point x="222" y="276"/>
      <point x="199" y="313"/>
      <point x="162" y="334" type="curve"/>
      <point x="199" y="356"/>
      <point x="222" y="394"/>
      <point x="222" y="434" type="curve" smooth="yes"/>
      <point x="222" y="596" type="line" smooth="yes"/>
      <point x="222" y="641"/>
      <point x="242" y="663"/>
      <point x="286" y="663" type="curve" smooth="yes"/>
      <point x="307" y="663" type="line"/>
      <point x="307" y="750" type="line"/>
      <point x="253" y="750" type="line" smooth="yes"/>
      <point x="130" y="750"/>
      <point x="90" y="688"/>
      <point x="90" y="577" type="curve" smooth="yes"/>
      <point x="90" y="444" type="line" smooth="yes"/>
      <point x="90" y="393"/>
      <point x="62" y="380"/>
      <point x="17" y="380" type="curve"/>
      <point x="17" y="291" type="line"/>
      <point x="61" y="291"/>
      <point x="90" y="277"/>
      <point x="90" y="226" type="curve" smooth="yes"/>
      <point x="90" y="91" type="line" smooth="yes"/>
      <point x="90" y="-20"/>
      <point x="130" y="-83"/>
      <point x="253" y="-83" type="curve" smooth="yes"/>
    </contour>
  </outline>
</glyph>
<glyph name="bar" format="1">
  <advance width="206"/>
  <unicode hex="007C"/>
  <note>
	bar
  </note>
  <outline>
    <contour>
      <point x="169" y="-120" type="line"/>
      <point x="169" y="767" type="line"/>
      <point x="37" y="767" type="line"/>
      <point x="37" y="-120" type="line"/>
    </contour>
  </outline>
</glyph>
<glyph name="braceright" format="1">
  <advance width="344"/>
  <unicode hex="007D"/>
  <note>
	braceright
  </note>
  <outline>
    <contour>
      <point x="91" y="-83" type="line" smooth="yes"/>
      <point x="214" y="-83"/>
      <point x="254" y="-20"/>
      <point x="254" y="91" type="curve" smooth="yes"/>
      <point x="254" y="226" type="line" smooth="yes"/>
      <point x="254" y="277"/>
      <point x="283" y="291"/>
      <point x="327" y="291" type="curve"/>
      <point x="327" y="380" type="line"/>
      <point x="282" y="380"/>
      <point x="254" y="393"/>
      <point x="254" y="444" type="curve" smooth="yes"/>
      <point x="254" y="577" type="line" smooth="yes"/>
      <point x="254" y="688"/>
      <point x="214" y="750"/>
      <point x="91" y="750" type="curve" smooth="yes"/>
      <point x="37" y="750" type="line"/>
      <point x="37" y="663" type="line"/>
      <point x="58" y="663" type="line" smooth="yes"/>
      <point x="102" y="663"/>
      <point x="122" y="641"/>
      <point x="122" y="596" type="curve" smooth="yes"/>
      <point x="122" y="434" type="line" smooth="yes"/>
      <point x="122" y="394"/>
      <point x="145" y="356"/>
      <point x="182" y="334" type="curve"/>
      <point x="145" y="313"/>
      <point x="122" y="276"/>
      <point x="122" y="236" type="curve" smooth="yes"/>
      <point x="122" y="71" type="line" smooth="yes"/>
      <point x="122" y="26"/>
      <point x="103" y="4"/>
      <point x="58" y="4" type="curve" smooth="yes"/>
      <point x="37" y="4" type="line"/>
      <point x="37" y="-83" type="line"/>
    </contour>
  </outline>
</glyph>
<glyph name="asciitilde" format="1">
  <advance width="560"/>
  <unicode hex="007E"/>
  <note>
	asciitilde
  </note>
  <outline>
    <contour>
      <point x="140" y="230" type="line"/>
      <point x="140" y="267"/>
      <point x="154" y="289"/>
      <point x="196" y="289" type="curve" smooth="yes"/>
      <point x="256" y="289"/>
      <point x="297" y="230"/>
      <point x="391" y="230" type="curve" smooth="yes"/>
      <point x="483" y="230"/>
      <point x="523" y="285"/>
      <point x="523" y="391" type="curve"/>
      <point x="421" y="391" type="line"/>
      <point x="421" y="354"/>
      <point x="408" y="332"/>
      <point x="366" y="332" type="curve" smooth="yes"/>
      <point x="297" y="332"/>
      <point x="260" y="391"/>
      <point x="172" y="391" type="curve" smooth="yes"/>
      <point x="80" y="391"/>
      <point x="37" y="334"/>
      <point x="37" y="230" type="curve"/>
    </contour>
  </outline>
</glyph>
<glyph name="exclamdown" format="1">
  <advance width="218"/>
  <unicode hex="00A1"/>
  <note>
	exclamdown
  </note>
  <outline>
    <contour>
      <point x="180" y="-152" type="line"/>
      <point x="173" y="299" type="line"/>
      <point x="46" y="299" type="line"/>
      <point x="39" y="-152" type="line"/>
    </contour>
    <contour>
      <point x="181" y="390" type="line"/>
      <point x="181" y="495" type="line"/>
      <point x="37" y="495" type="line"/>
      <point x="37" y="390" type="line"/>
    </contour>
  </outline>
</glyph>
<glyph name="cent" format="1">
  <advance width="521"/>
  <unicode hex="00A2"/>
  <note>
	cent
  </note>
  <outline>
    <contour>
      <point x="342" y="-90" type="line"/>
      <point x="342" y="-13" type="line"/>
      <point x="403" y="-8"/>
      <point x="445" y="9"/>
      <point x="493" y="42" type="curve"/>
      <point x="449" y="114" type="line"/>
      <point x="412" y="89"/>
      <point x="371" y="79"/>
      <point x="314" y="79" type="curve" smooth="yes"/>
      <point x="224" y="79"/>
      <point x="158" y="123"/>
      <point x="158" y="235" type="curve" smooth="yes"/>
      <point x="158" y="354"/>
      <point x="218" y="402"/>
      <point x="291" y="402" type="curve" smooth="yes"/>
      <point x="331" y="402"/>
      <point x="356" y="396"/>
      <point x="381" y="382" type="curve"/>
      <point x="381" y="327" type="line"/>
      <point x="494" y="327" type="line"/>
      <point x="494" y="432" type="line"/>
      <point x="450" y="465"/>
      <point x="405" y="485"/>
      <point x="342" y="491" type="curve"/>
      <point x="342" y="570" type="line"/>
      <point x="222" y="570" type="line"/>
      <point x="222" y="488" type="line"/>
      <point x="102" y="467"/>
      <point x="27" y="381"/>
      <point x="27" y="235" type="curve" smooth="yes"/>
      <point x="27" y="97"/>
      <point x="109" y="14"/>
      <point x="222" y="-7" type="curve"/>
      <point x="222" y="-90" type="line"/>
    </contour>
  </outline>
</glyph>
<glyph name="sterling" format="1">
  <advance width="510"/>
  <unicode hex="00A3"/>
  <note>
	sterling
  </note>
  <outline>
    <contour>
      <point x="493" y="0" type="line"/>
      <point x="493" y="87" type="line"/>
      <point x="224" y="87" type="line"/>
      <point x="240" y="105"/>
      <point x="245" y="129"/>
      <point x="245" y="158" type="curve" smooth="yes"/>
      <point x="245" y="341" type="line"/>
      <point x="406" y="341" type="line"/>
      <point x="406" y="428" type="line"/>
      <point x="245" y="428" type="line"/>
      <point x="245" y="485" type="line" smooth="yes"/>
      <point x="245" y="547"/>
      <point x="277" y="573"/>
      <point x="326" y="573" type="curve" smooth="yes"/>
      <point x="348" y="573"/>
      <point x="365" y="569"/>
      <point x="382" y="558" type="curve"/>
      <point x="382" y="519" type="line"/>
      <point x="489" y="519" type="line"/>
      <point x="489" y="607" type="line"/>
      <point x="449" y="640"/>
      <point x="401" y="662"/>
      <point x="323" y="662" type="curve" smooth="yes"/>
      <point x="192" y="662"/>
      <point x="114" y="588"/>
      <point x="114" y="483" type="curve" smooth="yes"/>
      <point x="114" y="428" type="line"/>
      <point x="37" y="428" type="line"/>
      <point x="37" y="341" type="line"/>
      <point x="114" y="341" type="line"/>
      <point x="114" y="150" type="line" smooth="yes"/>
      <point x="114" y="107"/>
      <point x="99" y="87"/>
      <point x="65" y="87" type="curve" smooth="yes"/>
      <point x="39" y="87" type="line"/>
      <point x="39" y="0" type="line"/>
    </contour>
  </outline>
</glyph>
<glyph name="currency" format="1">
  <advance width="629"/>
  <unicode hex="00A4"/>
  <note>
	currency
  </note>
  <outline>
    <contour>
      <point x="213" y="132" type="line"/>
      <point x="242" y="116"/>
      <point x="278" y="107"/>
      <point x="315" y="107" type="curve" smooth="yes"/>
      <point x="351" y="107"/>
      <point x="387" y="115"/>
      <point x="416" y="132" type="curve"/>
      <point x="508" y="48" type="line"/>
      <point x="584" y="126" type="line"/>
      <point x="498" y="203" type="line"/>
      <point x="524" y="239"/>
      <point x="539" y="283"/>
      <point x="539" y="331" type="curve" smooth="yes"/>
      <point x="539" y="373"/>
      <point x="527" y="413"/>
      <point x="506" y="446" type="curve"/>
      <point x="592" y="525" type="line"/>
      <point x="517" y="602" type="line"/>
      <point x="431" y="522" type="line"/>
      <point x="397" y="543"/>
      <point x="357" y="556"/>
      <point x="315" y="556" type="curve" smooth="yes"/>
      <point x="272" y="556"/>
      <point x="232" y="543"/>
      <point x="199" y="522" type="curve"/>
      <point x="112" y="602" type="line"/>
      <point x="37" y="525" type="line"/>
      <point x="123" y="446" type="line"/>
      <point x="102" y="412"/>
      <point x="91" y="373"/>
      <point x="91" y="331" type="curve" smooth="yes"/>
      <point x="91" y="283"/>
      <point x="106" y="239"/>
      <point x="131" y="203" type="curve"/>
      <point x="47" y="126" type="line"/>
      <point x="121" y="48" type="line"/>
    </contour>
    <contour>
      <point x="248" y="211"/>
      <point x="198" y="265"/>
      <point x="198" y="331" type="curve" smooth="yes"/>
      <point x="198" y="397"/>
      <point x="248" y="450"/>
      <point x="315" y="450" type="curve" smooth="yes"/>
      <point x="382" y="450"/>
      <point x="433" y="397"/>
      <point x="433" y="331" type="curve" smooth="yes"/>
      <point x="433" y="265"/>
      <point x="382" y="211"/>
      <point x="315" y="211" type="curve" smooth="yes"/>
    </contour>
  </outline>
</glyph>
<glyph name="brokenbar" format="1">
  <advance width="205"/>
  <unicode hex="00A6"/>
  <note>
	brokenbar
  </note>
  <outline>
    <contour>
      <point x="168" y="410" type="line"/>
      <point x="168" y="767" type="line"/>
      <point x="37" y="767" type="line"/>
      <point x="37" y="410" type="line"/>
    </contour>
    <contour>
      <point x="168" y="-120" type="line"/>
      <point x="168" y="236" type="line"/>
      <point x="37" y="236" type="line"/>
      <point x="37" y="-120" type="line"/>
    </contour>
  </outline>
</glyph>
<glyph name="section" format="1">
  <advance width="521"/>
  <unicode hex="00A7"/>
  <note>
	section
  </note>
  <outline>
    <contour>
      <point x="422" y="-156"/>
      <point x="504" y="-78"/>
      <point x="504" y="24" type="curve" smooth="yes"/>
      <point x="504" y="65"/>
      <point x="495" y="96"/>
      <point x="474" y="122" type="curve"/>
      <point x="495" y="149"/>
      <point x="504" y="180"/>
      <point x="504" y="215" type="curve" smooth="yes"/>
      <point x="504" y="333"/>
      <point x="428" y="367"/>
      <point x="294" y="421" type="curve" smooth="yes"/>
      <point x="221" y="451"/>
      <point x="152" y="473"/>
      <point x="152" y="540" type="curve" smooth="yes"/>
      <point x="152" y="601"/>
      <point x="200" y="623"/>
      <point x="259" y="623" type="curve" smooth="yes"/>
      <point x="295" y="623"/>
      <point x="333" y="616"/>
      <point x="360" y="601" type="curve"/>
      <point x="360" y="537" type="line"/>
      <point x="493" y="537" type="line"/>
      <point x="493" y="636" type="line"/>
      <point x="443" y="678"/>
      <point x="369" y="712"/>
      <point x="266" y="712" type="curve" smooth="yes"/>
      <point x="132" y="712"/>
      <point x="23" y="657"/>
      <point x="23" y="536" type="curve" smooth="yes"/>
      <point x="23" y="497"/>
      <point x="33" y="466"/>
      <point x="55" y="439" type="curve"/>
      <point x="33" y="414"/>
      <point x="23" y="382"/>
      <point x="23" y="345" type="curve" smooth="yes"/>
      <point x="23" y="239"/>
      <point x="90" y="195"/>
      <point x="234" y="138" type="curve" smooth="yes"/>
      <point x="322" y="103"/>
      <point x="375" y="86"/>
      <point x="375" y="19" type="curve" smooth="yes"/>
      <point x="375" y="-41"/>
      <point x="335" y="-67"/>
      <point x="269" y="-67" type="curve" smooth="yes"/>
      <point x="223" y="-67"/>
      <point x="180" y="-57"/>
      <point x="150" y="-40" type="curve"/>
      <point x="150" y="29" type="line"/>
      <point x="17" y="29" type="line"/>
      <point x="17" y="-78" type="line"/>
      <point x="77" y="-125"/>
      <point x="165" y="-156"/>
      <point x="268" y="-156" type="curve" smooth="yes"/>
    </contour>
    <contour>
      <point x="333" y="208"/>
      <point x="290" y="225"/>
      <point x="253" y="241" type="curve" smooth="yes"/>
      <point x="188" y="270"/>
      <point x="143" y="297"/>
      <point x="143" y="342" type="curve" smooth="yes"/>
      <point x="143" y="353"/>
      <point x="144" y="363"/>
      <point x="150" y="372" type="curve"/>
      <point x="193" y="348"/>
      <point x="245" y="328"/>
      <point x="290" y="309" type="curve" smooth="yes"/>
      <point x="355" y="282"/>
      <point x="385" y="258"/>
      <point x="385" y="219" type="curve" smooth="yes"/>
      <point x="385" y="203"/>
      <point x="384" y="199"/>
      <point x="379" y="187" type="curve"/>
    </contour>
  </outline>
</glyph>
<glyph name="dieresis" format="1">
  <advance width="414"/>
  <unicode hex="00A8"/>
  <note>
	dieresis
  </note>
  <outline>
    <contour>
      <point x="377" y="544" type="line"/>
      <point x="377" y="653" type="line"/>
      <point x="274" y="653" type="line"/>
      <point x="274" y="544" type="line"/>
    </contour>
    <contour>
      <point x="138" y="544" type="line"/>
      <point x="138" y="653" type="line"/>
      <point x="37" y="653" type="line"/>
      <point x="37" y="544" type="line"/>
    </contour>
  </outline>
</glyph>
<glyph name="copyright" format="1">
  <advance width="790"/>
  <unicode hex="00A9"/>
  <note>
	copyright
  </note>
  <outline>
    <contour>
      <point x="593" y="-13"/>
      <point x="753" y="146"/>
      <point x="753" y="344" type="curve" smooth="yes"/>
      <point x="753" y="542"/>
      <point x="593" y="702"/>
      <point x="395" y="702" type="curve" smooth="yes"/>
      <point x="196" y="702"/>
      <point x="37" y="542"/>
      <point x="37" y="344" type="curve" smooth="yes"/>
      <point x="37" y="146"/>
      <point x="196" y="-13"/>
      <point x="395" y="-13" type="curve" smooth="yes"/>
    </contour>
    <contour>
      <point x="468" y="102"/>
      <point x="527" y="120"/>
      <point x="569" y="165" type="curve"/>
      <point x="532" y="225" type="line"/>
      <point x="501" y="198"/>
      <point x="461" y="181"/>
      <point x="410" y="181" type="curve" smooth="yes"/>
      <point x="330" y="181"/>
      <point x="274" y="232"/>
      <point x="274" y="337" type="curve" smooth="yes"/>
      <point x="274" y="450"/>
      <point x="327" y="500"/>
      <point x="393" y="500" type="curve" smooth="yes"/>
      <point x="430" y="500"/>
      <point x="451" y="494"/>
      <point x="474" y="480" type="curve"/>
      <point x="474" y="432" type="line"/>
      <point x="569" y="432" type="line"/>
      <point x="569" y="522" type="line"/>
      <point x="520" y="561"/>
      <point x="478" y="579"/>
      <point x="393" y="579" type="curve" smooth="yes"/>
      <point x="255" y="579"/>
      <point x="165" y="490"/>
      <point x="165" y="337" type="curve" smooth="yes"/>
      <point x="165" y="192"/>
      <point x="268" y="102"/>
      <point x="394" y="102" type="curve" smooth="yes"/>
    </contour>
    <contour>
      <point x="232" y="65"/>
      <point x="124" y="187"/>
      <point x="124" y="344" type="curve" smooth="yes"/>
      <point x="124" y="501"/>
      <point x="232" y="624"/>
      <point x="395" y="624" type="curve" smooth="yes"/>
      <point x="558" y="624"/>
      <point x="667" y="501"/>
      <point x="667" y="344" type="curve" smooth="yes"/>
      <point x="667" y="187"/>
      <point x="558" y="65"/>
      <point x="395" y="65" type="curve" smooth="yes"/>
    </contour>
  </outline>
</glyph>
<glyph name="ordfeminine" format="1">
  <advance width="391"/>
  <unicode hex="00AA"/>
  <note>
	ordfeminine
  </note>
  <outline>
    <contour>
      <point x="201" y="335"/>
      <point x="232" y="348"/>
      <point x="261" y="382" type="curve"/>
      <point x="272" y="345" type="line"/>
      <point x="354" y="345" type="line"/>
      <point x="354" y="402" type="line"/>
      <point x="342" y="402" type="line" smooth="yes"/>
      <point x="327" y="402"/>
      <point x="322" y="409"/>
      <point x="322" y="426" type="curve" smooth="yes"/>
      <point x="322" y="552" type="line" smooth="yes"/>
      <point x="322" y="616"/>
      <point x="282" y="662"/>
      <point x="190" y="662" type="curve" smooth="yes"/>
      <point x="141" y="662"/>
      <point x="99" y="649"/>
      <point x="64" y="627" type="curve"/>
      <point x="64" y="564" type="line"/>
      <point x="139" y="564" type="line"/>
      <point x="139" y="587" type="line"/>
      <point x="154" y="597"/>
      <point x="165" y="601"/>
      <point x="186" y="601" type="curve" smooth="yes"/>
      <point x="218" y="601"/>
      <point x="231" y="591"/>
      <point x="231" y="560" type="curve" smooth="yes"/>
      <point x="231" y="529" type="line"/>
      <point x="156" y="524" type="line" smooth="yes"/>
      <point x="83" y="518"/>
      <point x="37" y="487"/>
      <point x="37" y="423" type="curve" smooth="yes"/>
      <point x="37" y="368"/>
      <point x="73" y="335"/>
      <point x="143" y="335" type="curve" smooth="yes"/>
    </contour>
    <contour>
      <point x="138" y="396"/>
      <point x="124" y="406"/>
      <point x="124" y="428" type="curve" smooth="yes"/>
      <point x="124" y="452"/>
      <point x="135" y="465"/>
      <point x="167" y="468" type="curve" smooth="yes"/>
      <point x="231" y="473" type="line"/>
      <point x="231" y="450" type="line" smooth="yes"/>
      <point x="231" y="412"/>
      <point x="207" y="396"/>
      <point x="167" y="396" type="curve" smooth="yes"/>
    </contour>
  </outline>
</glyph>
<glyph name="guillemetleft" format="1">
  <advance width="619"/>
  <unicode hex="00AB"/>
  <note>
	guillemotleft
  </note>
  <outline>
    <contour>
      <point x="582" y="174" type="line"/>
      <point x="407" y="325" type="line"/>
      <point x="582" y="477" type="line"/>
      <point x="582" y="609" type="line"/>
      <point x="277" y="352" type="line"/>
      <point x="277" y="298" type="line"/>
      <point x="582" y="41" type="line"/>
    </contour>
    <contour>
      <point x="342" y="174" type="line"/>
      <point x="168" y="325" type="line"/>
      <point x="342" y="477" type="line"/>
      <point x="342" y="609" type="line"/>
      <point x="37" y="352" type="line"/>
      <point x="37" y="298" type="line"/>
      <point x="342" y="41" type="line"/>
    </contour>
  </outline>
</glyph>
<glyph name="logicalnot" format="1">
  <advance width="502"/>
  <unicode hex="00AC"/>
  <note>
	logicalnot
  </note>
  <outline>
    <contour>
      <point x="465" y="133" type="line"/>
      <point x="465" y="351" type="line"/>
      <point x="37" y="351" type="line"/>
      <point x="37" y="263" type="line"/>
      <point x="358" y="263" type="line"/>
      <point x="358" y="133" type="line"/>
    </contour>
  </outline>
</glyph>
<glyph name="softhyphen" format="1">
  <advance width="372"/>
  <unicode hex="00AD"/>
  <note>
	softhyphen
  </note>
  <outline>
    <contour>
      <point x="335" y="258" type="line"/>
      <point x="335" y="345" type="line"/>
      <point x="37" y="345" type="line"/>
      <point x="37" y="258" type="line"/>
    </contour>
  </outline>
</glyph>
<glyph name="registered" format="1">
  <advance width="790"/>
  <unicode hex="00AE"/>
  <note>
	registered
  </note>
  <outline>
    <contour>
      <point x="593" y="-13"/>
      <point x="753" y="146"/>
      <point x="753" y="344" type="curve" smooth="yes"/>
      <point x="753" y="542"/>
      <point x="593" y="702"/>
      <point x="395" y="702" type="curve" smooth="yes"/>
      <point x="196" y="702"/>
      <point x="37" y="542"/>
      <point x="37" y="344" type="curve" smooth="yes"/>
      <point x="37" y="146"/>
      <point x="196" y="-13"/>
      <point x="395" y="-13" type="curve" smooth="yes"/>
    </contour>
    <contour>
      <point x="232" y="65"/>
      <point x="124" y="187"/>
      <point x="124" y="344" type="curve" smooth="yes"/>
      <point x="124" y="501"/>
      <point x="232" y="624"/>
      <point x="395" y="624" type="curve" smooth="yes"/>
      <point x="558" y="624"/>
      <point x="667" y="501"/>
      <point x="667" y="344" type="curve" smooth="yes"/>
      <point x="667" y="187"/>
      <point x="558" y="65"/>
      <point x="395" y="65" type="curve" smooth="yes"/>
    </contour>
    <contour>
      <point x="375" y="147" type="line"/>
      <point x="375" y="211" type="line"/>
      <point x="363" y="211" type="line" smooth="yes"/>
      <point x="343" y="211"/>
      <point x="339" y="219"/>
      <point x="339" y="240" type="curve" smooth="yes"/>
      <point x="339" y="307" type="line"/>
      <point x="392" y="307" type="line"/>
      <point x="440" y="211" type="line"/>
      <point x="399" y="211" type="line"/>
      <point x="399" y="147" type="line"/>
      <point x="583" y="147" type="line"/>
      <point x="583" y="211" type="line"/>
      <point x="564" y="211" type="line" smooth="yes"/>
      <point x="544" y="211"/>
      <point x="532" y="222"/>
      <point x="521" y="242" type="curve" smooth="yes"/>
      <point x="482" y="316" type="line"/>
      <point x="541" y="328"/>
      <point x="570" y="373"/>
      <point x="570" y="430" type="curve" smooth="yes"/>
      <point x="570" y="502"/>
      <point x="515" y="547"/>
      <point x="423" y="547" type="curve" smooth="yes"/>
      <point x="215" y="547" type="line"/>
      <point x="215" y="479" type="line"/>
      <point x="226" y="479" type="line" smooth="yes"/>
      <point x="246" y="479"/>
      <point x="252" y="472"/>
      <point x="252" y="452" type="curve" smooth="yes"/>
      <point x="252" y="257" type="line" smooth="yes"/>
      <point x="252" y="224"/>
      <point x="252" y="211"/>
      <point x="226" y="211" type="curve" smooth="yes"/>
      <point x="215" y="211" type="line"/>
      <point x="215" y="147" type="line"/>
    </contour>
    <contour>
      <point x="351" y="479" type="line"/>
      <point x="416" y="479" type="line" smooth="yes"/>
      <point x="454" y="479"/>
      <point x="473" y="465"/>
      <point x="473" y="428" type="curve" smooth="yes"/>
      <point x="473" y="391"/>
      <point x="453" y="372"/>
      <point x="416" y="372" type="curve" smooth="yes"/>
      <point x="351" y="372" type="line"/>
    </contour>
  </outline>
</glyph>
<glyph name="macron" format="1">
  <advance width="426"/>
  <unicode hex="00AF"/>
  <note>
	macron
  </note>
  <outline>
    <contour>
      <point x="389" y="552" type="line"/>
      <point x="389" y="633" type="line"/>
      <point x="37" y="633" type="line"/>
      <point x="37" y="552" type="line"/>
    </contour>
  </outline>
</glyph>
<glyph name="degree" format="1">
  <advance width="341"/>
  <unicode hex="00B0"/>
  <note>
	degree
  </note>
  <outline>
    <contour>
      <point x="243" y="406"/>
      <point x="304" y="465"/>
      <point x="304" y="538" type="curve" smooth="yes"/>
      <point x="304" y="613"/>
      <point x="243" y="672"/>
      <point x="169" y="672" type="curve" smooth="yes"/>
      <point x="97" y="672"/>
      <point x="37" y="613"/>
      <point x="37" y="538" type="curve" smooth="yes"/>
      <point x="37" y="465"/>
      <point x="97" y="406"/>
      <point x="169" y="406" type="curve" smooth="yes"/>
    </contour>
    <contour>
      <point x="139" y="484"/>
      <point x="116" y="508"/>
      <point x="116" y="538" type="curve" smooth="yes"/>
      <point x="116" y="570"/>
      <point x="139" y="594"/>
      <point x="170" y="594" type="curve" smooth="yes"/>
      <point x="202" y="594"/>
      <point x="224" y="570"/>
      <point x="224" y="538" type="curve" smooth="yes"/>
      <point x="224" y="508"/>
      <point x="202" y="484"/>
      <point x="170" y="484" type="curve" smooth="yes"/>
    </contour>
  </outline>
</glyph>
<glyph name="plusminus" format="1">
  <advance width="413"/>
  <unicode hex="00B1"/>
  <note>
	plusminus
  </note>
  <outline>
    <contour>
      <point x="258" y="172" type="line"/>
      <point x="258" y="276" type="line"/>
      <point x="376" y="276" type="line"/>
      <point x="376" y="363" type="line"/>
      <point x="258" y="363" type="line"/>
      <point x="258" y="467" type="line"/>
      <point x="152" y="467" type="line"/>
      <point x="152" y="363" type="line"/>
      <point x="37" y="363" type="line"/>
      <point x="37" y="276" type="line"/>
      <point x="152" y="276" type="line"/>
      <point x="152" y="172" type="line"/>
    </contour>
    <contour>
      <point x="376" y="23" type="line"/>
      <point x="376" y="111" type="line"/>
      <point x="37" y="111" type="line"/>
      <point x="37" y="23" type="line"/>
    </contour>
  </outline>
</glyph>
<glyph name="twosuperior" format="1">
  <advance width="330"/>
  <unicode hex="00B2"/>
  <note>
	twosuperior
  </note>
  <outline>
    <contour>
      <point x="293" y="345" type="line"/>
      <point x="293" y="408" type="line"/>
      <point x="143" y="408" type="line"/>
      <point x="143" y="429"/>
      <point x="174" y="445"/>
      <point x="208" y="467" type="curve"/>
      <point x="270" y="503"/>
      <point x="291" y="523"/>
      <point x="291" y="571" type="curve" smooth="yes"/>
      <point x="291" y="631"/>
      <point x="242" y="662"/>
      <point x="164" y="662" type="curve" smooth="yes"/>
      <point x="123" y="662"/>
      <point x="67" y="648"/>
      <point x="37" y="627" type="curve"/>
      <point x="37" y="566" type="line"/>
      <point x="117" y="566" type="line"/>
      <point x="117" y="595" type="line"/>
      <point x="128" y="601"/>
      <point x="142" y="604"/>
      <point x="158" y="604" type="curve" smooth="yes"/>
      <point x="187" y="604"/>
      <point x="201" y="593"/>
      <point x="201" y="569" type="curve" smooth="yes"/>
      <point x="201" y="538"/>
      <point x="178" y="525"/>
      <point x="135" y="499" type="curve" smooth="yes"/>
      <point x="71" y="462"/>
      <point x="37" y="434"/>
      <point x="37" y="377" type="curve" smooth="yes"/>
      <point x="37" y="345" type="line"/>
    </contour>
  </outline>
</glyph>
<glyph name="threesuperior" format="1">
  <advance width="341"/>
  <unicode hex="00B3"/>
  <note>
	threesuperior
  </note>
  <outline>
    <contour>
      <point x="262" y="335"/>
      <point x="304" y="371"/>
      <point x="304" y="436" type="curve" smooth="yes"/>
      <point x="304" y="470"/>
      <point x="289" y="492"/>
      <point x="258" y="503" type="curve"/>
      <point x="290" y="518"/>
      <point x="298" y="549"/>
      <point x="298" y="575" type="curve" smooth="yes"/>
      <point x="298" y="628"/>
      <point x="257" y="662"/>
      <point x="163" y="662" type="curve" smooth="yes"/>
      <point x="114" y="662"/>
      <point x="67" y="645"/>
      <point x="43" y="626" type="curve"/>
      <point x="43" y="566" type="line"/>
      <point x="122" y="566" type="line"/>
      <point x="122" y="594" type="line"/>
      <point x="133" y="600"/>
      <point x="150" y="604"/>
      <point x="166" y="604" type="curve" smooth="yes"/>
      <point x="197" y="604"/>
      <point x="212" y="594"/>
      <point x="212" y="569" type="curve" smooth="yes"/>
      <point x="212" y="538"/>
      <point x="199" y="532"/>
      <point x="167" y="532" type="curve" smooth="yes"/>
      <point x="131" y="532" type="line"/>
      <point x="131" y="475" type="line"/>
      <point x="166" y="475" type="line" smooth="yes"/>
      <point x="201" y="475"/>
      <point x="216" y="466"/>
      <point x="216" y="435" type="curve" smooth="yes"/>
      <point x="216" y="403"/>
      <point x="197" y="393"/>
      <point x="163" y="393" type="curve" smooth="yes"/>
      <point x="144" y="393"/>
      <point x="127" y="397"/>
      <point x="116" y="405" type="curve"/>
      <point x="116" y="435" type="line"/>
      <point x="37" y="435" type="line"/>
      <point x="37" y="377" type="line"/>
      <point x="65" y="352"/>
      <point x="110" y="335"/>
      <point x="164" y="335" type="curve" smooth="yes"/>
    </contour>
  </outline>
</glyph>
<glyph name="acute" format="1">
  <advance width="309"/>
  <unicode hex="00B4"/>
  <note>
	acute
  </note>
  <outline>
    <contour>
      <point x="150" y="516" type="line"/>
      <point x="272" y="709" type="line"/>
      <point x="123" y="709" type="line"/>
      <point x="37" y="516" type="line"/>
    </contour>
  </outline>
</glyph>
<glyph name="paragraph" format="1">
  <advance width="674"/>
  <unicode hex="00B6"/>
  <note>
	paragraph
  </note>
  <outline>
    <contour>
      <point x="353" y="-156" type="line"/>
      <point x="353" y="560" type="line"/>
      <point x="443" y="560" type="line"/>
      <point x="443" y="-156" type="line"/>
      <point x="637" y="-156" type="line"/>
      <point x="637" y="-69" type="line"/>
      <point x="611" y="-69" type="line" smooth="yes"/>
      <point x="584" y="-69"/>
      <point x="574" y="-57"/>
      <point x="574" y="-32" type="curve" smooth="yes"/>
      <point x="574" y="521" type="line" smooth="yes"/>
      <point x="574" y="546"/>
      <point x="584" y="560"/>
      <point x="614" y="560" type="curve" smooth="yes"/>
      <point x="635" y="560" type="line"/>
      <point x="635" y="647" type="line"/>
      <point x="251" y="647" type="line" smooth="yes"/>
      <point x="106" y="647"/>
      <point x="37" y="586"/>
      <point x="37" y="469" type="curve" smooth="yes"/>
      <point x="37" y="369"/>
      <point x="102" y="299"/>
      <point x="222" y="299" type="curve"/>
      <point x="222" y="-32" type="line" smooth="yes"/>
      <point x="222" y="-57"/>
      <point x="212" y="-69"/>
      <point x="185" y="-69" type="curve" smooth="yes"/>
      <point x="159" y="-69" type="line"/>
      <point x="159" y="-156" type="line"/>
    </contour>
  </outline>
</glyph>
<glyph name="periodcentered" format="1">
  <advance width="179"/>
  <unicode hex="00B7"/>
  <note>
	periodcentered
  </note>
  <outline>
    <contour>
      <point x="142" y="258" type="line"/>
      <point x="142" y="356" type="line"/>
      <point x="37" y="356" type="line"/>
      <point x="37" y="258" type="line"/>
    </contour>
  </outline>
</glyph>
<glyph name="cedilla" format="1">
  <advance width="306"/>
  <unicode hex="00B8"/>
  <note>
	cedilla
  </note>
  <outline>
    <contour>
      <point x="224" y="-228"/>
      <point x="269" y="-192"/>
      <point x="269" y="-130" type="curve" smooth="yes"/>
      <point x="269" y="-82"/>
      <point x="247" y="-53"/>
      <point x="191" y="-43" type="curve"/>
      <point x="197" y="0" type="line"/>
      <point x="77" y="0" type="line"/>
      <point x="66" y="-80" type="line"/>
      <point x="140" y="-80"/>
      <point x="157" y="-95"/>
      <point x="157" y="-125" type="curve" smooth="yes"/>
      <point x="157" y="-144"/>
      <point x="142" y="-155"/>
      <point x="108" y="-155" type="curve" smooth="yes"/>
      <point x="87" y="-155"/>
      <point x="60" y="-150"/>
      <point x="37" y="-140" type="curve"/>
      <point x="37" y="-213" type="line"/>
      <point x="65" y="-224"/>
      <point x="90" y="-228"/>
      <point x="123" y="-228" type="curve" smooth="yes"/>
    </contour>
  </outline>
</glyph>
<glyph name="onesuperior" format="1">
  <advance width="274"/>
  <unicode hex="00B9"/>
  <note>
	onesuperior
  </note>
  <outline>
    <contour>
      <point x="247" y="345" type="line"/>
      <point x="247" y="408" type="line"/>
      <point x="215" y="408" type="line" smooth="yes"/>
      <point x="194" y="408"/>
      <point x="191" y="414"/>
      <point x="191" y="431" type="curve" smooth="yes"/>
      <point x="191" y="657" type="line"/>
      <point x="119" y="657" type="line"/>
      <point x="27" y="599" type="line"/>
      <point x="61" y="545" type="line"/>
      <point x="108" y="576" type="line"/>
      <point x="108" y="431" type="line" smooth="yes"/>
      <point x="108" y="414"/>
      <point x="104" y="408"/>
      <point x="83" y="408" type="curve" smooth="yes"/>
      <point x="51" y="408" type="line"/>
      <point x="51" y="345" type="line"/>
    </contour>
  </outline>
</glyph>
<glyph name="ordmasculine" format="1">
  <advance width="398"/>
  <unicode hex="00BA"/>
  <note>
	ordmasculine
  </note>
  <outline>
    <contour>
      <point x="302" y="335"/>
      <point x="361" y="394"/>
      <point x="361" y="498" type="curve" smooth="yes"/>
      <point x="361" y="602"/>
      <point x="305" y="662"/>
      <point x="199" y="662" type="curve" smooth="yes"/>
      <point x="93" y="662"/>
      <point x="37" y="602"/>
      <point x="37" y="498" type="curve" smooth="yes"/>
      <point x="37" y="394"/>
      <point x="94" y="335"/>
      <point x="199" y="335" type="curve" smooth="yes"/>
    </contour>
    <contour>
      <point x="148" y="399"/>
      <point x="128" y="430"/>
      <point x="128" y="498" type="curve" smooth="yes"/>
      <point x="128" y="568"/>
      <point x="148" y="598"/>
      <point x="199" y="598" type="curve" smooth="yes"/>
      <point x="248" y="598"/>
      <point x="270" y="568"/>
      <point x="270" y="498" type="curve" smooth="yes"/>
      <point x="270" y="430"/>
      <point x="248" y="399"/>
      <point x="199" y="399" type="curve" smooth="yes"/>
    </contour>
  </outline>
</glyph>
<glyph name="guillemetright" format="1">
  <advance width="619"/>
  <unicode hex="00BB"/>
  <note>
	guillemotright
  </note>
  <outline>
    <contour>
      <point x="582" y="298" type="line"/>
      <point x="582" y="352" type="line"/>
      <point x="277" y="609" type="line"/>
      <point x="277" y="477" type="line"/>
      <point x="452" y="325" type="line"/>
      <point x="277" y="174" type="line"/>
      <point x="277" y="41" type="line"/>
    </contour>
    <contour>
      <point x="342" y="298" type="line"/>
      <point x="342" y="352" type="line"/>
      <point x="37" y="609" type="line"/>
      <point x="37" y="477" type="line"/>
      <point x="211" y="325" type="line"/>
      <point x="37" y="174" type="line"/>
      <point x="37" y="41" type="line"/>
    </contour>
  </outline>
</glyph>
<glyph name="onequarter" format="1">
  <advance width="644"/>
  <unicode hex="00BC"/>
  <note>
	onequarter
  </note>
  <outline>
    <contour>
      <point x="205" y="0" type="line"/>
      <point x="596" y="647" type="line"/>
      <point x="475" y="647" type="line"/>
      <point x="84" y="0" type="line"/>
    </contour>
    <contour>
      <point x="596" y="0" type="line"/>
      <point x="596" y="52" type="line"/>
      <point x="577" y="52" type="line" smooth="yes"/>
      <point x="561" y="52"/>
      <point x="557" y="58"/>
      <point x="557" y="71" type="curve" smooth="yes"/>
      <point x="557" y="86" type="line"/>
      <point x="607" y="86" type="line"/>
      <point x="607" y="143" type="line"/>
      <point x="557" y="143" type="line"/>
      <point x="557" y="312" type="line"/>
      <point x="469" y="312" type="line"/>
      <point x="334" y="138" type="line"/>
      <point x="334" y="86" type="line"/>
      <point x="476" y="86" type="line"/>
      <point x="476" y="71" type="line" smooth="yes"/>
      <point x="476" y="58"/>
      <point x="471" y="52"/>
      <point x="456" y="52" type="curve" smooth="yes"/>
      <point x="437" y="52" type="line"/>
      <point x="437" y="0" type="line"/>
    </contour>
    <contour>
      <point x="486" y="232" type="line"/>
      <point x="486" y="143" type="line"/>
      <point x="416" y="143" type="line"/>
    </contour>
    <contour>
      <point x="257" y="345" type="line"/>
      <point x="257" y="408" type="line"/>
      <point x="225" y="408" type="line" smooth="yes"/>
      <point x="204" y="408"/>
      <point x="201" y="414"/>
      <point x="201" y="431" type="curve" smooth="yes"/>
      <point x="201" y="657" type="line"/>
      <point x="129" y="657" type="line"/>
      <point x="37" y="599" type="line"/>
      <point x="71" y="545" type="line"/>
      <point x="118" y="576" type="line"/>
      <point x="118" y="431" type="line" smooth="yes"/>
      <point x="118" y="414"/>
      <point x="114" y="408"/>
      <point x="93" y="408" type="curve" smooth="yes"/>
      <point x="61" y="408" type="line"/>
      <point x="61" y="345" type="line"/>
    </contour>
  </outline>
</glyph>
<glyph name="onehalf" format="1">
  <advance width="695"/>
  <unicode hex="00BD"/>
  <note>
	onehalf
  </note>
  <outline>
    <contour>
      <point x="205" y="0" type="line"/>
      <point x="596" y="647" type="line"/>
      <point x="475" y="647" type="line"/>
      <point x="84" y="0" type="line"/>
    </contour>
    <contour>
      <point x="257" y="345" type="line"/>
      <point x="257" y="408" type="line"/>
      <point x="225" y="408" type="line" smooth="yes"/>
      <point x="204" y="408"/>
      <point x="201" y="414"/>
      <point x="201" y="431" type="curve" smooth="yes"/>
      <point x="201" y="657" type="line"/>
      <point x="129" y="657" type="line"/>
      <point x="37" y="599" type="line"/>
      <point x="71" y="545" type="line"/>
      <point x="118" y="576" type="line"/>
      <point x="118" y="431" type="line" smooth="yes"/>
      <point x="118" y="414"/>
      <point x="114" y="408"/>
      <point x="93" y="408" type="curve" smooth="yes"/>
      <point x="61" y="408" type="line"/>
      <point x="61" y="345" type="line"/>
    </contour>
    <contour>
      <point x="658" y="0" type="line"/>
      <point x="658" y="63" type="line"/>
      <point x="508" y="63" type="line"/>
      <point x="508" y="84"/>
      <point x="539" y="100"/>
      <point x="574" y="122" type="curve" smooth="yes"/>
      <point x="634" y="158"/>
      <point x="656" y="178"/>
      <point x="656" y="226" type="curve" smooth="yes"/>
      <point x="656" y="286"/>
      <point x="607" y="317"/>
      <point x="530" y="317" type="curve" smooth="yes"/>
      <point x="488" y="317"/>
      <point x="432" y="303"/>
      <point x="402" y="282" type="curve"/>
      <point x="402" y="221" type="line"/>
      <point x="483" y="221" type="line"/>
      <point x="483" y="250" type="line"/>
      <point x="492" y="256"/>
      <point x="508" y="259"/>
      <point x="522" y="259" type="curve" smooth="yes"/>
      <point x="552" y="259"/>
      <point x="565" y="248"/>
      <point x="565" y="224" type="curve" smooth="yes"/>
      <point x="565" y="193"/>
      <point x="542" y="180"/>
      <point x="499" y="154" type="curve" smooth="yes"/>
      <point x="437" y="117"/>
      <point x="402" y="89"/>
      <point x="402" y="32" type="curve" smooth="yes"/>
      <point x="402" y="0" type="line"/>
    </contour>
  </outline>
</glyph>
<glyph name="threequarters" format="1">
  <advance width="655"/>
  <unicode hex="00BE"/>
  <note>
	threequarters
  </note>
  <outline>
    <contour>
      <point x="216" y="0" type="line"/>
      <point x="607" y="647" type="line"/>
      <point x="485" y="647" type="line"/>
      <point x="95" y="0" type="line"/>
    </contour>
    <contour>
      <point x="607" y="0" type="line"/>
      <point x="607" y="52" type="line"/>
      <point x="587" y="52" type="line" smooth="yes"/>
      <point x="572" y="52"/>
      <point x="568" y="58"/>
      <point x="568" y="71" type="curve" smooth="yes"/>
      <point x="568" y="86" type="line"/>
      <point x="618" y="86" type="line"/>
      <point x="618" y="143" type="line"/>
      <point x="568" y="143" type="line"/>
      <point x="568" y="312" type="line"/>
      <point x="480" y="312" type="line"/>
      <point x="344" y="138" type="line"/>
      <point x="344" y="86" type="line"/>
      <point x="487" y="86" type="line"/>
      <point x="487" y="71" type="line" smooth="yes"/>
      <point x="487" y="58"/>
      <point x="481" y="52"/>
      <point x="467" y="52" type="curve" smooth="yes"/>
      <point x="447" y="52" type="line"/>
      <point x="447" y="0" type="line"/>
    </contour>
    <contour>
      <point x="496" y="232" type="line"/>
      <point x="496" y="143" type="line"/>
      <point x="426" y="143" type="line"/>
    </contour>
    <contour>
      <point x="262" y="335"/>
      <point x="304" y="371"/>
      <point x="304" y="436" type="curve" smooth="yes"/>
      <point x="304" y="470"/>
      <point x="289" y="492"/>
      <point x="258" y="503" type="curve"/>
      <point x="290" y="518"/>
      <point x="298" y="549"/>
      <point x="298" y="575" type="curve" smooth="yes"/>
      <point x="298" y="628"/>
      <point x="257" y="662"/>
      <point x="163" y="662" type="curve" smooth="yes"/>
      <point x="114" y="662"/>
      <point x="67" y="645"/>
      <point x="43" y="626" type="curve"/>
      <point x="43" y="566" type="line"/>
      <point x="122" y="566" type="line"/>
      <point x="122" y="594" type="line"/>
      <point x="133" y="600"/>
      <point x="150" y="604"/>
      <point x="166" y="604" type="curve" smooth="yes"/>
      <point x="197" y="604"/>
      <point x="212" y="594"/>
      <point x="212" y="572" type="curve" smooth="yes"/>
      <point x="212" y="541"/>
      <point x="199" y="532"/>
      <point x="167" y="532" type="curve" smooth="yes"/>
      <point x="131" y="532" type="line"/>
      <point x="131" y="475" type="line"/>
      <point x="166" y="475" type="line" smooth="yes"/>
      <point x="201" y="475"/>
      <point x="216" y="466"/>
      <point x="216" y="435" type="curve" smooth="yes"/>
      <point x="216" y="403"/>
      <point x="197" y="393"/>
      <point x="163" y="393" type="curve" smooth="yes"/>
      <point x="144" y="393"/>
      <point x="127" y="397"/>
      <point x="116" y="405" type="curve"/>
      <point x="116" y="435" type="line"/>
      <point x="37" y="435" type="line"/>
      <point x="37" y="377" type="line"/>
      <point x="65" y="352"/>
      <point x="110" y="335"/>
      <point x="164" y="335" type="curve" smooth="yes"/>
    </contour>
  </outline>
</glyph>
<glyph name="questiondown" format="1">
  <advance width="543"/>
  <unicode hex="00BF"/>
  <note>
	questiondown
  </note>
  <outline>
    <contour>
      <point x="370" y="-167"/>
      <point x="452" y="-138"/>
      <point x="506" y="-98" type="curve"/>
      <point x="506" y="7" type="line"/>
      <point x="388" y="7" type="line"/>
      <point x="388" y="-53" type="line"/>
      <point x="359" y="-67"/>
      <point x="321" y="-79"/>
      <point x="279" y="-79" type="curve" smooth="yes"/>
      <point x="207" y="-79"/>
      <point x="167" y="-52"/>
      <point x="167" y="6" type="curve" smooth="yes"/>
      <point x="167" y="63"/>
      <point x="200" y="87"/>
      <point x="257" y="117" type="curve" smooth="yes"/>
      <point x="346" y="164"/>
      <point x="377" y="222"/>
      <point x="377" y="306" type="curve" smooth="yes"/>
      <point x="377" y="335" type="line"/>
      <point x="245" y="335" type="line"/>
      <point x="245" y="312" type="line" smooth="yes"/>
      <point x="245" y="246"/>
      <point x="237" y="220"/>
      <point x="176" y="186" type="curve" smooth="yes"/>
      <point x="80" y="133"/>
      <point x="37" y="95"/>
      <point x="37" y="6" type="curve" smooth="yes"/>
      <point x="37" y="-112"/>
      <point x="128" y="-167"/>
      <point x="275" y="-167" type="curve" smooth="yes"/>
    </contour>
    <contour>
      <point x="385" y="387" type="line"/>
      <point x="385" y="495" type="line"/>
      <point x="238" y="495" type="line"/>
      <point x="238" y="387" type="line"/>
    </contour>
  </outline>
</glyph>
<glyph name="Atilde" format="1">
  <advance width="717"/>
  <unicode hex="00C3"/>
  <note>
	Atilde
  </note>
  <outline>
    <contour>
      <point x="277" y="0" type="line"/>
      <point x="277" y="87" type="line"/>
      <point x="231" y="87" type="line"/>
      <point x="268" y="197" type="line"/>
      <point x="450" y="197" type="line"/>
      <point x="486" y="87" type="line"/>
      <point x="440" y="87" type="line"/>
      <point x="440" y="0" type="line"/>
      <point x="690" y="0" type="line"/>
      <point x="690" y="87" type="line"/>
      <point x="662" y="87" type="line" smooth="yes"/>
      <point x="630" y="87"/>
      <point x="615" y="94"/>
      <point x="605" y="123" type="curve" smooth="yes"/>
      <point x="423" y="647" type="line"/>
      <point x="296" y="647" type="line"/>
      <point x="111" y="123" type="line" smooth="yes"/>
      <point x="101" y="94"/>
      <point x="87" y="87"/>
      <point x="56" y="87" type="curve" smooth="yes"/>
      <point x="27" y="87" type="line"/>
      <point x="27" y="0" type="line"/>
    </contour>
    <contour>
      <point x="360" y="476" type="line"/>
      <point x="428" y="269" type="line"/>
      <point x="290" y="269" type="line"/>
    </contour>
    <contour>
      <point x="249" y="700" type="line"/>
      <point x="249" y="737"/>
      <point x="265" y="750"/>
      <point x="294" y="750" type="curve" smooth="yes"/>
      <point x="342" y="750"/>
      <point x="377" y="700"/>
      <point x="451" y="700" type="curve" smooth="yes"/>
      <point x="531" y="700"/>
      <point x="565" y="746"/>
      <point x="565" y="853" type="curve"/>
      <point x="472" y="853" type="line"/>
      <point x="472" y="816"/>
      <point x="457" y="801"/>
      <point x="428" y="801" type="curve" smooth="yes"/>
      <point x="381" y="801"/>
      <point x="346" y="853"/>
      <point x="273" y="853" type="curve" smooth="yes"/>
      <point x="191" y="853"/>
      <point x="155" y="804"/>
      <point x="155" y="700" type="curve"/>
    </contour>
  </outline>
</glyph>
<glyph name="Adieresis" format="1">
  <advance width="717"/>
  <unicode hex="00C4"/>
  <note>
	Adieresis
  </note>
  <outline>
    <contour>
      <point x="277" y="0" type="line"/>
      <point x="277" y="87" type="line"/>
      <point x="231" y="87" type="line"/>
      <point x="268" y="197" type="line"/>
      <point x="450" y="197" type="line"/>
      <point x="486" y="87" type="line"/>
      <point x="440" y="87" type="line"/>
      <point x="440" y="0" type="line"/>
      <point x="690" y="0" type="line"/>
      <point x="690" y="87" type="line"/>
      <point x="662" y="87" type="line" smooth="yes"/>
      <point x="630" y="87"/>
      <point x="615" y="94"/>
      <point x="605" y="123" type="curve" smooth="yes"/>
      <point x="423" y="647" type="line"/>
      <point x="296" y="647" type="line"/>
      <point x="111" y="123" type="line" smooth="yes"/>
      <point x="101" y="94"/>
      <point x="87" y="87"/>
      <point x="56" y="87" type="curve" smooth="yes"/>
      <point x="27" y="87" type="line"/>
      <point x="27" y="0" type="line"/>
    </contour>
    <contour>
      <point x="360" y="476" type="line"/>
      <point x="428" y="269" type="line"/>
      <point x="290" y="269" type="line"/>
    </contour>
    <contour>
      <point x="299" y="719" type="line"/>
      <point x="299" y="828" type="line"/>
      <point x="195" y="828" type="line"/>
      <point x="195" y="719" type="line"/>
    </contour>
    <contour>
      <point x="525" y="719" type="line"/>
      <point x="525" y="828" type="line"/>
      <point x="420" y="828" type="line"/>
      <point x="420" y="719" type="line"/>
    </contour>
  </outline>
</glyph>
<glyph name="Aring" format="1">
  <advance width="717"/>
  <unicode hex="00C5"/>
  <note>
	Aring
  </note>
  <outline>
    <contour>
      <point x="277" y="0" type="line"/>
      <point x="277" y="87" type="line"/>
      <point x="231" y="87" type="line"/>
      <point x="268" y="197" type="line"/>
      <point x="450" y="197" type="line"/>
      <point x="486" y="87" type="line"/>
      <point x="440" y="87" type="line"/>
      <point x="440" y="0" type="line"/>
      <point x="690" y="0" type="line"/>
      <point x="690" y="87" type="line"/>
      <point x="662" y="87" type="line" smooth="yes"/>
      <point x="630" y="87"/>
      <point x="615" y="94"/>
      <point x="605" y="123" type="curve" smooth="yes"/>
      <point x="423" y="647" type="line"/>
      <point x="296" y="647" type="line"/>
      <point x="111" y="123" type="line" smooth="yes"/>
      <point x="101" y="94"/>
      <point x="87" y="87"/>
      <point x="56" y="87" type="curve" smooth="yes"/>
      <point x="27" y="87" type="line"/>
      <point x="27" y="0" type="line"/>
    </contour>
    <contour>
      <point x="360" y="476" type="line"/>
      <point x="428" y="269" type="line"/>
      <point x="290" y="269" type="line"/>
    </contour>
    <contour>
      <point x="425" y="600"/>
      <point x="477" y="651"/>
      <point x="477" y="716" type="curve" smooth="yes"/>
      <point x="477" y="780"/>
      <point x="425" y="832"/>
      <point x="360" y="832" type="curve" smooth="yes"/>
      <point x="295" y="832"/>
      <point x="244" y="780"/>
      <point x="244" y="716" type="curve" smooth="yes"/>
      <point x="244" y="651"/>
      <point x="295" y="600"/>
      <point x="360" y="600" type="curve" smooth="yes"/>
    </contour>
    <contour>
      <point x="333" y="668"/>
      <point x="313" y="689"/>
      <point x="313" y="716" type="curve" smooth="yes"/>
      <point x="313" y="742"/>
      <point x="333" y="764"/>
      <point x="360" y="764" type="curve" smooth="yes"/>
      <point x="387" y="764"/>
      <point x="407" y="742"/>
      <point x="407" y="716" type="curve" smooth="yes"/>
      <point x="407" y="689"/>
      <point x="387" y="668"/>
      <point x="360" y="668" type="curve" smooth="yes"/>
    </contour>
  </outline>
</glyph>
<glyph name="AE" format="1">
  <advance width="832"/>
  <unicode hex="00C6"/>
  <note>
	AE
  </note>
  <outline>
    <contour>
      <point x="277" y="0" type="line"/>
      <point x="277" y="87" type="line"/>
      <point x="231" y="87" type="line"/>
      <point x="270" y="197" type="line"/>
      <point x="388" y="197" type="line"/>
      <point x="388" y="126" type="line" smooth="yes"/>
      <point x="388" y="99"/>
      <point x="384" y="87"/>
      <point x="356" y="87" type="curve" smooth="yes"/>
      <point x="341" y="87" type="line"/>
      <point x="341" y="0" type="line"/>
      <point x="805" y="0" type="line"/>
      <point x="805" y="143" type="line"/>
      <point x="685" y="143" type="line"/>
      <point x="685" y="125" type="line" smooth="yes"/>
      <point x="685" y="99"/>
      <point x="673" y="87"/>
      <point x="646" y="87" type="curve" smooth="yes"/>
      <point x="520" y="87" type="line"/>
      <point x="520" y="280" type="line"/>
      <point x="664" y="280" type="line"/>
      <point x="664" y="368" type="line"/>
      <point x="520" y="368" type="line"/>
      <point x="520" y="560" type="line"/>
      <point x="618" y="560" type="line" smooth="yes"/>
      <point x="663" y="560"/>
      <point x="685" y="558"/>
      <point x="685" y="522" type="curve" smooth="yes"/>
      <point x="685" y="505" type="line"/>
      <point x="805" y="505" type="line"/>
      <point x="805" y="647" type="line"/>
      <point x="304" y="647" type="line"/>
      <point x="111" y="123" type="line" smooth="yes"/>
      <point x="100" y="94"/>
      <point x="87" y="87"/>
      <point x="56" y="87" type="curve" smooth="yes"/>
      <point x="27" y="87" type="line"/>
      <point x="27" y="0" type="line"/>
    </contour>
    <contour>
      <point x="385" y="560" type="line"/>
      <point x="388" y="560" type="line"/>
      <point x="388" y="276" type="line"/>
      <point x="294" y="276" type="line"/>
    </contour>
  </outline>
</glyph>
<glyph name="Ccedilla" format="1">
  <advance width="603"/>
  <unicode hex="00C7"/>
  <note>
	Ccedilla
  </note>
  <outline>
    <contour>
      <point x="434" y="-228"/>
      <point x="479" y="-192"/>
      <point x="479" y="-130" type="curve" smooth="yes"/>
      <point x="479" y="-82"/>
      <point x="456" y="-53"/>
      <point x="400" y="-43" type="curve"/>
      <point x="405" y="-14" type="line"/>
      <point x="472" y="-10"/>
      <point x="520" y="5"/>
      <point x="576" y="42" type="curve"/>
      <point x="529" y="116" type="line"/>
      <point x="479" y="83"/>
      <point x="432" y="73"/>
      <point x="371" y="73" type="curve" smooth="yes"/>
      <point x="233" y="73"/>
      <point x="156" y="164"/>
      <point x="156" y="319" type="curve" smooth="yes"/>
      <point x="156" y="478"/>
      <point x="225" y="574"/>
      <point x="350" y="574" type="curve" smooth="yes"/>
      <point x="386" y="574"/>
      <point x="418" y="568"/>
      <point x="443" y="558" type="curve"/>
      <point x="443" y="489" type="line"/>
      <point x="574" y="489" type="line"/>
      <point x="574" y="603" type="line"/>
      <point x="519" y="644"/>
      <point x="450" y="662"/>
      <point x="350" y="662" type="curve" smooth="yes"/>
      <point x="127" y="662"/>
      <point x="27" y="514"/>
      <point x="27" y="319" type="curve" smooth="yes"/>
      <point x="27" y="148"/>
      <point x="114" y="20"/>
      <point x="286" y="-8" type="curve"/>
      <point x="275" y="-80" type="line"/>
      <point x="351" y="-80"/>
      <point x="367" y="-95"/>
      <point x="367" y="-125" type="curve" smooth="yes"/>
      <point x="367" y="-144"/>
      <point x="353" y="-155"/>
      <point x="319" y="-155" type="curve" smooth="yes"/>
      <point x="297" y="-155"/>
      <point x="269" y="-150"/>
      <point x="247" y="-140" type="curve"/>
      <point x="247" y="-213" type="line"/>
      <point x="274" y="-224"/>
      <point x="300" y="-228"/>
      <point x="333" y="-228" type="curve" smooth="yes"/>
    </contour>
  </outline>
</glyph>
<glyph name="Ecircumflex" format="1">
  <advance width="546"/>
  <unicode hex="00CA"/>
  <note>
	Ecircumflex
  </note>
  <outline>
    <contour>
      <point x="519" y="0" type="line"/>
      <point x="519" y="143" type="line"/>
      <point x="399" y="143" type="line"/>
      <point x="399" y="125" type="line" smooth="yes"/>
      <point x="399" y="99"/>
      <point x="387" y="87"/>
      <point x="360" y="87" type="curve" smooth="yes"/>
      <point x="224" y="87" type="line"/>
      <point x="224" y="280" type="line"/>
      <point x="378" y="280" type="line"/>
      <point x="378" y="368" type="line"/>
      <point x="224" y="368" type="line"/>
      <point x="224" y="560" type="line"/>
      <point x="360" y="560" type="line" smooth="yes"/>
      <point x="387" y="560"/>
      <point x="399" y="548"/>
      <point x="399" y="523" type="curve" smooth="yes"/>
      <point x="399" y="505" type="line"/>
      <point x="519" y="505" type="line"/>
      <point x="519" y="647" type="line"/>
      <point x="27" y="647" type="line"/>
      <point x="27" y="560" type="line"/>
      <point x="53" y="560" type="line" smooth="yes"/>
      <point x="81" y="560"/>
      <point x="92" y="548"/>
      <point x="92" y="523" type="curve" smooth="yes"/>
      <point x="92" y="126" type="line" smooth="yes"/>
      <point x="92" y="99"/>
      <point x="81" y="87"/>
      <point x="53" y="87" type="curve" smooth="yes"/>
      <point x="27" y="87" type="line"/>
      <point x="27" y="0" type="line"/>
    </contour>
    <contour>
      <point x="197" y="700" type="line"/>
      <point x="267" y="820" type="line"/>
      <point x="337" y="700" type="line"/>
      <point x="458" y="700" type="line"/>
      <point x="328" y="893" type="line"/>
      <point x="208" y="893" type="line"/>
      <point x="77" y="700" type="line"/>
    </contour>
  </outline>
</glyph>
<glyph name="Icircumflex" format="1">
  <advance width="313"/>
  <unicode hex="00CE"/>
  <note>
	Icircumflex
  </note>
  <outline>
    <contour>
      <point x="286" y="0" type="line"/>
      <point x="286" y="87" type="line"/>
      <point x="260" y="87" type="line" smooth="yes"/>
      <point x="233" y="87"/>
      <point x="223" y="99"/>
      <point x="223" y="124" type="curve" smooth="yes"/>
      <point x="223" y="523" type="line" smooth="yes"/>
      <point x="223" y="548"/>
      <point x="233" y="560"/>
      <point x="260" y="560" type="curve" smooth="yes"/>
      <point x="286" y="560" type="line"/>
      <point x="286" y="647" type="line"/>
      <point x="27" y="647" type="line"/>
      <point x="27" y="560" type="line"/>
      <point x="53" y="560" type="line" smooth="yes"/>
      <point x="81" y="560"/>
      <point x="92" y="548"/>
      <point x="92" y="523" type="curve" smooth="yes"/>
      <point x="92" y="126" type="line" smooth="yes"/>
      <point x="92" y="99"/>
      <point x="81" y="87"/>
      <point x="53" y="87" type="curve" smooth="yes"/>
      <point x="27" y="87" type="line"/>
      <point x="27" y="0" type="line"/>
    </contour>
    <contour>
      <point x="86" y="699" type="line"/>
      <point x="156" y="819" type="line"/>
      <point x="226" y="699" type="line"/>
      <point x="347" y="699" type="line"/>
      <point x="217" y="892" type="line"/>
      <point x="97" y="892" type="line"/>
      <point x="-34" y="699" type="line"/>
    </contour>
  </outline>
</glyph>
<glyph name="Eth" format="1">
  <advance width="631"/>
  <unicode hex="00D0"/>
  <note>
	Eth
  </note>
  <outline>
    <contour>
      <point x="327" y="0" type="line" smooth="yes"/>
      <point x="515" y="0"/>
      <point x="604" y="137"/>
      <point x="604" y="321" type="curve" smooth="yes"/>
      <point x="604" y="525"/>
      <point x="518" y="647"/>
      <point x="327" y="647" type="curve" smooth="yes"/>
      <point x="27" y="647" type="line"/>
      <point x="27" y="560" type="line"/>
      <point x="53" y="560" type="line" smooth="yes"/>
      <point x="81" y="560"/>
      <point x="92" y="548"/>
      <point x="92" y="523" type="curve" smooth="yes"/>
      <point x="92" y="367" type="line"/>
      <point x="27" y="367" type="line"/>
      <point x="27" y="278" type="line"/>
      <point x="92" y="278" type="line"/>
      <point x="92" y="126" type="line" smooth="yes"/>
      <point x="92" y="99"/>
      <point x="81" y="87"/>
      <point x="53" y="87" type="curve" smooth="yes"/>
      <point x="27" y="87" type="line"/>
      <point x="27" y="0" type="line"/>
    </contour>
    <contour>
      <point x="220" y="278" type="line"/>
      <point x="346" y="278" type="line"/>
      <point x="346" y="367" type="line"/>
      <point x="220" y="367" type="line"/>
      <point x="220" y="560" type="line"/>
      <point x="308" y="560" type="line" smooth="yes"/>
      <point x="433" y="560"/>
      <point x="475" y="476"/>
      <point x="475" y="321" type="curve" smooth="yes"/>
      <point x="475" y="170"/>
      <point x="432" y="87"/>
      <point x="308" y="87" type="curve" smooth="yes"/>
      <point x="220" y="87" type="line"/>
    </contour>
  </outline>
</glyph>
<glyph name="Ntilde" format="1">
  <advance width="693"/>
  <unicode hex="00D1"/>
  <note>
	Ntilde
  </note>
  <outline>
    <contour>
      <point x="287" y="0" type="line"/>
      <point x="287" y="87" type="line"/>
      <point x="261" y="87" type="line" smooth="yes"/>
      <point x="234" y="87"/>
      <point x="224" y="100"/>
      <point x="224" y="124" type="curve" smooth="yes"/>
      <point x="224" y="431" type="line"/>
      <point x="501" y="0" type="line"/>
      <point x="602" y="0" type="line"/>
      <point x="602" y="523" type="line" smooth="yes"/>
      <point x="602" y="548"/>
      <point x="613" y="560"/>
      <point x="639" y="560" type="curve" smooth="yes"/>
      <point x="666" y="560" type="line"/>
      <point x="666" y="647" type="line"/>
      <point x="405" y="647" type="line"/>
      <point x="405" y="560" type="line"/>
      <point x="432" y="560" type="line" smooth="yes"/>
      <point x="459" y="560"/>
      <point x="471" y="548"/>
      <point x="471" y="523" type="curve" smooth="yes"/>
      <point x="471" y="214" type="line"/>
      <point x="192" y="647" type="line"/>
      <point x="27" y="647" type="line"/>
      <point x="27" y="560" type="line"/>
      <point x="53" y="560" type="line" smooth="yes"/>
      <point x="81" y="560"/>
      <point x="92" y="548"/>
      <point x="92" y="523" type="curve" smooth="yes"/>
      <point x="92" y="124" type="line" smooth="yes"/>
      <point x="92" y="100"/>
      <point x="81" y="87"/>
      <point x="53" y="87" type="curve" smooth="yes"/>
      <point x="27" y="87" type="line"/>
      <point x="27" y="0" type="line"/>
    </contour>
    <contour>
      <point x="227" y="700" type="line"/>
      <point x="227" y="737"/>
      <point x="243" y="750"/>
      <point x="272" y="750" type="curve" smooth="yes"/>
      <point x="320" y="750"/>
      <point x="355" y="700"/>
      <point x="429" y="700" type="curve" smooth="yes"/>
      <point x="509" y="700"/>
      <point x="543" y="746"/>
      <point x="543" y="853" type="curve"/>
      <point x="450" y="853" type="line"/>
      <point x="450" y="816"/>
      <point x="435" y="801"/>
      <point x="406" y="801" type="curve" smooth="yes"/>
      <point x="359" y="801"/>
      <point x="324" y="853"/>
      <point x="251" y="853" type="curve" smooth="yes"/>
      <point x="169" y="853"/>
      <point x="133" y="804"/>
      <point x="133" y="700" type="curve"/>
    </contour>
  </outline>
</glyph>
<glyph name="Oacute" format="1">
  <advance width="663"/>
  <unicode hex="00D3"/>
  <note>
	Oacute
  </note>
  <outline>
    <contour>
      <point x="538" y="-15"/>
      <point x="636" y="97"/>
      <point x="636" y="321" type="curve" smooth="yes"/>
      <point x="636" y="545"/>
      <point x="545" y="662"/>
      <point x="332" y="662" type="curve" smooth="yes"/>
      <point x="117" y="662"/>
      <point x="27" y="545"/>
      <point x="27" y="321" type="curve" smooth="yes"/>
      <point x="27" y="97"/>
      <point x="125" y="-15"/>
      <point x="332" y="-15" type="curve" smooth="yes"/>
    </contour>
    <contour>
      <point x="212" y="74"/>
      <point x="157" y="140"/>
      <point x="157" y="321" type="curve" smooth="yes"/>
      <point x="157" y="506"/>
      <point x="211" y="573"/>
      <point x="332" y="573" type="curve" smooth="yes"/>
      <point x="451" y="573"/>
      <point x="506" y="506"/>
      <point x="506" y="321" type="curve" smooth="yes"/>
      <point x="506" y="140"/>
      <point x="451" y="74"/>
      <point x="332" y="74" type="curve" smooth="yes"/>
    </contour>
    <contour>
      <point x="375" y="699" type="line"/>
      <point x="488" y="879" type="line"/>
      <point x="340" y="879" type="line"/>
      <point x="263" y="699" type="line"/>
    </contour>
  </outline>
</glyph>
<glyph name="Ocircumflex" format="1">
  <advance width="663"/>
  <unicode hex="00D4"/>
  <note>
	Ocircumflex
  </note>
  <outline>
    <contour>
      <point x="538" y="-15"/>
      <point x="636" y="97"/>
      <point x="636" y="321" type="curve" smooth="yes"/>
      <point x="636" y="545"/>
      <point x="545" y="662"/>
      <point x="332" y="662" type="curve" smooth="yes"/>
      <point x="117" y="662"/>
      <point x="27" y="545"/>
      <point x="27" y="321" type="curve" smooth="yes"/>
      <point x="27" y="97"/>
      <point x="125" y="-15"/>
      <point x="332" y="-15" type="curve" smooth="yes"/>
    </contour>
    <contour>
      <point x="212" y="74"/>
      <point x="157" y="140"/>
      <point x="157" y="321" type="curve" smooth="yes"/>
      <point x="157" y="506"/>
      <point x="211" y="573"/>
      <point x="332" y="573" type="curve" smooth="yes"/>
      <point x="451" y="573"/>
      <point x="506" y="506"/>
      <point x="506" y="321" type="curve" smooth="yes"/>
      <point x="506" y="140"/>
      <point x="451" y="74"/>
      <point x="332" y="74" type="curve" smooth="yes"/>
    </contour>
    <contour>
      <point x="261" y="700" type="line"/>
      <point x="331" y="820" type="line"/>
      <point x="401" y="700" type="line"/>
      <point x="522" y="700" type="line"/>
      <point x="392" y="893" type="line"/>
      <point x="272" y="893" type="line"/>
      <point x="141" y="700" type="line"/>
    </contour>
  </outline>
</glyph>
<glyph name="Otilde" format="1">
  <advance width="663"/>
  <unicode hex="00D5"/>
  <note>
	Otilde
  </note>
  <outline>
    <contour>
      <point x="538" y="-15"/>
      <point x="636" y="97"/>
      <point x="636" y="321" type="curve" smooth="yes"/>
      <point x="636" y="545"/>
      <point x="545" y="662"/>
      <point x="332" y="662" type="curve" smooth="yes"/>
      <point x="117" y="662"/>
      <point x="27" y="545"/>
      <point x="27" y="321" type="curve" smooth="yes"/>
      <point x="27" y="97"/>
      <point x="125" y="-15"/>
      <point x="332" y="-15" type="curve" smooth="yes"/>
    </contour>
    <contour>
      <point x="212" y="74"/>
      <point x="157" y="140"/>
      <point x="157" y="321" type="curve" smooth="yes"/>
      <point x="157" y="506"/>
      <point x="211" y="573"/>
      <point x="332" y="573" type="curve" smooth="yes"/>
      <point x="451" y="573"/>
      <point x="506" y="506"/>
      <point x="506" y="321" type="curve" smooth="yes"/>
      <point x="506" y="140"/>
      <point x="451" y="74"/>
      <point x="332" y="74" type="curve" smooth="yes"/>
    </contour>
    <contour>
      <point x="220" y="700" type="line"/>
      <point x="220" y="737"/>
      <point x="236" y="750"/>
      <point x="265" y="750" type="curve" smooth="yes"/>
      <point x="313" y="750"/>
      <point x="348" y="700"/>
      <point x="422" y="700" type="curve" smooth="yes"/>
      <point x="502" y="700"/>
      <point x="536" y="746"/>
      <point x="536" y="853" type="curve"/>
      <point x="443" y="853" type="line"/>
      <point x="443" y="816"/>
      <point x="428" y="801"/>
      <point x="399" y="801" type="curve" smooth="yes"/>
      <point x="352" y="801"/>
      <point x="317" y="853"/>
      <point x="244" y="853" type="curve" smooth="yes"/>
      <point x="162" y="853"/>
      <point x="126" y="804"/>
      <point x="126" y="700" type="curve"/>
    </contour>
  </outline>
</glyph>
<glyph name="multiply" format="1">
  <advance width="375"/>
  <unicode hex="00D7"/>
  <note>
	multiply
  </note>
  <outline>
    <contour>
      <point x="188" y="237" type="line"/>
      <point x="268" y="158" type="line"/>
      <point x="338" y="228" type="line"/>
      <point x="258" y="307" type="line"/>
      <point x="338" y="389" type="line"/>
      <point x="268" y="457" type="line"/>
      <point x="187" y="377" type="line"/>
      <point x="108" y="457" type="line"/>
      <point x="37" y="389" type="line"/>
      <point x="117" y="307" type="line"/>
      <point x="38" y="228" type="line"/>
      <point x="108" y="157" type="line"/>
    </contour>
  </outline>
</glyph>
<glyph name="Ucircumflex" format="1">
  <advance width="666"/>
  <unicode hex="00DB"/>
  <note>
	Ucircumflex
  </note>
  <outline>
    <contour>
      <point x="508" y="-15"/>
      <point x="589" y="66"/>
      <point x="589" y="185" type="curve" smooth="yes"/>
      <point x="589" y="524" type="line" smooth="yes"/>
      <point x="589" y="548"/>
      <point x="599" y="560"/>
      <point x="627" y="560" type="curve" smooth="yes"/>
      <point x="649" y="560" type="line"/>
      <point x="649" y="647" type="line"/>
      <point x="401" y="647" type="line"/>
      <point x="401" y="560" type="line"/>
      <point x="423" y="560" type="line" smooth="yes"/>
      <point x="451" y="560"/>
      <point x="461" y="548"/>
      <point x="461" y="524" type="curve" smooth="yes"/>
      <point x="461" y="179" type="line" smooth="yes"/>
      <point x="461" y="105"/>
      <point x="414" y="74"/>
      <point x="333" y="74" type="curve" smooth="yes"/>
      <point x="252" y="74"/>
      <point x="205" y="105"/>
      <point x="205" y="179" type="curve" smooth="yes"/>
      <point x="205" y="524" type="line" smooth="yes"/>
      <point x="205" y="548"/>
      <point x="215" y="560"/>
      <point x="243" y="560" type="curve" smooth="yes"/>
      <point x="265" y="560" type="line"/>
      <point x="265" y="647" type="line"/>
      <point x="17" y="647" type="line"/>
      <point x="17" y="560" type="line"/>
      <point x="39" y="560" type="line" smooth="yes"/>
      <point x="67" y="560"/>
      <point x="77" y="548"/>
      <point x="77" y="524" type="curve" smooth="yes"/>
      <point x="77" y="185" type="line" smooth="yes"/>
      <point x="77" y="66"/>
      <point x="157" y="-15"/>
      <point x="333" y="-15" type="curve" smooth="yes"/>
    </contour>
    <contour>
      <point x="263" y="700" type="line"/>
      <point x="333" y="820" type="line"/>
      <point x="403" y="700" type="line"/>
      <point x="524" y="700" type="line"/>
      <point x="394" y="893" type="line"/>
      <point x="274" y="893" type="line"/>
      <point x="143" y="700" type="line"/>
    </contour>
  </outline>
</glyph>
<glyph name="Udieresis" format="1">
  <advance width="686"/>
  <unicode hex="00DC"/>
  <note>
	Udieresis
  </note>
  <outline>
    <contour>
      <point x="518" y="-15"/>
      <point x="599" y="66"/>
      <point x="599" y="185" type="curve" smooth="yes"/>
      <point x="599" y="524" type="line" smooth="yes"/>
      <point x="599" y="548"/>
      <point x="609" y="560"/>
      <point x="637" y="560" type="curve" smooth="yes"/>
      <point x="659" y="560" type="line"/>
      <point x="659" y="647" type="line"/>
      <point x="411" y="647" type="line"/>
      <point x="411" y="560" type="line"/>
      <point x="433" y="560" type="line" smooth="yes"/>
      <point x="461" y="560"/>
      <point x="471" y="548"/>
      <point x="471" y="524" type="curve" smooth="yes"/>
      <point x="471" y="179" type="line" smooth="yes"/>
      <point x="471" y="105"/>
      <point x="424" y="74"/>
      <point x="343" y="74" type="curve" smooth="yes"/>
      <point x="262" y="74"/>
      <point x="215" y="105"/>
      <point x="215" y="179" type="curve" smooth="yes"/>
      <point x="215" y="524" type="line" smooth="yes"/>
      <point x="215" y="548"/>
      <point x="225" y="560"/>
      <point x="253" y="560" type="curve" smooth="yes"/>
      <point x="275" y="560" type="line"/>
      <point x="275" y="647" type="line"/>
      <point x="27" y="647" type="line"/>
      <point x="27" y="560" type="line"/>
      <point x="49" y="560" type="line" smooth="yes"/>
      <point x="77" y="560"/>
      <point x="87" y="548"/>
      <point x="87" y="524" type="curve" smooth="yes"/>
      <point x="87" y="185" type="line" smooth="yes"/>
      <point x="87" y="66"/>
      <point x="167" y="-15"/>
      <point x="343" y="-15" type="curve" smooth="yes"/>
    </contour>
    <contour>
      <point x="281" y="719" type="line"/>
      <point x="281" y="828" type="line"/>
      <point x="177" y="828" type="line"/>
      <point x="177" y="719" type="line"/>
    </contour>
    <contour>
      <point x="507" y="719" type="line"/>
      <point x="507" y="828" type="line"/>
      <point x="402" y="828" type="line"/>
      <point x="402" y="719" type="line"/>
    </contour>
  </outline>
</glyph>
<glyph name="Thorn" format="1">
  <advance width="626"/>
  <unicode hex="00DE"/>
  <note>
	Thorn
  </note>
  <outline>
    <contour>
      <point x="287" y="0" type="line"/>
      <point x="287" y="87" type="line"/>
      <point x="259" y="87" type="line" smooth="yes"/>
      <point x="230" y="87"/>
      <point x="220" y="101"/>
      <point x="220" y="124" type="curve" smooth="yes"/>
      <point x="220" y="145" type="line"/>
      <point x="374" y="145" type="line" smooth="yes"/>
      <point x="512" y="145"/>
      <point x="599" y="223"/>
      <point x="599" y="355" type="curve" smooth="yes"/>
      <point x="599" y="489"/>
      <point x="512" y="558"/>
      <point x="375" y="558" type="curve" smooth="yes"/>
      <point x="220" y="558" type="line"/>
      <point x="220" y="647" type="line"/>
      <point x="27" y="647" type="line"/>
      <point x="27" y="560" type="line"/>
      <point x="53" y="560" type="line" smooth="yes"/>
      <point x="82" y="560"/>
      <point x="92" y="546"/>
      <point x="92" y="523" type="curve" smooth="yes"/>
      <point x="92" y="124" type="line" smooth="yes"/>
      <point x="92" y="101"/>
      <point x="81" y="87"/>
      <point x="52" y="87" type="curve" smooth="yes"/>
      <point x="27" y="87" type="line"/>
      <point x="27" y="0" type="line"/>
    </contour>
    <contour>
      <point x="220" y="471" type="line"/>
      <point x="357" y="471" type="line" smooth="yes"/>
      <point x="434" y="471"/>
      <point x="470" y="442"/>
      <point x="470" y="355" type="curve" smooth="yes"/>
      <point x="470" y="272"/>
      <point x="433" y="232"/>
      <point x="357" y="232" type="curve" smooth="yes"/>
      <point x="220" y="232" type="line"/>
    </contour>
  </outline>
</glyph>
<glyph name="germandbls" format="1">
  <advance width="643"/>
  <unicode hex="00DF"/>
  <note>
	germandbls
  </note>
  <outline>
    <contour>
      <point x="551" y="-15"/>
      <point x="616" y="69"/>
      <point x="616" y="189" type="curve" smooth="yes"/>
      <point x="616" y="262"/>
      <point x="592" y="320"/>
      <point x="518" y="351" type="curve"/>
      <point x="577" y="377"/>
      <point x="602" y="446"/>
      <point x="602" y="511" type="curve" smooth="yes"/>
      <point x="602" y="627"/>
      <point x="523" y="712"/>
      <point x="345" y="712" type="curve" smooth="yes"/>
      <point x="170" y="712"/>
      <point x="93" y="622"/>
      <point x="93" y="498" type="curve" smooth="yes"/>
      <point x="93" y="126" type="line" smooth="yes"/>
      <point x="93" y="99"/>
      <point x="83" y="87"/>
      <point x="55" y="87" type="curve" smooth="yes"/>
      <point x="27" y="87" type="line"/>
      <point x="27" y="0" type="line"/>
      <point x="224" y="0" type="line"/>
      <point x="224" y="507" type="line" smooth="yes"/>
      <point x="224" y="591"/>
      <point x="273" y="623"/>
      <point x="347" y="623" type="curve" smooth="yes"/>
      <point x="427" y="623"/>
      <point x="471" y="590"/>
      <point x="471" y="511" type="curve" smooth="yes"/>
      <point x="471" y="437"/>
      <point x="443" y="397"/>
      <point x="364" y="397" type="curve" smooth="yes"/>
      <point x="315" y="397" type="line"/>
      <point x="315" y="307" type="line"/>
      <point x="370" y="307" type="line" smooth="yes"/>
      <point x="456" y="307"/>
      <point x="486" y="267"/>
      <point x="486" y="190" type="curve" smooth="yes"/>
      <point x="486" y="106"/>
      <point x="452" y="74"/>
      <point x="399" y="74" type="curve" smooth="yes"/>
      <point x="367" y="74"/>
      <point x="340" y="81"/>
      <point x="313" y="98" type="curve"/>
      <point x="271" y="19" type="line"/>
      <point x="310" y="-6"/>
      <point x="363" y="-15"/>
      <point x="408" y="-15" type="curve" smooth="yes"/>
    </contour>
  </outline>
</glyph>
<glyph name="aring" format="1">
  <advance width="525"/>
  <unicode hex="00E5"/>
  <note>
	aring
  </note>
  <outline>
    <contour>
      <point x="278" y="-15"/>
      <point x="325" y="5"/>
      <point x="371" y="60" type="curve"/>
      <point x="384" y="0" type="line"/>
      <point x="508" y="0" type="line"/>
      <point x="508" y="87" type="line"/>
      <point x="489" y="87" type="line" smooth="yes"/>
      <point x="467" y="87"/>
      <point x="457" y="98"/>
      <point x="457" y="124" type="curve" smooth="yes"/>
      <point x="457" y="323" type="line" smooth="yes"/>
      <point x="457" y="424"/>
      <point x="401" y="495"/>
      <point x="255" y="495" type="curve" smooth="yes"/>
      <point x="178" y="495"/>
      <point x="113" y="474"/>
      <point x="60" y="441" type="curve"/>
      <point x="60" y="349" type="line"/>
      <point x="173" y="349" type="line"/>
      <point x="173" y="388" type="line"/>
      <point x="196" y="401"/>
      <point x="222" y="406"/>
      <point x="251" y="406" type="curve" smooth="yes"/>
      <point x="305" y="406"/>
      <point x="325" y="386"/>
      <point x="325" y="336" type="curve" smooth="yes"/>
      <point x="325" y="277" type="line"/>
      <point x="202" y="269" type="line" smooth="yes"/>
      <point x="87" y="262"/>
      <point x="17" y="221"/>
      <point x="17" y="120" type="curve" smooth="yes"/>
      <point x="17" y="35"/>
      <point x="73" y="-15"/>
      <point x="185" y="-15" type="curve" smooth="yes"/>
    </contour>
    <contour>
      <point x="161" y="70"/>
      <point x="140" y="92"/>
      <point x="140" y="129" type="curve" smooth="yes"/>
      <point x="140" y="172"/>
      <point x="157" y="190"/>
      <point x="214" y="194" type="curve" smooth="yes"/>
      <point x="325" y="202" type="line"/>
      <point x="325" y="161" type="line" smooth="yes"/>
      <point x="325" y="99"/>
      <point x="282" y="70"/>
      <point x="215" y="70" type="curve" smooth="yes"/>
    </contour>
    <contour>
      <point x="324" y="524"/>
      <point x="376" y="575"/>
      <point x="376" y="640" type="curve" smooth="yes"/>
      <point x="376" y="704"/>
      <point x="324" y="756"/>
      <point x="259" y="756" type="curve" smooth="yes"/>
      <point x="194" y="756"/>
      <point x="143" y="704"/>
      <point x="143" y="640" type="curve" smooth="yes"/>
      <point x="143" y="575"/>
      <point x="194" y="524"/>
      <point x="259" y="524" type="curve" smooth="yes"/>
    </contour>
    <contour>
      <point x="232" y="592"/>
      <point x="212" y="613"/>
      <point x="212" y="640" type="curve" smooth="yes"/>
      <point x="212" y="666"/>
      <point x="232" y="688"/>
      <point x="259" y="688" type="curve" smooth="yes"/>
      <point x="286" y="688"/>
      <point x="306" y="666"/>
      <point x="306" y="640" type="curve" smooth="yes"/>
      <point x="306" y="613"/>
      <point x="286" y="592"/>
      <point x="259" y="592" type="curve" smooth="yes"/>
    </contour>
  </outline>
</glyph>
<glyph name="ccedilla" format="1">
  <advance width="520"/>
  <unicode hex="00E7"/>
  <note>
	ccedilla
  </note>
  <outline>
    <contour>
      <point x="378" y="-228"/>
      <point x="423" y="-192"/>
      <point x="423" y="-130" type="curve" smooth="yes"/>
      <point x="423" y="-82"/>
      <point x="400" y="-53"/>
      <point x="344" y="-43" type="curve"/>
      <point x="349" y="-12" type="line"/>
      <point x="408" y="-6"/>
      <point x="448" y="10"/>
      <point x="493" y="42" type="curve"/>
      <point x="449" y="114" type="line"/>
      <point x="412" y="89"/>
      <point x="371" y="79"/>
      <point x="314" y="79" type="curve" smooth="yes"/>
      <point x="224" y="79"/>
      <point x="158" y="123"/>
      <point x="158" y="235" type="curve" smooth="yes"/>
      <point x="158" y="354"/>
      <point x="216" y="402"/>
      <point x="289" y="402" type="curve" smooth="yes"/>
      <point x="329" y="402"/>
      <point x="352" y="396"/>
      <point x="377" y="382" type="curve"/>
      <point x="377" y="327" type="line"/>
      <point x="490" y="327" type="line"/>
      <point x="490" y="432" type="line"/>
      <point x="435" y="474"/>
      <point x="383" y="495"/>
      <point x="289" y="495" type="curve" smooth="yes"/>
      <point x="129" y="495"/>
      <point x="27" y="408"/>
      <point x="27" y="235" type="curve" smooth="yes"/>
      <point x="27" y="94"/>
      <point x="114" y="11"/>
      <point x="230" y="-9" type="curve"/>
      <point x="219" y="-80" type="line"/>
      <point x="295" y="-80"/>
      <point x="311" y="-95"/>
      <point x="311" y="-125" type="curve" smooth="yes"/>
      <point x="311" y="-144"/>
      <point x="297" y="-155"/>
      <point x="263" y="-155" type="curve" smooth="yes"/>
      <point x="241" y="-155"/>
      <point x="213" y="-150"/>
      <point x="191" y="-140" type="curve"/>
      <point x="191" y="-213" type="line"/>
      <point x="218" y="-224"/>
      <point x="244" y="-228"/>
      <point x="277" y="-228" type="curve" smooth="yes"/>
    </contour>
  </outline>
</glyph>
<glyph name="eacute" format="1">
  <advance width="541"/>
  <unicode hex="00E9"/>
  <note>
	eacute
  </note>
  <outline>
    <contour>
      <point x="379" y="-15"/>
      <point x="447" y="7"/>
      <point x="497" y="49" type="curve"/>
      <point x="497" y="125" type="line"/>
      <point x="384" y="125" type="line"/>
      <point x="384" y="90" type="line"/>
      <point x="356" y="78"/>
      <point x="327" y="74"/>
      <point x="285" y="74" type="curve" smooth="yes"/>
      <point x="205" y="74"/>
      <point x="157" y="112"/>
      <point x="157" y="209" type="curve"/>
      <point x="514" y="209" type="line"/>
      <point x="514" y="256" type="line" smooth="yes"/>
      <point x="514" y="397"/>
      <point x="437" y="495"/>
      <point x="277" y="495" type="curve" smooth="yes"/>
      <point x="120" y="495"/>
      <point x="27" y="412"/>
      <point x="27" y="235" type="curve" smooth="yes"/>
      <point x="27" y="66"/>
      <point x="129" y="-15"/>
      <point x="284" y="-15" type="curve" smooth="yes"/>
    </contour>
    <contour>
      <point x="157" y="362"/>
      <point x="198" y="406"/>
      <point x="275" y="406" type="curve" smooth="yes"/>
      <point x="349" y="406"/>
      <point x="384" y="366"/>
      <point x="384" y="284" type="curve"/>
      <point x="157" y="284" type="line"/>
    </contour>
    <contour>
      <point x="333" y="524" type="line"/>
      <point x="446" y="704" type="line"/>
      <point x="298" y="704" type="line"/>
      <point x="221" y="524" type="line"/>
    </contour>
  </outline>
</glyph>
<glyph name="ecircumflex" format="1">
  <advance width="541"/>
  <unicode hex="00EA"/>
  <note>
	ecircumflex
  </note>
  <outline>
    <contour>
      <point x="379" y="-15"/>
      <point x="447" y="7"/>
      <point x="497" y="49" type="curve"/>
      <point x="497" y="125" type="line"/>
      <point x="384" y="125" type="line"/>
      <point x="384" y="90" type="line"/>
      <point x="356" y="78"/>
      <point x="327" y="74"/>
      <point x="285" y="74" type="curve" smooth="yes"/>
      <point x="205" y="74"/>
      <point x="157" y="112"/>
      <point x="157" y="209" type="curve"/>
      <point x="514" y="209" type="line"/>
      <point x="514" y="256" type="line" smooth="yes"/>
      <point x="514" y="397"/>
      <point x="437" y="495"/>
      <point x="277" y="495" type="curve" smooth="yes"/>
      <point x="120" y="495"/>
      <point x="27" y="412"/>
      <point x="27" y="235" type="curve" smooth="yes"/>
      <point x="27" y="66"/>
      <point x="129" y="-15"/>
      <point x="284" y="-15" type="curve" smooth="yes"/>
    </contour>
    <contour>
      <point x="157" y="362"/>
      <point x="198" y="406"/>
      <point x="275" y="406" type="curve" smooth="yes"/>
      <point x="349" y="406"/>
      <point x="384" y="366"/>
      <point x="384" y="284" type="curve"/>
      <point x="157" y="284" type="line"/>
    </contour>
    <contour>
      <point x="209" y="523" type="line"/>
      <point x="279" y="643" type="line"/>
      <point x="349" y="523" type="line"/>
      <point x="470" y="523" type="line"/>
      <point x="340" y="716" type="line"/>
      <point x="220" y="716" type="line"/>
      <point x="89" y="523" type="line"/>
    </contour>
  </outline>
</glyph>
<glyph name="iacute" format="1">
  <advance width="293"/>
  <unicode hex="00ED"/>
  <note>
	iacute
  </note>
  <outline>
    <contour>
      <point x="276" y="0" type="line"/>
      <point x="276" y="87" type="line"/>
      <point x="250" y="87" type="line" smooth="yes"/>
      <point x="223" y="87"/>
      <point x="213" y="99"/>
      <point x="213" y="124" type="curve" smooth="yes"/>
      <point x="213" y="480" type="line"/>
      <point x="17" y="480" type="line"/>
      <point x="17" y="393" type="line"/>
      <point x="45" y="393" type="line" smooth="yes"/>
      <point x="76" y="393"/>
      <point x="82" y="378"/>
      <point x="82" y="351" type="curve" smooth="yes"/>
      <point x="82" y="126" type="line" smooth="yes"/>
      <point x="82" y="99"/>
      <point x="71" y="87"/>
      <point x="43" y="87" type="curve" smooth="yes"/>
      <point x="17" y="87" type="line"/>
      <point x="17" y="0" type="line"/>
    </contour>
    <contour>
      <point x="179" y="521" type="line"/>
      <point x="292" y="701" type="line"/>
      <point x="144" y="701" type="line"/>
      <point x="67" y="521" type="line"/>
    </contour>
  </outline>
</glyph>
<glyph name="icircumflex" format="1">
  <advance width="293"/>
  <unicode hex="00EE"/>
  <note>
	icircumflex
  </note>
  <outline>
    <contour>
      <point x="276" y="0" type="line"/>
      <point x="276" y="87" type="line"/>
      <point x="250" y="87" type="line" smooth="yes"/>
      <point x="223" y="87"/>
      <point x="213" y="99"/>
      <point x="213" y="124" type="curve" smooth="yes"/>
      <point x="213" y="480" type="line"/>
      <point x="17" y="480" type="line"/>
      <point x="17" y="393" type="line"/>
      <point x="45" y="393" type="line" smooth="yes"/>
      <point x="76" y="393"/>
      <point x="82" y="378"/>
      <point x="82" y="351" type="curve" smooth="yes"/>
      <point x="82" y="126" type="line" smooth="yes"/>
      <point x="82" y="99"/>
      <point x="71" y="87"/>
      <point x="43" y="87" type="curve" smooth="yes"/>
      <point x="17" y="87" type="line"/>
      <point x="17" y="0" type="line"/>
    </contour>
    <contour>
      <point x="65" y="508" type="line"/>
      <point x="135" y="628" type="line"/>
      <point x="205" y="508" type="line"/>
      <point x="326" y="508" type="line"/>
      <point x="196" y="701" type="line"/>
      <point x="76" y="701" type="line"/>
      <point x="-55" y="508" type="line"/>
    </contour>
  </outline>
</glyph>
<glyph name="eth" format="1">
  <advance width="583"/>
  <unicode hex="00F0"/>
  <note>
	eth
  </note>
  <outline>
    <contour>
      <point x="469" y="-15"/>
      <point x="556" y="138"/>
      <point x="556" y="367" type="curve" smooth="yes"/>
      <point x="556" y="484"/>
      <point x="530" y="556"/>
      <point x="486" y="601" type="curve"/>
      <point x="536" y="629" type="line"/>
      <point x="525" y="675" type="line"/>
      <point x="448" y="631" type="line"/>
      <point x="411" y="653"/>
      <point x="366" y="662"/>
      <point x="322" y="662" type="curve" smooth="yes"/>
      <point x="250" y="662"/>
      <point x="181" y="647"/>
      <point x="127" y="615" type="curve"/>
      <point x="154" y="535" type="line"/>
      <point x="192" y="557"/>
      <point x="230" y="567"/>
      <point x="273" y="571" type="curve" smooth="yes"/>
      <point x="296" y="573"/>
      <point x="322" y="573"/>
      <point x="342" y="569" type="curve"/>
      <point x="286" y="538" type="line"/>
      <point x="297" y="494" type="line"/>
      <point x="385" y="543" type="line"/>
      <point x="411" y="518"/>
      <point x="424" y="483"/>
      <point x="425" y="425" type="curve"/>
      <point x="396" y="458"/>
      <point x="351" y="474"/>
      <point x="300" y="474" type="curve" smooth="yes"/>
      <point x="140" y="474"/>
      <point x="34" y="378"/>
      <point x="28" y="222" type="curve" smooth="yes"/>
      <point x="20" y="53"/>
      <point x="120" y="-15"/>
      <point x="264" y="-15" type="curve" smooth="yes"/>
    </contour>
    <contour>
      <point x="174" y="73"/>
      <point x="152" y="121"/>
      <point x="158" y="210" type="curve" smooth="yes"/>
      <point x="163" y="321"/>
      <point x="208" y="385"/>
      <point x="306" y="385" type="curve" smooth="yes"/>
      <point x="370" y="385"/>
      <point x="417" y="353"/>
      <point x="413" y="264" type="curve" smooth="yes"/>
      <point x="407" y="133"/>
      <point x="353" y="73"/>
      <point x="269" y="73" type="curve" smooth="yes"/>
    </contour>
  </outline>
</glyph>
<glyph name="ntilde" format="1">
  <advance width="597"/>
  <unicode hex="00F1"/>
  <note>
	ntilde
  </note>
  <outline>
    <contour>
      <point x="276" y="0" type="line"/>
      <point x="276" y="87" type="line"/>
      <point x="250" y="87" type="line" smooth="yes"/>
      <point x="223" y="87"/>
      <point x="213" y="99"/>
      <point x="213" y="124" type="curve" smooth="yes"/>
      <point x="213" y="317" type="line" smooth="yes"/>
      <point x="213" y="378"/>
      <point x="254" y="410"/>
      <point x="309" y="410" type="curve" smooth="yes"/>
      <point x="363" y="410"/>
      <point x="386" y="386"/>
      <point x="386" y="327" type="curve" smooth="yes"/>
      <point x="386" y="0" type="line"/>
      <point x="580" y="0" type="line"/>
      <point x="580" y="87" type="line"/>
      <point x="554" y="87" type="line" smooth="yes"/>
      <point x="527" y="87"/>
      <point x="517" y="99"/>
      <point x="517" y="124" type="curve" smooth="yes"/>
      <point x="517" y="328" type="line" smooth="yes"/>
      <point x="517" y="434"/>
      <point x="470" y="495"/>
      <point x="355" y="495" type="curve" smooth="yes"/>
      <point x="273" y="495"/>
      <point x="216" y="469"/>
      <point x="172" y="414" type="curve"/>
      <point x="166" y="480" type="line"/>
      <point x="17" y="480" type="line"/>
      <point x="17" y="393" type="line"/>
      <point x="45" y="393" type="line" smooth="yes"/>
      <point x="72" y="393"/>
      <point x="82" y="381"/>
      <point x="82" y="356" type="curve" smooth="yes"/>
      <point x="82" y="126" type="line" smooth="yes"/>
      <point x="82" y="99"/>
      <point x="71" y="87"/>
      <point x="43" y="87" type="curve" smooth="yes"/>
      <point x="17" y="87" type="line"/>
      <point x="17" y="0" type="line"/>
    </contour>
    <contour>
      <point x="177" y="524" type="line"/>
      <point x="177" y="561"/>
      <point x="193" y="574"/>
      <point x="222" y="574" type="curve" smooth="yes"/>
      <point x="270" y="574"/>
      <point x="305" y="524"/>
      <point x="379" y="524" type="curve" smooth="yes"/>
      <point x="459" y="524"/>
      <point x="493" y="570"/>
      <point x="493" y="677" type="curve"/>
      <point x="400" y="677" type="line"/>
      <point x="400" y="640"/>
      <point x="385" y="625"/>
      <point x="356" y="625" type="curve" smooth="yes"/>
      <point x="309" y="625"/>
      <point x="274" y="677"/>
      <point x="201" y="677" type="curve" smooth="yes"/>
      <point x="119" y="677"/>
      <point x="83" y="628"/>
      <point x="83" y="524" type="curve"/>
    </contour>
  </outline>
</glyph>
<glyph name="ograve" format="1">
  <advance width="558"/>
  <unicode hex="00F2"/>
  <note>
	ograve
  </note>
  <outline>
    <contour>
      <point x="444" y="-15"/>
      <point x="531" y="78"/>
      <point x="531" y="239" type="curve" smooth="yes"/>
      <point x="531" y="400"/>
      <point x="448" y="495"/>
      <point x="279" y="495" type="curve" smooth="yes"/>
      <point x="111" y="495"/>
      <point x="27" y="400"/>
      <point x="27" y="239" type="curve" smooth="yes"/>
      <point x="27" y="78"/>
      <point x="114" y="-15"/>
      <point x="279" y="-15" type="curve" smooth="yes"/>
    </contour>
    <contour>
      <point x="195" y="74"/>
      <point x="157" y="126"/>
      <point x="157" y="239" type="curve" smooth="yes"/>
      <point x="157" y="354"/>
      <point x="195" y="406"/>
      <point x="279" y="406" type="curve" smooth="yes"/>
      <point x="363" y="406"/>
      <point x="401" y="354"/>
      <point x="401" y="239" type="curve" smooth="yes"/>
      <point x="401" y="126"/>
      <point x="363" y="74"/>
      <point x="279" y="74" type="curve" smooth="yes"/>
    </contour>
    <contour>
      <point x="340" y="524" type="line"/>
      <point x="262" y="704" type="line"/>
      <point x="113" y="704" type="line"/>
      <point x="226" y="524" type="line"/>
    </contour>
  </outline>
</glyph>
<glyph name="otilde" format="1">
  <advance width="558"/>
  <unicode hex="00F5"/>
  <note>
	otilde
  </note>
  <outline>
    <contour>
      <point x="444" y="-15"/>
      <point x="531" y="78"/>
      <point x="531" y="239" type="curve" smooth="yes"/>
      <point x="531" y="400"/>
      <point x="448" y="495"/>
      <point x="279" y="495" type="curve" smooth="yes"/>
      <point x="111" y="495"/>
      <point x="27" y="400"/>
      <point x="27" y="239" type="curve" smooth="yes"/>
      <point x="27" y="78"/>
      <point x="114" y="-15"/>
      <point x="279" y="-15" type="curve" smooth="yes"/>
    </contour>
    <contour>
      <point x="195" y="74"/>
      <point x="157" y="126"/>
      <point x="157" y="239" type="curve" smooth="yes"/>
      <point x="157" y="354"/>
      <point x="195" y="406"/>
      <point x="279" y="406" type="curve" smooth="yes"/>
      <point x="363" y="406"/>
      <point x="401" y="354"/>
      <point x="401" y="239" type="curve" smooth="yes"/>
      <point x="401" y="126"/>
      <point x="363" y="74"/>
      <point x="279" y="74" type="curve" smooth="yes"/>
    </contour>
    <contour>
      <point x="168" y="524" type="line"/>
      <point x="168" y="561"/>
      <point x="184" y="574"/>
      <point x="213" y="574" type="curve" smooth="yes"/>
      <point x="261" y="574"/>
      <point x="296" y="524"/>
      <point x="370" y="524" type="curve" smooth="yes"/>
      <point x="450" y="524"/>
      <point x="484" y="570"/>
      <point x="484" y="677" type="curve"/>
      <point x="391" y="677" type="line"/>
      <point x="391" y="640"/>
      <point x="376" y="625"/>
      <point x="347" y="625" type="curve" smooth="yes"/>
      <point x="300" y="625"/>
      <point x="265" y="677"/>
      <point x="192" y="677" type="curve" smooth="yes"/>
      <point x="110" y="677"/>
      <point x="74" y="628"/>
      <point x="74" y="524" type="curve"/>
    </contour>
  </outline>
</glyph>
<glyph name="divide" format="1">
  <advance width="413"/>
  <unicode hex="00F7"/>
  <note>
	divide
  </note>
  <outline>
    <contour>
      <point x="376" y="267" type="line"/>
      <point x="376" y="348" type="line"/>
      <point x="37" y="348" type="line"/>
      <point x="37" y="267" type="line"/>
    </contour>
    <contour>
      <point x="250" y="146" type="line"/>
      <point x="250" y="231" type="line"/>
      <point x="162" y="231" type="line"/>
      <point x="162" y="146" type="line"/>
    </contour>
    <contour>
      <point x="250" y="385" type="line"/>
      <point x="250" y="469" type="line"/>
      <point x="162" y="469" type="line"/>
      <point x="162" y="385" type="line"/>
    </contour>
  </outline>
</glyph>
<glyph name="oslash" format="1">
  <advance width="558"/>
  <unicode hex="00F8"/>
  <note>
	oslash
  </note>
  <outline>
    <contour>
      <point x="203" y="-52" type="line"/>
      <point x="218" y="-10" type="line"/>
      <point x="238" y="-13"/>
      <point x="258" y="-15"/>
      <point x="279" y="-15" type="curve" smooth="yes"/>
      <point x="444" y="-15"/>
      <point x="531" y="78"/>
      <point x="531" y="239" type="curve" smooth="yes"/>
      <point x="531" y="358"/>
      <point x="486" y="441"/>
      <point x="394" y="476" type="curve"/>
      <point x="415" y="535" type="line"/>
      <point x="360" y="535" type="line"/>
      <point x="344" y="489" type="line"/>
      <point x="324" y="492"/>
      <point x="303" y="495"/>
      <point x="279" y="495" type="curve" smooth="yes"/>
      <point x="111" y="495"/>
      <point x="27" y="400"/>
      <point x="27" y="239" type="curve" smooth="yes"/>
      <point x="27" y="120"/>
      <point x="75" y="36"/>
      <point x="168" y="2" type="curve"/>
      <point x="147" y="-52" type="line"/>
    </contour>
    <contour>
      <point x="174" y="128"/>
      <point x="157" y="172"/>
      <point x="157" y="239" type="curve" smooth="yes"/>
      <point x="157" y="354"/>
      <point x="195" y="406"/>
      <point x="279" y="406" type="curve" smooth="yes"/>
      <point x="291" y="406"/>
      <point x="302" y="404"/>
      <point x="312" y="402" type="curve"/>
      <point x="203" y="103" type="line"/>
    </contour>
    <contour>
      <point x="268" y="74"/>
      <point x="258" y="75"/>
      <point x="249" y="77" type="curve"/>
      <point x="357" y="374" type="line"/>
      <point x="386" y="348"/>
      <point x="401" y="304"/>
      <point x="401" y="239" type="curve" smooth="yes"/>
      <point x="401" y="126"/>
      <point x="363" y="74"/>
      <point x="279" y="74" type="curve" smooth="yes"/>
    </contour>
  </outline>
</glyph>
<glyph name="yacute" format="1">
  <advance width="575"/>
  <unicode hex="00FD"/>
  <note>
	yacute
  </note>
  <outline>
    <contour>
      <point x="447" y="-200"/>
      <point x="528" y="-114"/>
      <point x="528" y="16" type="curve" smooth="yes"/>
      <point x="528" y="480" type="line"/>
      <point x="330" y="480" type="line"/>
      <point x="330" y="393" type="line"/>
      <point x="356" y="393" type="line" smooth="yes"/>
      <point x="383" y="393"/>
      <point x="394" y="380"/>
      <point x="394" y="356" type="curve" smooth="yes"/>
      <point x="394" y="187" type="line" smooth="yes"/>
      <point x="394" y="123"/>
      <point x="357" y="90"/>
      <point x="299" y="90" type="curve" smooth="yes"/>
      <point x="243" y="90"/>
      <point x="214" y="116"/>
      <point x="214" y="173" type="curve" smooth="yes"/>
      <point x="214" y="480" type="line"/>
      <point x="17" y="480" type="line"/>
      <point x="17" y="393" type="line"/>
      <point x="43" y="393" type="line" smooth="yes"/>
      <point x="70" y="393"/>
      <point x="81" y="380"/>
      <point x="81" y="356" type="curve" smooth="yes"/>
      <point x="81" y="178" type="line" smooth="yes"/>
      <point x="81" y="68"/>
      <point x="154" y="5"/>
      <point x="274" y="5" type="curve" smooth="yes"/>
      <point x="323" y="5"/>
      <point x="366" y="18"/>
      <point x="403" y="47" type="curve"/>
      <point x="403" y="-7" type="line" smooth="yes"/>
      <point x="403" y="-81"/>
      <point x="371" y="-115"/>
      <point x="311" y="-115" type="curve" smooth="yes"/>
      <point x="273" y="-115"/>
      <point x="245" y="-110"/>
      <point x="224" y="-90" type="curve"/>
      <point x="224" y="-55" type="line"/>
      <point x="111" y="-55" type="line"/>
      <point x="111" y="-130" type="line"/>
      <point x="158" y="-174"/>
      <point x="228" y="-200"/>
      <point x="315" y="-200" type="curve" smooth="yes"/>
    </contour>
    <contour>
      <point x="329" y="524" type="line"/>
      <point x="442" y="704" type="line"/>
      <point x="294" y="704" type="line"/>
      <point x="217" y="524" type="line"/>
    </contour>
  </outline>
</glyph>
<glyph name="thorn" format="1">
  <advance width="623"/>
  <unicode hex="00FE"/>
  <note>
	thorn
  </note>
  <outline>
    <contour>
      <point x="286" y="-208" type="line"/>
      <point x="286" y="-121" type="line"/>
      <point x="260" y="-121" type="line" smooth="yes"/>
      <point x="233" y="-121"/>
      <point x="223" y="-109"/>
      <point x="223" y="-84" type="curve" smooth="yes"/>
      <point x="223" y="46" type="line"/>
      <point x="266" y="2"/>
      <point x="310" y="-15"/>
      <point x="379" y="-15" type="curve" smooth="yes"/>
      <point x="518" y="-15"/>
      <point x="596" y="79"/>
      <point x="596" y="244" type="curve" smooth="yes"/>
      <point x="596" y="410"/>
      <point x="510" y="495"/>
      <point x="377" y="495" type="curve" smooth="yes"/>
      <point x="304" y="495"/>
      <point x="263" y="480"/>
      <point x="223" y="439" type="curve"/>
      <point x="223" y="662" type="line"/>
      <point x="37" y="662" type="line"/>
      <point x="37" y="575" type="line"/>
      <point x="54" y="575" type="line" smooth="yes"/>
      <point x="81" y="575"/>
      <point x="92" y="562"/>
      <point x="92" y="536" type="curve" smooth="yes"/>
      <point x="92" y="-82" type="line" smooth="yes"/>
      <point x="92" y="-109"/>
      <point x="81" y="-121"/>
      <point x="53" y="-121" type="curve" smooth="yes"/>
      <point x="27" y="-121" type="line"/>
      <point x="27" y="-208" type="line"/>
    </contour>
    <contour>
      <point x="277" y="67"/>
      <point x="223" y="121"/>
      <point x="223" y="211" type="curve" smooth="yes"/>
      <point x="223" y="267" type="line" smooth="yes"/>
      <point x="223" y="350"/>
      <point x="274" y="416"/>
      <point x="349" y="416" type="curve" smooth="yes"/>
      <point x="434" y="416"/>
      <point x="466" y="360"/>
      <point x="466" y="244" type="curve" smooth="yes"/>
      <point x="466" y="125"/>
      <point x="432" y="67"/>
      <point x="346" y="67" type="curve" smooth="yes"/>
    </contour>
  </outline>
</glyph>
<glyph name="Amacron" format="1">
  <advance width="717"/>
  <unicode hex="0100"/>
  <note>
	Amacron
  </note>
  <outline>
    <contour>
      <point x="277" y="0" type="line"/>
      <point x="277" y="87" type="line"/>
      <point x="231" y="87" type="line"/>
      <point x="268" y="197" type="line"/>
      <point x="450" y="197" type="line"/>
      <point x="486" y="87" type="line"/>
      <point x="440" y="87" type="line"/>
      <point x="440" y="0" type="line"/>
      <point x="690" y="0" type="line"/>
      <point x="690" y="87" type="line"/>
      <point x="662" y="87" type="line" smooth="yes"/>
      <point x="630" y="87"/>
      <point x="615" y="94"/>
      <point x="605" y="123" type="curve" smooth="yes"/>
      <point x="423" y="647" type="line"/>
      <point x="296" y="647" type="line"/>
      <point x="111" y="123" type="line" smooth="yes"/>
      <point x="101" y="94"/>
      <point x="87" y="87"/>
      <point x="56" y="87" type="curve" smooth="yes"/>
      <point x="27" y="87" type="line"/>
      <point x="27" y="0" type="line"/>
    </contour>
    <contour>
      <point x="360" y="476" type="line"/>
      <point x="428" y="269" type="line"/>
      <point x="290" y="269" type="line"/>
    </contour>
    <contour>
      <point x="510" y="720" type="line"/>
      <point x="510" y="801" type="line"/>
      <point x="211" y="801" type="line"/>
      <point x="211" y="720" type="line"/>
    </contour>
  </outline>
</glyph>
<glyph name="Aogonek" format="1">
  <advance width="717"/>
  <unicode hex="0104"/>
  <note>
	Aogonek
  </note>
  <outline>
    <contour>
      <point x="277" y="0" type="line"/>
      <point x="277" y="87" type="line"/>
      <point x="231" y="87" type="line"/>
      <point x="268" y="197" type="line"/>
      <point x="450" y="197" type="line"/>
      <point x="486" y="87" type="line"/>
      <point x="440" y="87" type="line"/>
      <point x="440" y="0" type="line"/>
      <point x="690" y="0" type="line"/>
      <point x="690" y="87" type="line"/>
      <point x="662" y="87" type="line" smooth="yes"/>
      <point x="630" y="87"/>
      <point x="615" y="94"/>
      <point x="605" y="123" type="curve" smooth="yes"/>
      <point x="423" y="647" type="line"/>
      <point x="296" y="647" type="line"/>
      <point x="111" y="123" type="line" smooth="yes"/>
      <point x="101" y="94"/>
      <point x="87" y="87"/>
      <point x="56" y="87" type="curve" smooth="yes"/>
      <point x="27" y="87" type="line"/>
      <point x="27" y="0" type="line"/>
    </contour>
    <contour>
      <point x="579" y="-213"/>
      <point x="605" y="-206"/>
      <point x="626" y="-191" type="curve"/>
      <point x="626" y="-117" type="line"/>
      <point x="613" y="-122"/>
      <point x="599" y="-125"/>
      <point x="587" y="-125" type="curve" smooth="yes"/>
      <point x="564" y="-125"/>
      <point x="553" y="-110"/>
      <point x="553" y="-83" type="curve" smooth="yes"/>
      <point x="553" y="-50"/>
      <point x="569" y="-26"/>
      <point x="602" y="0" type="curve"/>
      <point x="493" y="0" type="line"/>
      <point x="462" y="-26"/>
      <point x="441" y="-69"/>
      <point x="441" y="-113" type="curve" smooth="yes"/>
      <point x="441" y="-184"/>
      <point x="489" y="-213"/>
      <point x="546" y="-213" type="curve" smooth="yes"/>
    </contour>
    <contour>
      <point x="360" y="476" type="line"/>
      <point x="428" y="269" type="line"/>
      <point x="290" y="269" type="line"/>
    </contour>
  </outline>
</glyph>
<glyph name="aogonek" format="1">
  <advance width="525"/>
  <unicode hex="0105"/>
  <note>
	aogonek
  </note>
  <outline>
    <contour>
      <point x="278" y="-15"/>
      <point x="325" y="5"/>
      <point x="371" y="60" type="curve"/>
      <point x="384" y="0" type="line"/>
      <point x="508" y="0" type="line"/>
      <point x="508" y="87" type="line"/>
      <point x="489" y="87" type="line" smooth="yes"/>
      <point x="467" y="87"/>
      <point x="457" y="98"/>
      <point x="457" y="124" type="curve" smooth="yes"/>
      <point x="457" y="323" type="line" smooth="yes"/>
      <point x="457" y="424"/>
      <point x="401" y="495"/>
      <point x="255" y="495" type="curve" smooth="yes"/>
      <point x="178" y="495"/>
      <point x="113" y="474"/>
      <point x="60" y="441" type="curve"/>
      <point x="60" y="349" type="line"/>
      <point x="173" y="349" type="line"/>
      <point x="173" y="388" type="line"/>
      <point x="196" y="401"/>
      <point x="222" y="406"/>
      <point x="251" y="406" type="curve" smooth="yes"/>
      <point x="305" y="406"/>
      <point x="325" y="386"/>
      <point x="325" y="336" type="curve" smooth="yes"/>
      <point x="325" y="277" type="line"/>
      <point x="202" y="269" type="line" smooth="yes"/>
      <point x="87" y="262"/>
      <point x="17" y="221"/>
      <point x="17" y="120" type="curve" smooth="yes"/>
      <point x="17" y="35"/>
      <point x="73" y="-15"/>
      <point x="185" y="-15" type="curve" smooth="yes"/>
    </contour>
    <contour>
      <point x="471" y="-213"/>
      <point x="497" y="-206"/>
      <point x="518" y="-191" type="curve"/>
      <point x="518" y="-117" type="line"/>
      <point x="505" y="-122"/>
      <point x="491" y="-125"/>
      <point x="479" y="-125" type="curve" smooth="yes"/>
      <point x="456" y="-125"/>
      <point x="445" y="-110"/>
      <point x="445" y="-83" type="curve" smooth="yes"/>
      <point x="445" y="-50"/>
      <point x="461" y="-26"/>
      <point x="494" y="0" type="curve"/>
      <point x="385" y="0" type="line"/>
      <point x="354" y="-26"/>
      <point x="333" y="-69"/>
      <point x="333" y="-113" type="curve" smooth="yes"/>
      <point x="333" y="-184"/>
      <point x="381" y="-213"/>
      <point x="438" y="-213" type="curve" smooth="yes"/>
    </contour>
    <contour>
      <point x="161" y="70"/>
      <point x="140" y="92"/>
      <point x="140" y="129" type="curve" smooth="yes"/>
      <point x="140" y="172"/>
      <point x="157" y="190"/>
      <point x="214" y="194" type="curve" smooth="yes"/>
      <point x="325" y="202" type="line"/>
      <point x="325" y="161" type="line" smooth="yes"/>
      <point x="325" y="99"/>
      <point x="282" y="70"/>
      <point x="215" y="70" type="curve" smooth="yes"/>
    </contour>
  </outline>
</glyph>
<glyph name="Ccircumflex" format="1">
  <advance width="603"/>
  <unicode hex="0108"/>
  <note>
	Ccircumflex
  </note>
  <outline>
    <contour>
      <point x="454" y="-15"/>
      <point x="510" y="-2"/>
      <point x="576" y="42" type="curve"/>
      <point x="529" y="116" type="line"/>
      <point x="478" y="87"/>
      <point x="432" y="74"/>
      <point x="371" y="74" type="curve" smooth="yes"/>
      <point x="233" y="74"/>
      <point x="157" y="164"/>
      <point x="157" y="319" type="curve" smooth="yes"/>
      <point x="157" y="478"/>
      <point x="227" y="573"/>
      <point x="357" y="573" type="curve" smooth="yes"/>
      <point x="396" y="573"/>
      <point x="418" y="569"/>
      <point x="443" y="558" type="curve"/>
      <point x="443" y="489" type="line"/>
      <point x="574" y="489" type="line"/>
      <point x="574" y="603" type="line"/>
      <point x="511" y="643"/>
      <point x="450" y="662"/>
      <point x="350" y="662" type="curve" smooth="yes"/>
      <point x="127" y="662"/>
      <point x="27" y="514"/>
      <point x="27" y="319" type="curve" smooth="yes"/>
      <point x="27" y="124"/>
      <point x="141" y="-15"/>
      <point x="365" y="-15" type="curve" smooth="yes"/>
    </contour>
    <contour>
      <point x="282" y="700" type="line"/>
      <point x="352" y="820" type="line"/>
      <point x="422" y="700" type="line"/>
      <point x="543" y="700" type="line"/>
      <point x="413" y="893" type="line"/>
      <point x="293" y="893" type="line"/>
      <point x="162" y="700" type="line"/>
    </contour>
  </outline>
</glyph>
<glyph name="ccircumflex" format="1">
  <advance width="520"/>
  <unicode hex="0109"/>
  <note>
	ccircumflex
  </note>
  <outline>
    <contour>
      <point x="384" y="-15"/>
      <point x="434" y="0"/>
      <point x="493" y="42" type="curve"/>
      <point x="449" y="114" type="line"/>
      <point x="412" y="89"/>
      <point x="371" y="74"/>
      <point x="314" y="74" type="curve" smooth="yes"/>
      <point x="224" y="74"/>
      <point x="157" y="123"/>
      <point x="157" y="235" type="curve" smooth="yes"/>
      <point x="157" y="354"/>
      <point x="216" y="406"/>
      <point x="289" y="406" type="curve" smooth="yes"/>
      <point x="330" y="406"/>
      <point x="352" y="399"/>
      <point x="377" y="385" type="curve"/>
      <point x="377" y="327" type="line"/>
      <point x="490" y="327" type="line"/>
      <point x="490" y="432" type="line"/>
      <point x="435" y="474"/>
      <point x="383" y="495"/>
      <point x="289" y="495" type="curve" smooth="yes"/>
      <point x="129" y="495"/>
      <point x="27" y="403"/>
      <point x="27" y="235" type="curve" smooth="yes"/>
      <point x="27" y="71"/>
      <point x="140" y="-15"/>
      <point x="290" y="-15" type="curve" smooth="yes"/>
    </contour>
    <contour>
      <point x="205" y="523" type="line"/>
      <point x="275" y="643" type="line"/>
      <point x="345" y="523" type="line"/>
      <point x="466" y="523" type="line"/>
      <point x="336" y="716" type="line"/>
      <point x="216" y="716" type="line"/>
      <point x="85" y="523" type="line"/>
    </contour>
  </outline>
</glyph>
<glyph name="Cdotaccent" format="1">
  <advance width="603"/>
  <unicode hex="010A"/>
  <note>
	Cdotaccent
  </note>
  <outline>
    <contour>
      <point x="454" y="-15"/>
      <point x="510" y="-2"/>
      <point x="576" y="42" type="curve"/>
      <point x="529" y="116" type="line"/>
      <point x="478" y="87"/>
      <point x="432" y="74"/>
      <point x="371" y="74" type="curve" smooth="yes"/>
      <point x="233" y="74"/>
      <point x="157" y="164"/>
      <point x="157" y="319" type="curve" smooth="yes"/>
      <point x="157" y="478"/>
      <point x="227" y="573"/>
      <point x="357" y="573" type="curve" smooth="yes"/>
      <point x="396" y="573"/>
      <point x="418" y="569"/>
      <point x="443" y="558" type="curve"/>
      <point x="443" y="489" type="line"/>
      <point x="574" y="489" type="line"/>
      <point x="574" y="603" type="line"/>
      <point x="511" y="643"/>
      <point x="450" y="662"/>
      <point x="350" y="662" type="curve" smooth="yes"/>
      <point x="127" y="662"/>
      <point x="27" y="514"/>
      <point x="27" y="319" type="curve" smooth="yes"/>
      <point x="27" y="124"/>
      <point x="141" y="-15"/>
      <point x="365" y="-15" type="curve" smooth="yes"/>
    </contour>
    <contour>
      <point x="395" y="719" type="line"/>
      <point x="395" y="828" type="line"/>
      <point x="291" y="828" type="line"/>
      <point x="291" y="719" type="line"/>
    </contour>
  </outline>
</glyph>
<glyph name="Ccaron" format="1">
  <advance width="603"/>
  <unicode hex="010C"/>
  <note>
	Ccaron
  </note>
  <outline>
    <contour>
      <point x="454" y="-15"/>
      <point x="510" y="-2"/>
      <point x="576" y="42" type="curve"/>
      <point x="529" y="116" type="line"/>
      <point x="478" y="87"/>
      <point x="432" y="74"/>
      <point x="371" y="74" type="curve" smooth="yes"/>
      <point x="233" y="74"/>
      <point x="157" y="164"/>
      <point x="157" y="319" type="curve" smooth="yes"/>
      <point x="157" y="478"/>
      <point x="227" y="573"/>
      <point x="357" y="573" type="curve" smooth="yes"/>
      <point x="396" y="573"/>
      <point x="418" y="569"/>
      <point x="443" y="558" type="curve"/>
      <point x="443" y="489" type="line"/>
      <point x="574" y="489" type="line"/>
      <point x="574" y="603" type="line"/>
      <point x="511" y="643"/>
      <point x="450" y="662"/>
      <point x="350" y="662" type="curve" smooth="yes"/>
      <point x="127" y="662"/>
      <point x="27" y="514"/>
      <point x="27" y="319" type="curve" smooth="yes"/>
      <point x="27" y="124"/>
      <point x="141" y="-15"/>
      <point x="365" y="-15" type="curve" smooth="yes"/>
    </contour>
    <contour>
      <point x="407" y="700" type="line"/>
      <point x="537" y="893" type="line"/>
      <point x="416" y="893" type="line"/>
      <point x="346" y="773" type="line"/>
      <point x="276" y="893" type="line"/>
      <point x="156" y="893" type="line"/>
      <point x="287" y="700" type="line"/>
    </contour>
  </outline>
</glyph>
<glyph name="dcaron" format="1">
  <advance width="758"/>
  <unicode hex="010F"/>
  <note>
	dcaron
  </note>
  <outline>
    <contour>
      <point x="324" y="-14"/>
      <point x="377" y="11"/>
      <point x="419" y="67" type="curve"/>
      <point x="427" y="0" type="line"/>
      <point x="577" y="0" type="line"/>
      <point x="577" y="83" type="line"/>
      <point x="561" y="83" type="line" smooth="yes"/>
      <point x="535" y="83"/>
      <point x="527" y="92"/>
      <point x="527" y="121" type="curve" smooth="yes"/>
      <point x="527" y="662" type="line"/>
      <point x="343" y="662" type="line"/>
      <point x="343" y="574" type="line"/>
      <point x="361" y="574" type="line" smooth="yes"/>
      <point x="392" y="574"/>
      <point x="398" y="559"/>
      <point x="398" y="532" type="curve" smooth="yes"/>
      <point x="398" y="433" type="line"/>
      <point x="360" y="477"/>
      <point x="320" y="495"/>
      <point x="246" y="495" type="curve" smooth="yes"/>
      <point x="103" y="495"/>
      <point x="27" y="398"/>
      <point x="27" y="230" type="curve" smooth="yes"/>
      <point x="27" y="69"/>
      <point x="111" y="-14"/>
      <point x="241" y="-14" type="curve" smooth="yes"/>
    </contour>
    <contour>
      <point x="189" y="65"/>
      <point x="156" y="116"/>
      <point x="156" y="232" type="curve" smooth="yes"/>
      <point x="156" y="350"/>
      <point x="190" y="412"/>
      <point x="276" y="412" type="curve" smooth="yes"/>
      <point x="353" y="412"/>
      <point x="393" y="355"/>
      <point x="393" y="265" type="curve" smooth="yes"/>
      <point x="393" y="216" type="line" smooth="yes"/>
      <point x="393" y="133"/>
      <point x="351" y="65"/>
      <point x="273" y="65" type="curve" smooth="yes"/>
    </contour>
    <contour>
      <point x="674" y="510" type="line"/>
      <point x="751" y="721" type="line"/>
      <point x="606" y="721" type="line"/>
      <point x="563" y="510" type="line"/>
    </contour>
  </outline>
</glyph>
<glyph name="dcroat" format="1">
  <advance width="585"/>
  <unicode hex="0111"/>
  <note>
	dcroat
  </note>
  <outline>
    <contour>
      <point x="325" y="-14"/>
      <point x="378" y="11"/>
      <point x="420" y="67" type="curve"/>
      <point x="428" y="0" type="line"/>
      <point x="568" y="0" type="line"/>
      <point x="568" y="83" type="line"/>
      <point x="552" y="83" type="line" smooth="yes"/>
      <point x="526" y="83"/>
      <point x="518" y="92"/>
      <point x="518" y="121" type="curve" smooth="yes"/>
      <point x="518" y="516" type="line"/>
      <point x="568" y="516" type="line"/>
      <point x="568" y="601" type="line"/>
      <point x="518" y="601" type="line"/>
      <point x="518" y="688" type="line"/>
      <point x="362" y="688" type="line"/>
      <point x="362" y="630" type="line"/>
      <point x="373" y="620" type="line"/>
      <point x="391" y="620"/>
      <point x="397" y="614"/>
      <point x="399" y="601" type="curve"/>
      <point x="259" y="601" type="line"/>
      <point x="259" y="516" type="line"/>
      <point x="399" y="516" type="line"/>
      <point x="399" y="433" type="line"/>
      <point x="361" y="477"/>
      <point x="321" y="495"/>
      <point x="247" y="495" type="curve" smooth="yes"/>
      <point x="104" y="495"/>
      <point x="27" y="398"/>
      <point x="27" y="230" type="curve" smooth="yes"/>
      <point x="27" y="69"/>
      <point x="112" y="-14"/>
      <point x="242" y="-14" type="curve" smooth="yes"/>
    </contour>
    <contour>
      <point x="190" y="65"/>
      <point x="158" y="116"/>
      <point x="158" y="232" type="curve" smooth="yes"/>
      <point x="158" y="350"/>
      <point x="191" y="412"/>
      <point x="277" y="412" type="curve" smooth="yes"/>
      <point x="354" y="412"/>
      <point x="394" y="355"/>
      <point x="394" y="265" type="curve" smooth="yes"/>
      <point x="394" y="216" type="line" smooth="yes"/>
      <point x="394" y="133"/>
      <point x="352" y="65"/>
      <point x="274" y="65" type="curve" smooth="yes"/>
    </contour>
  </outline>
</glyph>
<glyph name="emacron" format="1">
  <advance width="541"/>
  <unicode hex="0113"/>
  <note>
	emacron
  </note>
  <outline>
    <contour>
      <point x="379" y="-15"/>
      <point x="447" y="7"/>
      <point x="497" y="49" type="curve"/>
      <point x="497" y="125" type="line"/>
      <point x="384" y="125" type="line"/>
      <point x="384" y="90" type="line"/>
      <point x="356" y="78"/>
      <point x="327" y="74"/>
      <point x="285" y="74" type="curve" smooth="yes"/>
      <point x="205" y="74"/>
      <point x="157" y="112"/>
      <point x="157" y="209" type="curve"/>
      <point x="514" y="209" type="line"/>
      <point x="514" y="256" type="line" smooth="yes"/>
      <point x="514" y="397"/>
      <point x="437" y="495"/>
      <point x="277" y="495" type="curve" smooth="yes"/>
      <point x="120" y="495"/>
      <point x="27" y="412"/>
      <point x="27" y="235" type="curve" smooth="yes"/>
      <point x="27" y="66"/>
      <point x="129" y="-15"/>
      <point x="284" y="-15" type="curve" smooth="yes"/>
    </contour>
    <contour>
      <point x="157" y="362"/>
      <point x="198" y="406"/>
      <point x="275" y="406" type="curve" smooth="yes"/>
      <point x="349" y="406"/>
      <point x="384" y="366"/>
      <point x="384" y="284" type="curve"/>
      <point x="157" y="284" type="line"/>
    </contour>
    <contour>
      <point x="428" y="544" type="line"/>
      <point x="428" y="625" type="line"/>
      <point x="129" y="625" type="line"/>
      <point x="129" y="544" type="line"/>
    </contour>
  </outline>
</glyph>
<glyph name="Eogonek" format="1">
  <advance width="546"/>
  <unicode hex="0118"/>
  <note>
	Eogonek
  </note>
  <outline>
    <contour>
      <point x="519" y="0" type="line"/>
      <point x="519" y="143" type="line"/>
      <point x="399" y="143" type="line"/>
      <point x="399" y="125" type="line" smooth="yes"/>
      <point x="399" y="99"/>
      <point x="387" y="87"/>
      <point x="360" y="87" type="curve" smooth="yes"/>
      <point x="224" y="87" type="line"/>
      <point x="224" y="280" type="line"/>
      <point x="378" y="280" type="line"/>
      <point x="378" y="368" type="line"/>
      <point x="224" y="368" type="line"/>
      <point x="224" y="560" type="line"/>
      <point x="360" y="560" type="line" smooth="yes"/>
      <point x="387" y="560"/>
      <point x="399" y="548"/>
      <point x="399" y="523" type="curve" smooth="yes"/>
      <point x="399" y="505" type="line"/>
      <point x="519" y="505" type="line"/>
      <point x="519" y="647" type="line"/>
      <point x="27" y="647" type="line"/>
      <point x="27" y="560" type="line"/>
      <point x="53" y="560" type="line" smooth="yes"/>
      <point x="81" y="560"/>
      <point x="92" y="548"/>
      <point x="92" y="523" type="curve" smooth="yes"/>
      <point x="92" y="126" type="line" smooth="yes"/>
      <point x="92" y="99"/>
      <point x="81" y="87"/>
      <point x="53" y="87" type="curve" smooth="yes"/>
      <point x="27" y="87" type="line"/>
      <point x="27" y="0" type="line"/>
    </contour>
    <contour>
      <point x="472" y="-213"/>
      <point x="498" y="-206"/>
      <point x="519" y="-191" type="curve"/>
      <point x="519" y="-117" type="line"/>
      <point x="506" y="-122"/>
      <point x="492" y="-125"/>
      <point x="480" y="-125" type="curve" smooth="yes"/>
      <point x="457" y="-125"/>
      <point x="446" y="-110"/>
      <point x="446" y="-83" type="curve" smooth="yes"/>
      <point x="446" y="-50"/>
      <point x="462" y="-26"/>
      <point x="495" y="0" type="curve"/>
      <point x="386" y="0" type="line"/>
      <point x="355" y="-26"/>
      <point x="334" y="-69"/>
      <point x="334" y="-113" type="curve" smooth="yes"/>
      <point x="334" y="-184"/>
      <point x="382" y="-213"/>
      <point x="439" y="-213" type="curve" smooth="yes"/>
    </contour>
  </outline>
</glyph>
<glyph name="eogonek" format="1">
  <advance width="541"/>
  <unicode hex="0119"/>
  <note>
	eogonek
  </note>
  <outline>
    <contour>
      <point x="377" y="-212"/>
      <point x="401" y="-209"/>
      <point x="429" y="-191" type="curve"/>
      <point x="429" y="-117" type="line"/>
      <point x="416" y="-122"/>
      <point x="402" y="-125"/>
      <point x="389" y="-125" type="curve" smooth="yes"/>
      <point x="366" y="-125"/>
      <point x="355" y="-110"/>
      <point x="355" y="-83" type="curve" smooth="yes"/>
      <point x="355" y="-50"/>
      <point x="372" y="-26"/>
      <point x="405" y="0" type="curve"/>
      <point x="440" y="10"/>
      <point x="470" y="27"/>
      <point x="497" y="48" type="curve"/>
      <point x="497" y="125" type="line"/>
      <point x="384" y="125" type="line"/>
      <point x="384" y="87" type="line"/>
      <point x="358" y="73"/>
      <point x="330" y="67"/>
      <point x="288" y="67" type="curve" smooth="yes"/>
      <point x="208" y="67"/>
      <point x="159" y="107"/>
      <point x="159" y="209" type="curve"/>
      <point x="514" y="209" type="line"/>
      <point x="514" y="256" type="line" smooth="yes"/>
      <point x="514" y="397"/>
      <point x="437" y="495"/>
      <point x="277" y="495" type="curve" smooth="yes"/>
      <point x="120" y="495"/>
      <point x="27" y="412"/>
      <point x="27" y="235" type="curve" smooth="yes"/>
      <point x="27" y="68"/>
      <point x="129" y="-12"/>
      <point x="280" y="-15" type="curve"/>
      <point x="257" y="-41"/>
      <point x="243" y="-76"/>
      <point x="243" y="-113" type="curve" smooth="yes"/>
      <point x="243" y="-179"/>
      <point x="287" y="-212"/>
      <point x="341" y="-212" type="curve" smooth="yes"/>
    </contour>
    <contour>
      <point x="159" y="362"/>
      <point x="198" y="410"/>
      <point x="275" y="410" type="curve" smooth="yes"/>
      <point x="349" y="410"/>
      <point x="384" y="366"/>
      <point x="384" y="284" type="curve"/>
      <point x="159" y="284" type="line"/>
    </contour>
  </outline>
</glyph>
<glyph name="Ecaron" format="1">
  <advance width="546"/>
  <unicode hex="011A"/>
  <note>
	Ecaron
  </note>
  <outline>
    <contour>
      <point x="519" y="0" type="line"/>
      <point x="519" y="143" type="line"/>
      <point x="399" y="143" type="line"/>
      <point x="399" y="125" type="line" smooth="yes"/>
      <point x="399" y="99"/>
      <point x="387" y="87"/>
      <point x="360" y="87" type="curve" smooth="yes"/>
      <point x="224" y="87" type="line"/>
      <point x="224" y="280" type="line"/>
      <point x="378" y="280" type="line"/>
      <point x="378" y="368" type="line"/>
      <point x="224" y="368" type="line"/>
      <point x="224" y="560" type="line"/>
      <point x="360" y="560" type="line" smooth="yes"/>
      <point x="387" y="560"/>
      <point x="399" y="548"/>
      <point x="399" y="523" type="curve" smooth="yes"/>
      <point x="399" y="505" type="line"/>
      <point x="519" y="505" type="line"/>
      <point x="519" y="647" type="line"/>
      <point x="27" y="647" type="line"/>
      <point x="27" y="560" type="line"/>
      <point x="53" y="560" type="line" smooth="yes"/>
      <point x="81" y="560"/>
      <point x="92" y="548"/>
      <point x="92" y="523" type="curve" smooth="yes"/>
      <point x="92" y="126" type="line" smooth="yes"/>
      <point x="92" y="99"/>
      <point x="81" y="87"/>
      <point x="53" y="87" type="curve" smooth="yes"/>
      <point x="27" y="87" type="line"/>
      <point x="27" y="0" type="line"/>
    </contour>
    <contour>
      <point x="337" y="700" type="line"/>
      <point x="467" y="893" type="line"/>
      <point x="346" y="893" type="line"/>
      <point x="276" y="773" type="line"/>
      <point x="206" y="893" type="line"/>
      <point x="86" y="893" type="line"/>
      <point x="217" y="700" type="line"/>
    </contour>
  </outline>
</glyph>
<glyph name="ecaron" format="1">
  <advance width="541"/>
  <unicode hex="011B"/>
  <note>
	ecaron
  </note>
  <outline>
    <contour>
      <point x="379" y="-15"/>
      <point x="447" y="7"/>
      <point x="497" y="49" type="curve"/>
      <point x="497" y="125" type="line"/>
      <point x="384" y="125" type="line"/>
      <point x="384" y="90" type="line"/>
      <point x="356" y="78"/>
      <point x="327" y="74"/>
      <point x="285" y="74" type="curve" smooth="yes"/>
      <point x="205" y="74"/>
      <point x="157" y="112"/>
      <point x="157" y="209" type="curve"/>
      <point x="514" y="209" type="line"/>
      <point x="514" y="256" type="line" smooth="yes"/>
      <point x="514" y="397"/>
      <point x="437" y="495"/>
      <point x="277" y="495" type="curve" smooth="yes"/>
      <point x="120" y="495"/>
      <point x="27" y="412"/>
      <point x="27" y="235" type="curve" smooth="yes"/>
      <point x="27" y="66"/>
      <point x="129" y="-15"/>
      <point x="284" y="-15" type="curve" smooth="yes"/>
    </contour>
    <contour>
      <point x="157" y="362"/>
      <point x="198" y="406"/>
      <point x="275" y="406" type="curve" smooth="yes"/>
      <point x="349" y="406"/>
      <point x="384" y="366"/>
      <point x="384" y="284" type="curve"/>
      <point x="157" y="284" type="line"/>
    </contour>
    <contour>
      <point x="336" y="523" type="line"/>
      <point x="466" y="716" type="line"/>
      <point x="345" y="716" type="line"/>
      <point x="275" y="596" type="line"/>
      <point x="205" y="716" type="line"/>
      <point x="85" y="716" type="line"/>
      <point x="216" y="523" type="line"/>
    </contour>
  </outline>
</glyph>
<glyph name="hcircumflex" format="1">
  <advance width="609"/>
  <unicode hex="0125"/>
  <note>
	hcircumflex
  </note>
  <outline>
    <contour>
      <point x="286" y="0" type="line"/>
      <point x="286" y="87" type="line"/>
      <point x="260" y="87" type="line" smooth="yes"/>
      <point x="233" y="87"/>
      <point x="223" y="99"/>
      <point x="223" y="124" type="curve" smooth="yes"/>
      <point x="223" y="317" type="line" smooth="yes"/>
      <point x="223" y="378"/>
      <point x="266" y="410"/>
      <point x="321" y="410" type="curve" smooth="yes"/>
      <point x="373" y="410"/>
      <point x="398" y="386"/>
      <point x="398" y="327" type="curve" smooth="yes"/>
      <point x="398" y="0" type="line"/>
      <point x="592" y="0" type="line"/>
      <point x="592" y="87" type="line"/>
      <point x="566" y="87" type="line" smooth="yes"/>
      <point x="539" y="87"/>
      <point x="529" y="99"/>
      <point x="529" y="124" type="curve" smooth="yes"/>
      <point x="529" y="328" type="line" smooth="yes"/>
      <point x="529" y="434"/>
      <point x="484" y="495"/>
      <point x="375" y="495" type="curve" smooth="yes"/>
      <point x="305" y="495"/>
      <point x="261" y="481"/>
      <point x="210" y="435" type="curve"/>
      <point x="210" y="662" type="line"/>
      <point x="27" y="662" type="line"/>
      <point x="27" y="575" type="line"/>
      <point x="55" y="575" type="line" smooth="yes"/>
      <point x="86" y="575"/>
      <point x="92" y="560"/>
      <point x="92" y="533" type="curve" smooth="yes"/>
      <point x="92" y="126" type="line" smooth="yes"/>
      <point x="92" y="99"/>
      <point x="81" y="87"/>
      <point x="53" y="87" type="curve" smooth="yes"/>
      <point x="27" y="87" type="line"/>
      <point x="27" y="0" type="line"/>
    </contour>
    <contour>
      <point x="148" y="700" type="line"/>
      <point x="218" y="820" type="line"/>
      <point x="288" y="700" type="line"/>
      <point x="409" y="700" type="line"/>
      <point x="279" y="893" type="line"/>
      <point x="159" y="893" type="line"/>
      <point x="28" y="700" type="line"/>
    </contour>
  </outline>
</glyph>
